<svg xmlns="http://www.w3.org/2000/svg" xmlns:xlink="http://www.w3.org/1999/xlink" viewBox="0 0 512 512" width="512" height="512" style="width: 100%; height: 100%; transform: translate3d(0px, 0px, 0px); content-visibility: visible;" preserveAspectRatio="xMidYMid meet"><defs><clipPath id="__lottie_element_957"><rect width="512" height="512" x="0" y="0"/></clipPath><linearGradient id="__lottie_element_962" spreadMethod="pad" gradientUnits="userSpaceOnUse" x1="-148.10365295410156" y1="-0.40400001406669617" x2="142.24093627929688" y2="-0.40400001406669617"><stop offset="0%" stop-color="rgb(179,255,247)"/><stop offset="6%" stop-color="rgb(154,236,227)"/><stop offset="12%" stop-color="rgb(128,216,207)"/><stop offset="40%" stop-color="rgb(98,216,203)"/><stop offset="68%" stop-color="rgb(69,216,200)"/><stop offset="74%" stop-color="rgb(34,158,159)"/><stop offset="81%" stop-color="rgb(0,99,117)"/><stop offset="90%" stop-color="rgb(47,130,135)"/><stop offset="100%" stop-color="rgb(95,161,154)"/></linearGradient><linearGradient id="__lottie_element_963" spreadMethod="pad" gradientUnits="userSpaceOnUse" x1="-156.0989990234375" y1="-0.5189999938011169" x2="155.2213134765625" y2="-0.5189999938011169"><stop offset="0%" stop-color="rgb(0,170,183)" stop-opacity="0.4000000059604645"/><stop offset="32%" stop-color="rgb(20,176,181)" stop-opacity="0.699999988079071"/><stop offset="65%" stop-color="rgb(41,182,179)" stop-opacity="1"/><stop offset="69%" stop-color="rgb(20,146,157)" stop-opacity="1"/><stop offset="73%" stop-color="rgb(0,110,135)" stop-opacity="1"/><stop offset="86%" stop-color="rgb(19,93,108)" stop-opacity="1"/><stop offset="100%" stop-color="rgb(37,76,80)" stop-opacity="1"/></linearGradient><linearGradient id="__lottie_element_967" spreadMethod="pad" gradientUnits="userSpaceOnUse" x1="-145.5330047607422" y1="-27.229999542236328" x2="108.7979965209961" y2="15.244999885559082"><stop offset="0%" stop-color="rgb(128,216,207)"/><stop offset="36%" stop-color="rgb(64,158,162)"/><stop offset="72%" stop-color="rgb(0,99,117)"/><stop offset="86%" stop-color="rgb(0,95,112)"/><stop offset="100%" stop-color="rgb(0,91,107)"/></linearGradient><linearGradient id="__lottie_element_968" spreadMethod="pad" gradientUnits="userSpaceOnUse" x1="-8.847000122070312" y1="54.31999969482422" x2="9.288999557495117" y2="-51.52899932861328"><stop offset="0%" stop-color="rgb(98,85,92)"/><stop offset="50%" stop-color="rgb(49,43,46)"/><stop offset="100%" stop-color="rgb(0,0,0)"/></linearGradient><radialGradient id="__lottie_element_969" spreadMethod="pad" gradientUnits="userSpaceOnUse" cx="-8.946681022644043" cy="4.660967826843262" r="54.7095175836467" fx="-8.946681022644043" fy="4.660967826843262"><stop offset="0%" stop-color="rgb(153,153,153)" stop-opacity="1"/><stop offset="50%" stop-color="rgb(153,153,153)" stop-opacity="0.5"/><stop offset="100%" stop-color="rgb(153,153,153)" stop-opacity="0"/></radialGradient><linearGradient id="__lottie_element_973" spreadMethod="pad" gradientUnits="userSpaceOnUse" x1="-1.8359999656677246" y1="-87.34400177001953" x2="4.724999904632568" y2="61.49100112915039"><stop offset="0%" stop-color="rgb(0,0,0)"/><stop offset="50%" stop-color="rgb(42,34,37)"/><stop offset="100%" stop-color="rgb(83,69,75)"/></linearGradient><linearGradient id="__lottie_element_974" spreadMethod="pad" gradientUnits="userSpaceOnUse" x1="-108.52799987792969" y1="-0.48899999260902405" x2="110.427001953125" y2="-0.48899999260902405"><stop offset="1%" stop-color="rgb(0,0,0)" stop-opacity="1"/><stop offset="51%" stop-color="rgb(42,34,37)" stop-opacity="0.5"/><stop offset="100%" stop-color="rgb(83,69,75)" stop-opacity="0"/></linearGradient><linearGradient id="__lottie_element_975" spreadMethod="pad" gradientUnits="userSpaceOnUse" x1="-120.41199493408203" y1="-105.7396011352539" x2="129.59478759765625" y2="-10.490684509277344"><stop offset="0%" stop-color="rgb(179,255,247)"/><stop offset="6%" stop-color="rgb(154,236,227)"/><stop offset="12%" stop-color="rgb(128,216,207)"/><stop offset="40%" stop-color="rgb(98,216,203)"/><stop offset="68%" stop-color="rgb(69,216,200)"/><stop offset="74%" stop-color="rgb(34,158,159)"/><stop offset="81%" stop-color="rgb(0,99,117)"/><stop offset="90%" stop-color="rgb(47,130,135)"/><stop offset="100%" stop-color="rgb(95,161,154)"/></linearGradient><linearGradient id="__lottie_element_976" spreadMethod="pad" gradientUnits="userSpaceOnUse" x1="0.13899999856948853" y1="-104.97000122070312" x2="0.13899999856948853" y2="103.38600158691406"><stop offset="0%" stop-color="rgb(0,170,183)" stop-opacity="0.4000000059604645"/><stop offset="6%" stop-color="rgb(20,176,181)" stop-opacity="0.699999988079071"/><stop offset="11%" stop-color="rgb(41,182,179)" stop-opacity="1"/><stop offset="17%" stop-color="rgb(20,146,157)" stop-opacity="1"/><stop offset="24%" stop-color="rgb(0,110,135)" stop-opacity="1"/><stop offset="62%" stop-color="rgb(19,93,108)" stop-opacity="1"/><stop offset="100%" stop-color="rgb(37,76,80)" stop-opacity="1"/></linearGradient><linearGradient id="__lottie_element_977" spreadMethod="pad" gradientUnits="userSpaceOnUse" x1="-0.5270000100135803" y1="-30.7549991607666" x2="-8.892999649047852" y2="29.625999450683594"><stop offset="0%" stop-color="rgb(64,59,62)" stop-opacity="1"/><stop offset="19%" stop-color="rgb(87,80,88)" stop-opacity="1"/><stop offset="38%" stop-color="rgb(111,100,115)" stop-opacity="1"/><stop offset="61%" stop-color="rgb(88,81,89)" stop-opacity="1"/><stop offset="85%" stop-color="rgb(66,61,63)" stop-opacity="1"/><stop offset="93%" stop-color="rgb(74,65,69)" stop-opacity="0.5"/><stop offset="100%" stop-color="rgb(83,69,75)" stop-opacity="0"/></linearGradient><linearGradient id="__lottie_element_978" spreadMethod="pad" gradientUnits="userSpaceOnUse" x1="-107.09400177001953" y1="-0.9350000023841858" x2="107.23699951171875" y2="-0.9350000023841858"><stop offset="0%" stop-color="rgb(68,62,65)"/><stop offset="24%" stop-color="rgb(74,65,70)"/><stop offset="48%" stop-color="rgb(81,68,74)"/><stop offset="74%" stop-color="rgb(41,34,37)"/><stop offset="100%" stop-color="rgb(0,0,0)"/></linearGradient><linearGradient id="__lottie_element_979" spreadMethod="pad" gradientUnits="userSpaceOnUse" x1="-188.0330047607422" y1="-42.94900131225586" x2="119.61100006103516" y2="-15.409000396728516"><stop offset="0%" stop-color="rgb(179,255,247)"/><stop offset="6%" stop-color="rgb(154,236,227)"/><stop offset="12%" stop-color="rgb(128,216,207)"/><stop offset="40%" stop-color="rgb(98,216,203)"/><stop offset="68%" stop-color="rgb(69,216,200)"/><stop offset="74%" stop-color="rgb(34,158,159)"/><stop offset="81%" stop-color="rgb(0,99,117)"/><stop offset="90%" stop-color="rgb(47,130,135)"/><stop offset="100%" stop-color="rgb(95,161,154)"/></linearGradient><linearGradient id="__lottie_element_980" spreadMethod="pad" gradientUnits="userSpaceOnUse" x1="-43.82899856567383" y1="154.4250030517578" x2="71.38400268554688" y2="143.55799865722656"><stop offset="0%" stop-color="rgb(0,170,183)" stop-opacity="0.4000000059604645"/><stop offset="6%" stop-color="rgb(20,176,181)" stop-opacity="0.699999988079071"/><stop offset="11%" stop-color="rgb(41,182,179)" stop-opacity="1"/><stop offset="17%" stop-color="rgb(20,146,157)" stop-opacity="1"/><stop offset="24%" stop-color="rgb(0,110,135)" stop-opacity="1"/><stop offset="62%" stop-color="rgb(19,93,108)" stop-opacity="1"/><stop offset="100%" stop-color="rgb(37,76,80)" stop-opacity="1"/></linearGradient><linearGradient id="__lottie_element_981" spreadMethod="pad" gradientUnits="userSpaceOnUse" x1="166.3209991455078" y1="222.94000244140625" x2="302.281005859375" y2="224.6959991455078"><stop offset="0%" stop-color="rgb(168,246,238)" stop-opacity="1"/><stop offset="50%" stop-color="rgb(109,215,208)" stop-opacity="0.9950000047683716"/><stop offset="100%" stop-color="rgb(50,185,178)" stop-opacity="0.9900000095367432"/></linearGradient><linearGradient id="__lottie_element_982" spreadMethod="pad" gradientUnits="userSpaceOnUse" x1="-14.208000183105469" y1="16.489999771118164" x2="22.29199981689453" y2="-14.491999626159668"><stop offset="0%" stop-color="rgb(0,110,135)"/><stop offset="50%" stop-color="rgb(0,110,135)"/><stop offset="100%" stop-color="rgb(0,110,135)"/></linearGradient><mask id="__lottie_element_984"><path fill="url(#__lottie_element_983)" d=" M12.600000381469727,-77.81999969482422 C15.243000030517578,-77.51499938964844 19.76799964904785,-77.00299835205078 19.902999877929688,-76.99299621582031 C19.902999877929688,-76.99299621582031 21.526453018188477,-76.84300231933594 21.526453018188477,-76.84300231933594 C21.526453018188477,-76.84300231933594 40.2869987487793,-74.72200012207031 40.2869987487793,-74.72200012207031 C43.680999755859375,-74.33799743652344 43.303001403808594,-74.38999938964844 39.737998962402344,-74.7979965209961 C39.737998962402344,-74.7979965209961 19.097000122070312,-77.16200256347656 19.097000122070312,-77.16200256347656 C19.097000122070312,-77.16200256347656 13.442999839782715,-77.83699798583984 13.442999839782715,-77.83699798583984 C12.463000297546387,-77.95500183105469 6.951000213623047,-78.58399963378906 4.443999767303467,-78.86499786376953 C4.443999767303467,-78.86499786376953 -8.12600040435791,-80.27300262451172 -8.12600040435791,-80.27300262451172 C-8.12600040435791,-80.27300262451172 -28.47599983215332,-82.59300231933594 -28.47599983215332,-82.59300231933594 C-32.17399978637695,-83.01499938964844 -34.81700134277344,-83.30999755859375 -32.858001708984375,-83.08200073242188 C-29.45599937438965,-82.68599700927734 -25.3799991607666,-82.20800018310547 -17.386999130249023,-81.2969970703125 C-17.386999130249023,-81.2969970703125 2.9030001163482666,-78.98400115966797 2.9030001163482666,-78.98400115966797 C3.9820001125335693,-78.86100006103516 4.131999969482422,-78.84100341796875 3.0739998817443848,-78.96099853515625 C3.0739998817443848,-78.96099853515625 -18.62700080871582,-81.42400360107422 -18.62700080871582,-81.42400360107422 C-25.104999542236328,-82.16000366210938 -28.083999633789062,-82.48799896240234 -30.900999069213867,-82.8010025024414 C-33.0099983215332,-83.03600311279297 -29.320999145507812,-82.60800170898438 -25.277000427246094,-82.14900207519531 C-25.277000427246094,-82.14900207519531 -4.961999893188477,-79.84300231933594 -4.961999893188477,-79.84300231933594 C-4.961999893188477,-79.84300231933594 12.600000381469727,-77.81999969482422 12.600000381469727,-77.81999969482422z"/></mask><linearGradient id="__lottie_element_983" spreadMethod="pad" gradientUnits="userSpaceOnUse" x1="-14.208000183105469" y1="16.489999771118164" x2="22.29199981689453" y2="-14.491999626159668"><stop stop-color="rgb(255,255,255)" offset="0%" stop-opacity="0.25"/><stop stop-color="rgb(255,255,255)" offset="50%" stop-opacity="0.375"/><stop stop-color="rgb(255,255,255)" offset="100%" stop-opacity="0.5"/><stop stop-color="rgb(255,255,255)" offset="100%" stop-opacity="0.75"/><stop stop-color="rgb(255,255,255)" offset="100%" stop-opacity="1"/></linearGradient><radialGradient id="__lottie_element_988" spreadMethod="pad" gradientUnits="userSpaceOnUse" cx="2.707047462463379" cy="14.074723243713379" r="74.40809113275833" fx="2.707047462463379" fy="14.074723243713379"><stop offset="0%" stop-color="rgb(255,255,255)"/><stop offset="26%" stop-color="rgb(222,246,243)"/><stop offset="51%" stop-color="rgb(189,236,231)"/><stop offset="71%" stop-color="rgb(120,144,141)"/><stop offset="91%" stop-color="rgb(51,51,51)"/><stop offset="92%" stop-color="rgb(77,77,77)"/><stop offset="93%" stop-color="rgb(103,103,103)"/><stop offset="96%" stop-color="rgb(156,156,156)"/><stop offset="100%" stop-color="rgb(209,209,209)"/></radialGradient><radialGradient id="__lottie_element_989" spreadMethod="pad" gradientUnits="userSpaceOnUse" cx="0.22499999403953552" cy="-0.6990000009536743" r="74.82400360703468" fx="0.22499999403953552" fy="-0.6990000009536743"><stop offset="0%" stop-color="rgb(7,104,120)"/><stop offset="35%" stop-color="rgb(119,167,175)"/><stop offset="70%" stop-color="rgb(230,230,230)"/><stop offset="85%" stop-color="rgb(168,159,164)"/><stop offset="100%" stop-color="rgb(105,87,98)"/></radialGradient><linearGradient id="__lottie_element_990" spreadMethod="pad" gradientUnits="userSpaceOnUse" x1="0.902999997138977" y1="42.24100112915039" x2="0.902999997138977" y2="-44.15599822998047"><stop offset="0%" stop-color="rgb(0,106,104)"/><stop offset="50%" stop-color="rgb(0,53,52)"/><stop offset="100%" stop-color="rgb(0,0,0)"/></linearGradient><radialGradient id="__lottie_element_991" spreadMethod="pad" gradientUnits="userSpaceOnUse" cx="243.03900146484375" cy="280.12298583984375" r="75.29770629358723" fx="243.03900146484375" fy="280.12298583984375"><stop offset="0%" stop-color="rgb(255,255,255)"/><stop offset="26%" stop-color="rgb(222,246,243)"/><stop offset="51%" stop-color="rgb(189,236,231)"/><stop offset="71%" stop-color="rgb(120,144,141)"/><stop offset="91%" stop-color="rgb(51,51,51)"/><stop offset="92%" stop-color="rgb(77,77,77)"/><stop offset="93%" stop-color="rgb(103,103,103)"/><stop offset="96%" stop-color="rgb(156,156,156)"/><stop offset="100%" stop-color="rgb(209,209,209)"/></radialGradient><linearGradient id="__lottie_element_995" spreadMethod="pad" gradientUnits="userSpaceOnUse" x1="-20.581501007080078" y1="-0.6082062721252441" x2="29.665443420410156" y2="-0.6741160154342651"><stop offset="0%" stop-color="rgb(255,255,255)"/><stop offset="9%" stop-color="rgb(243,243,243)"/><stop offset="18%" stop-color="rgb(230,230,230)"/><stop offset="22%" stop-color="rgb(198,198,198)"/><stop offset="25%" stop-color="rgb(165,165,165)"/><stop offset="46%" stop-color="rgb(210,210,210)"/><stop offset="67%" stop-color="rgb(255,255,255)"/><stop offset="72%" stop-color="rgb(141,141,141)"/><stop offset="77%" stop-color="rgb(26,26,26)"/><stop offset="89%" stop-color="rgb(77,77,77)"/><stop offset="100%" stop-color="rgb(128,128,128)"/></linearGradient><linearGradient id="__lottie_element_999" spreadMethod="pad" gradientUnits="userSpaceOnUse" x1="1.4329999685287476" y1="-3.992000102996826" x2="-1.3350000381469727" y2="11.923999786376953"><stop offset="0%" stop-color="rgb(62,57,60)" stop-opacity="1"/><stop offset="9%" stop-color="rgb(62,57,60)" stop-opacity="1"/><stop offset="19%" stop-color="rgb(62,57,60)" stop-opacity="1"/><stop offset="60%" stop-color="rgb(67,61,64)" stop-opacity="0.5"/><stop offset="100%" stop-color="rgb(71,65,68)" stop-opacity="0"/></linearGradient><radialGradient id="__lottie_element_1485" spreadMethod="pad" gradientUnits="userSpaceOnUse" cx="0" cy="0" r="251" fx="0" fy="0"><stop offset="0%" stop-color="rgb(255,255,255)" stop-opacity="1"/><stop offset="5%" stop-color="rgb(255,255,255)" stop-opacity="1"/><stop offset="11%" stop-color="rgb(255,255,255)" stop-opacity="1"/><stop offset="56%" stop-color="rgb(255,220,244)" stop-opacity="0.5"/><stop offset="100%" stop-color="rgb(255,184,233)" stop-opacity="0"/></radialGradient><radialGradient id="__lottie_element_1486" spreadMethod="pad" gradientUnits="userSpaceOnUse" cx="0" cy="0" r="251" fx="0" fy="0"><stop offset="0%" stop-color="rgb(255,255,255)" stop-opacity="1"/><stop offset="11%" stop-color="rgb(255,255,255)" stop-opacity="1"/><stop offset="22%" stop-color="rgb(255,255,255)" stop-opacity="1"/><stop offset="61%" stop-color="rgb(255,220,244)" stop-opacity="0.5"/><stop offset="100%" stop-color="rgb(255,184,233)" stop-opacity="0"/></radialGradient><radialGradient id="__lottie_element_1562" spreadMethod="pad" gradientUnits="userSpaceOnUse" cx="0" cy="0" r="251" fx="0" fy="0"><stop offset="0%" stop-color="rgb(255,255,255)" stop-opacity="1"/><stop offset="25%" stop-color="rgb(255,255,255)" stop-opacity="1"/><stop offset="50%" stop-color="rgb(255,255,255)" stop-opacity="1"/><stop offset="75%" stop-color="rgb(255,220,244)" stop-opacity="0.5"/><stop offset="100%" stop-color="rgb(255,184,233)" stop-opacity="0"/></radialGradient><radialGradient id="__lottie_element_1625" spreadMethod="pad" gradientUnits="userSpaceOnUse" cx="0" cy="0" r="251" fx="0" fy="0"><stop offset="0%" stop-color="rgb(255,255,255)" stop-opacity="1"/><stop offset="11%" stop-color="rgb(255,255,255)" stop-opacity="1"/><stop offset="22%" stop-color="rgb(255,255,255)" stop-opacity="1"/><stop offset="61%" stop-color="rgb(255,220,244)" stop-opacity="0.5"/><stop offset="100%" stop-color="rgb(255,184,233)" stop-opacity="0"/></radialGradient><radialGradient id="__lottie_element_1661" spreadMethod="pad" gradientUnits="userSpaceOnUse" cx="0" cy="0" r="251" fx="0" fy="0"><stop offset="0%" stop-color="rgb(255,255,255)" stop-opacity="1"/><stop offset="11%" stop-color="rgb(255,255,255)" stop-opacity="1"/><stop offset="22%" stop-color="rgb(255,255,255)" stop-opacity="1"/><stop offset="61%" stop-color="rgb(255,220,244)" stop-opacity="0.5"/><stop offset="100%" stop-color="rgb(255,184,233)" stop-opacity="0"/></radialGradient><radialGradient id="__lottie_element_1676" spreadMethod="pad" gradientUnits="userSpaceOnUse" cx="0" cy="0" r="251" fx="0" fy="0"><stop offset="0%" stop-color="rgb(255,255,255)" stop-opacity="1"/><stop offset="5%" stop-color="rgb(255,255,255)" stop-opacity="1"/><stop offset="11%" stop-color="rgb(255,255,255)" stop-opacity="1"/><stop offset="56%" stop-color="rgb(255,220,244)" stop-opacity="0.5"/><stop offset="100%" stop-color="rgb(255,184,233)" stop-opacity="0"/></radialGradient><radialGradient id="__lottie_element_1677" spreadMethod="pad" gradientUnits="userSpaceOnUse" cx="0" cy="0" r="251" fx="0" fy="0"><stop offset="0%" stop-color="rgb(255,255,255)" stop-opacity="1"/><stop offset="5%" stop-color="rgb(255,255,255)" stop-opacity="1"/><stop offset="11%" stop-color="rgb(255,255,255)" stop-opacity="1"/><stop offset="56%" stop-color="rgb(255,220,244)" stop-opacity="0.5"/><stop offset="100%" stop-color="rgb(255,184,233)" stop-opacity="0"/></radialGradient><radialGradient id="__lottie_element_1698" spreadMethod="pad" gradientUnits="userSpaceOnUse" cx="0" cy="0" r="251" fx="0" fy="0"><stop offset="0%" stop-color="rgb(255,255,255)" stop-opacity="1"/><stop offset="5%" stop-color="rgb(255,255,255)" stop-opacity="1"/><stop offset="11%" stop-color="rgb(255,255,255)" stop-opacity="1"/><stop offset="56%" stop-color="rgb(255,220,244)" stop-opacity="0.5"/><stop offset="100%" stop-color="rgb(255,184,233)" stop-opacity="0"/></radialGradient><radialGradient id="__lottie_element_1699" spreadMethod="pad" gradientUnits="userSpaceOnUse" cx="0" cy="0" r="251" fx="0" fy="0"><stop offset="0%" stop-color="rgb(255,255,255)" stop-opacity="1"/><stop offset="11%" stop-color="rgb(255,255,255)" stop-opacity="1"/><stop offset="22%" stop-color="rgb(255,255,255)" stop-opacity="1"/><stop offset="61%" stop-color="rgb(255,220,244)" stop-opacity="0.5"/><stop offset="100%" stop-color="rgb(255,184,233)" stop-opacity="0"/></radialGradient></defs><g clip-path="url(#__lottie_element_957)"><g style="display: block;" transform="matrix(1.079014778137207,-0.016200421378016472,0.016200421378016472,1.079014778137207,-10.519299507141113,-48.89878463745117)" opacity="1"><g opacity="1" transform="matrix(1,0,0,1,237.43099975585938,370.40399169921875)"><path fill="url(#__lottie_element_962)" fill-opacity="1" d=" M148.72799682617188,-67.94300079345703 C148.74200439453125,-83.87799835205078 136.3159942626953,-91.4020004272461 119.99600219726562,-93.31199645996094 C119.99600219726562,-93.31199645996094 -42.74800109863281,-113.49600219726562 -42.74800109863281,-113.49600219726562 C-59.417999267578125,-115.4469985961914 -76.84300231933594,-113.34600067138672 -85.70899963378906,-102.66100311279297 C-85.70899963378906,-102.66100311279297 -141.51600646972656,-27.13599967956543 -141.51600646972656,-27.13599967956543 C-149.697998046875,-17.74799919128418 -151.08399963378906,-11.234999656677246 -153.3509979248047,-0.8769999742507935 C-154.86099243164062,6.504000186920166 -149.6529998779297,68.72599792480469 -149.22500610351562,72.27300262451172 C-147.8459930419922,83.46399688720703 -139.677001953125,90.53199768066406 -126.2509994506836,93.0989990234375 C-126.2509994506836,93.0989990234375 52.91899871826172,118.23699951171875 52.91899871826172,118.23699951171875 C74.85600280761719,120.34100341796875 97.73100280761719,115.44000244140625 104.64600372314453,98.15399932861328 C104.64600372314453,98.15399932861328 142.20799255371094,13.52299976348877 142.20799255371094,13.52299976348877 C144.38800048828125,9.010000228881836 145.38499450683594,5.8520002365112305 146.79299926757812,-0.574999988079071 C148.86000061035156,-10.574999809265137 148.7270050048828,-66.4530029296875 148.72799682617188,-67.94300079345703z"/><path stroke-linecap="round" stroke-linejoin="round" fill-opacity="0" stroke="rgb(0,110,135)" stroke-opacity="1" stroke-width="6" d=" M148.72799682617188,-67.94300079345703 C148.74200439453125,-83.87799835205078 136.3159942626953,-91.4020004272461 119.99600219726562,-93.31199645996094 C119.99600219726562,-93.31199645996094 -42.74800109863281,-113.49600219726562 -42.74800109863281,-113.49600219726562 C-59.417999267578125,-115.4469985961914 -76.84300231933594,-113.34600067138672 -85.70899963378906,-102.66100311279297 C-85.70899963378906,-102.66100311279297 -141.51600646972656,-27.13599967956543 -141.51600646972656,-27.13599967956543 C-149.697998046875,-17.74799919128418 -151.08399963378906,-11.234999656677246 -153.3509979248047,-0.8769999742507935 C-154.86099243164062,6.504000186920166 -149.6529998779297,68.72599792480469 -149.22500610351562,72.27300262451172 C-147.8459930419922,83.46399688720703 -139.677001953125,90.53199768066406 -126.2509994506836,93.0989990234375 C-126.2509994506836,93.0989990234375 52.91899871826172,118.23699951171875 52.91899871826172,118.23699951171875 C74.85600280761719,120.34100341796875 97.73100280761719,115.44000244140625 104.64600372314453,98.15399932861328 C104.64600372314453,98.15399932861328 142.20799255371094,13.52299976348877 142.20799255371094,13.52299976348877 C144.38800048828125,9.010000228881836 145.38499450683594,5.8520002365112305 146.79299926757812,-0.574999988079071 C148.86000061035156,-10.574999809265137 148.7270050048828,-66.4530029296875 148.72799682617188,-67.94300079345703z"/></g><g opacity="1" transform="matrix(1,0,0,1,238.0989990234375,412.5190124511719)"><path stroke="url(#__lottie_element_963)" stroke-linecap="round" stroke-linejoin="round" fill-opacity="0" stroke-opacity="1" stroke-width="3" d=" M-150.04600524902344,10.152999877929688 C-149.52699279785156,21.615999221801758 -139.7550048828125,31.374000549316406 -126.28600311279297,33.65399932861328 C-126.28600311279297,33.65399932861328 54.91600036621094,58.270999908447266 54.91600036621094,58.270999908447266 C77.10299682617188,60.5 98.76499938964844,51.90999984741211 105.43900299072266,35.60499954223633 C105.43900299072266,35.60499954223633 141.37600708007812,-44.69499969482422 141.37600708007812,-44.69499969482422 C143.55599975585938,-49.20800018310547 147.49899291992188,-56.36800003051758 148.08299255371094,-65.43000030517578"/></g><g opacity="1" transform="matrix(1,0,0,1,339.18499755859375,385.2879943847656)"><path stroke-linecap="round" stroke-linejoin="round" fill-opacity="0" stroke="rgb(37,76,80)" stroke-opacity="1" stroke-width="6" d=" M-48.83399963378906,103.35199737548828 C-26.89699935913086,105.45600128173828 -4.021999835968018,100.55599975585938 2.8929998874664307,83.2699966430664 C2.8929998874664307,83.2699966430664 40.45399856567383,-1.3609999418258667 40.45399856567383,-1.3609999418258667 C42.63399887084961,-5.874000072479248 43.694000244140625,-9.031999588012695 45.03900146484375,-15.460000038146973 C46.99800109863281,-25.511999130249023 46.98099899291992,-81.33699798583984 46.974998474121094,-82.8270034790039 C46.909000396728516,-99.0260009765625 34.5629997253418,-106.28600311279297 18.243000030517578,-108.19599914550781"/></g><g opacity="1" transform="matrix(1,0,0,1,142.8040008544922,342.1969909667969)"><path stroke-linecap="round" stroke-linejoin="round" fill-opacity="0" stroke="rgb(0,170,183)" stroke-opacity="1" stroke-width="6" d=" M51.87900161743164,-85.28900146484375 C35.20899963378906,-87.23999786376953 17.784000396728516,-85.13899993896484 8.918000221252441,-74.4540023803711 C8.918000221252441,-74.4540023803711 -46.888999938964844,1.0700000524520874 -46.888999938964844,1.0700000524520874 C-55.07099914550781,10.458000183105469 -56.457000732421875,16.66900062561035 -58.7239990234375,27.32900047302246 C-60.23400115966797,34.709999084472656 -55.04399871826172,97.0009994506836 -54.597999572753906,100.4800033569336"/></g></g><g style="display: block;" transform="matrix(1.079014778137207,-0.016200421378016472,0.016200421378016472,1.079014778137207,-10.519299507141113,-48.8988037109375)" opacity="1"><g opacity="1" transform="matrix(1,0,0,1,237.5330047607422,333.2300109863281)"><path fill="url(#__lottie_element_967)" fill-opacity="1" d=" M46.02899932861328,71.8949966430664 C46.02899932861328,71.8949966430664 -124.59300231933594,47.03499984741211 -124.59300231933594,47.03499984741211 C-142.26199340820312,43.96699905395508 -147.37100219726562,27.760000228881836 -138.66299438476562,18.115999221801758 C-138.66299438476562,18.115999221801758 -82.29100036621094,-57.01599884033203 -82.29100036621094,-57.01599884033203 C-73.4219970703125,-67.3270034790039 -60.48400115966797,-68.04199981689453 -39.845001220703125,-66.0770034790039 C-28.697999954223633,-65.01599884033203 89.78700256347656,-55.53499984741211 109.60900115966797,-52.78900146484375 C126.1719970703125,-50.494998931884766 144.7550048828125,-40.237998962402344 137.031005859375,-27.243999481201172 C137.031005859375,-27.243999481201172 99.64700317382812,53.34700012207031 99.64700317382812,53.34700012207031 C93.36199951171875,64.64600372314453 66.9990005493164,75.53600311279297 46.02899932861328,71.8949966430664z"/></g><g opacity="1" transform="matrix(1,0,0,1,235.9759979248047,326.35400390625)"><path fill="rgb(0,0,0)" fill-opacity="1" d=" M46.19300079345703,69.33999633789062 C46.19300079345703,69.33999633789062 -116.76899719238281,45.54600143432617 -116.76899719238281,45.54600143432617 C-133.61700439453125,42.62099838256836 -140.1750030517578,32.650001525878906 -131.8719940185547,23.45400047302246 C-131.8719940185547,23.45400047302246 -78.78800201416016,-49.93000030517578 -78.78800201416016,-49.93000030517578 C-70.33100128173828,-59.762001037597656 -56.935001373291016,-63.98500061035156 -36.97800064086914,-65.99600219726562 C6.658999919891357,-70.39299774169922 89.5009994506836,-51.0099983215332 106.65499877929688,-43.87099838256836 C118.70800018310547,-38.85499954223633 135.4320068359375,-30.988000869750977 130.8280029296875,-22.71299934387207 C130.8280029296875,-22.71299934387207 93.65299987792969,55.93199920654297 93.65299987792969,55.93199920654297 C87.66000366210938,66.70600128173828 66.18800354003906,72.81199645996094 46.19300079345703,69.33999633789062z"/><path stroke-linecap="round" stroke-linejoin="round" fill-opacity="0" stroke="rgb(33,33,33)" stroke-opacity="1" stroke-width="6" d=" M46.19300079345703,69.33999633789062 C46.19300079345703,69.33999633789062 -116.76899719238281,45.54600143432617 -116.76899719238281,45.54600143432617 C-133.61700439453125,42.62099838256836 -140.1750030517578,32.650001525878906 -131.8719940185547,23.45400047302246 C-131.8719940185547,23.45400047302246 -78.78800201416016,-49.93000030517578 -78.78800201416016,-49.93000030517578 C-70.33100128173828,-59.762001037597656 -56.935001373291016,-63.98500061035156 -36.97800064086914,-65.99600219726562 C6.658999919891357,-70.39299774169922 89.5009994506836,-51.0099983215332 106.65499877929688,-43.87099838256836 C118.70800018310547,-38.85499954223633 135.4320068359375,-30.988000869750977 130.8280029296875,-22.71299934387207 C130.8280029296875,-22.71299934387207 93.65299987792969,55.93199920654297 93.65299987792969,55.93199920654297 C87.66000366210938,66.70600128173828 66.18800354003906,72.81199645996094 46.19300079345703,69.33999633789062z"/></g><g opacity="1" transform="matrix(1,0,0,1,235.8470001220703,320.67999267578125)"><path fill="url(#__lottie_element_968)" fill-opacity="1" d=" M44.52000045776367,66.08200073242188 C44.52000045776367,66.08200073242188 -111.26300048828125,43.2859992980957 -111.26300048828125,43.2859992980957 C-127.34100341796875,40.49399948120117 -133.5989990234375,30.979999542236328 -125.67500305175781,22.20400047302246 C-125.67500305175781,22.20400047302246 -75.63500213623047,-47.334999084472656 -75.63500213623047,-47.334999084472656 C-67.56400299072266,-56.71799850463867 -54.779998779296875,-60.74700164794922 -35.73500061035156,-62.66600036621094 C5.908999919891357,-66.86199951171875 85.23100280761719,-48.277000427246094 101.60199737548828,-41.4640007019043 C113.10399627685547,-36.676998138427734 129.06399536132812,-29.16900062561035 124.6709976196289,-21.27199935913086 C124.6709976196289,-21.27199935913086 89.81199645996094,53.2869987487793 89.81199645996094,53.2869987487793 C84.09300231933594,63.56800079345703 63.60200119018555,69.3949966430664 44.52000045776367,66.08200073242188z"/><path stroke-linecap="round" stroke-linejoin="round" fill-opacity="0" stroke="rgb(0,0,0)" stroke-opacity="1" stroke-width="6" d=" M44.52000045776367,66.08200073242188 C44.52000045776367,66.08200073242188 -111.26300048828125,43.2859992980957 -111.26300048828125,43.2859992980957 C-127.34100341796875,40.49399948120117 -133.5989990234375,30.979999542236328 -125.67500305175781,22.20400047302246 C-125.67500305175781,22.20400047302246 -75.63500213623047,-47.334999084472656 -75.63500213623047,-47.334999084472656 C-67.56400299072266,-56.71799850463867 -54.779998779296875,-60.74700164794922 -35.73500061035156,-62.66600036621094 C5.908999919891357,-66.86199951171875 85.23100280761719,-48.277000427246094 101.60199737548828,-41.4640007019043 C113.10399627685547,-36.676998138427734 129.06399536132812,-29.16900062561035 124.6709976196289,-21.27199935913086 C124.6709976196289,-21.27199935913086 89.81199645996094,53.2869987487793 89.81199645996094,53.2869987487793 C84.09300231933594,63.56800079345703 63.60200119018555,69.3949966430664 44.52000045776367,66.08200073242188z"/></g><g opacity="1" transform="matrix(1,0,0,1,186.61099243164062,370.40399169921875)"><path stroke="url(#__lottie_element_969)" stroke-linecap="round" stroke-linejoin="round" fill-opacity="0" stroke-opacity="1" stroke-width="3" d=" M-81.44599914550781,-16.798999786376953 C-79.26699829101562,-10.814000129699707 -69.40899658203125,-5.728000164031982 -60.24599838256836,-4.76200008392334 C-51.08300018310547,-3.7960000038146973 92.71199798583984,18.708999633789062 92.71199798583984,18.708999633789062"/></g><g opacity="0.44" transform="matrix(1,0,0,1,233.83599853515625,320.67999267578125)"><path fill="rgb(15,2,14)" fill-opacity="1" d=" M-105.02899932861328,-1.871000051498413 C-82.5510025024414,-18.395999908447266 -49.8120002746582,-19.073999404907227 11.956999778747559,-10.980999946594238 C73.72599792480469,-2.888000011444092 94.42900085449219,10.862000465393066 96.73600006103516,21.465999603271484 C29.993000030517578,7.414000034332275 -59.222999572753906,-4.0370001792907715 -105.02899932861328,-1.871000051498413z"/></g></g><g style="display: block;" transform="matrix(1.079014778137207,-0.016200421378016472,0.016200421378016472,1.079014778137207,-10.519315719604492,-48.8988037109375)" opacity="1"><g opacity="1" transform="matrix(1,0,0,1,0,0)"><g opacity="1" transform="matrix(1,0,0,1,283.83599853515625,166.343994140625)"><path fill="url(#__lottie_element_973)" fill-opacity="1" d=" M-155.55165100097656,-32.39356994628906 C-155.51841735839844,-33.012451171875 -140.4949493408203,17.849184036254883 -132.81166076660156,53.75273895263672 C-129.57015991210938,75.58653259277344 -111.44632720947266,82.86591339111328 -104.15431213378906,84.30216979980469 C-73.78067779541016,88.05392456054688 100.93273162841797,119.39732360839844 102.45159149169922,100.36499786376953 C108.13746643066406,80.11019897460938 101.13724517822266,-5.7738118171691895 80.65805053710938,-17.79775047302246 C60.18977355957031,-29.814254760742188 -152.61968994140625,-85.35285186767578 -155.55165100097656,-32.39356994628906z"/><path stroke-linecap="round" stroke-linejoin="round" fill-opacity="0" stroke="rgb(0,0,0)" stroke-opacity="1" stroke-width="6" d=" M-155.55165100097656,-32.39356994628906 C-155.51841735839844,-33.012451171875 -140.4949493408203,17.849184036254883 -132.81166076660156,53.75273895263672 C-129.57015991210938,75.58653259277344 -111.44632720947266,82.86591339111328 -104.15431213378906,84.30216979980469 C-73.78067779541016,88.05392456054688 100.93273162841797,119.39732360839844 102.45159149169922,100.36499786376953 C108.13746643066406,80.11019897460938 101.13724517822266,-5.7738118171691895 80.65805053710938,-17.79775047302246 C60.18977355957031,-29.814254760742188 -152.61968994140625,-85.35285186767578 -155.55165100097656,-32.39356994628906z"/></g><g opacity="1" transform="matrix(1,0,0,1,301.52801513671875,144.48899841308594)"><path fill="url(#__lottie_element_974)" fill-opacity="1" d=" M80.8361587524414,65.33111572265625 C83.67549896240234,76.36486053466797 74.04688262939453,86.306640625 58.529090881347656,84.39922332763672 C58.529090881347656,84.39922332763672 -97.57122802734375,65.0709457397461 -97.57122802734375,65.0709457397461 C-112.80713653564453,63.19744873046875 -127.2952880859375,54.173648834228516 -129.7876739501953,42.532440185546875 C-133.36865234375,34.84784698486328 -146.00843811035156,-38.39795684814453 -146.00843811035156,-38.39795684814453 C-148.13955688476562,-49.569793701171875 -138.4559783935547,-57.087223052978516 -123.08232116699219,-55.291595458984375 C-123.08232116699219,-55.291595458984375 33.51239776611328,-38.2741584777832 33.51239776611328,-38.2741584777832 C49.17344284057617,-36.445098876953125 64.23299407958984,-25.85133934020996 67.12017059326172,-14.633862495422363 C67.12017059326172,-14.633862495422363 80.8361587524414,65.33111572265625 80.8361587524414,65.33111572265625z"/></g><g opacity="0.22" transform="matrix(1,0,0,1,0,0)"><g opacity="1" transform="matrix(1,0,0,1,261.77398681640625,125.09400177001953)"><path fill="rgb(255,255,255)" fill-opacity="1" d=" M-11.956340789794922,16.34880828857422 C-11.956340789794922,16.34880828857422 -26.897117614746094,14.782942771911621 -26.897117614746094,14.782942771911621 C-26.897117614746094,14.782942771911621 -26.54987907409668,16.653079986572266 -26.54987907409668,16.653079986572266 C-26.54987907409668,16.653079986572266 -20.177446365356445,17.321378707885742 -20.177446365356445,17.321378707885742 C-20.177446365356445,17.321378707885742 -17.793750762939453,30.187902450561523 -17.793750762939453,30.187902450561523 C-17.793750762939453,30.187902450561523 -15.255870819091797,30.45611000061035 -15.255870819091797,30.45611000061035 C-15.255870819091797,30.45611000061035 -17.637073516845703,17.58860206604004 -17.637073516845703,17.58860206604004 C-17.637073516845703,17.58860206604004 -11.611087799072266,18.22043800354004 -11.611087799072266,18.22043800354004 C-11.611087799072266,18.22043800354004 -11.956340789794922,16.34880828857422 -11.956340789794922,16.34880828857422z"/></g><g opacity="1" transform="matrix(1,0,0,1,274.5480041503906,130.6009979248047)"><path fill="rgb(255,255,255)" fill-opacity="1" d=" M-18.65823745727539,14.942917823791504 C-30.682880401611328,13.99802303314209 -24.18320083618164,29.370115280151367 -11.361212730407715,26.441574096679688 C-11.361212730407715,26.441574096679688 -12.550972938537598,24.593242645263672 -12.550972938537598,24.593242645263672 C-16.45018196105957,25.24376678466797 -20.549436569213867,24.136451721191406 -21.840211868286133,20.938507080078125 C-21.840211868286133,20.938507080078125 -11.349867820739746,22.0433292388916 -11.349867820739746,22.0433292388916 C-11.482014656066895,18.369935989379883 -15.15537166595459,15.217679023742676 -18.65823745727539,14.942917823791504z M-22.145479202270508,19.073863983154297 C-21.811447143554688,15.746336936950684 -15.406312942504883,16.13858985900879 -14.320956230163574,19.896984100341797 C-14.320956230163574,19.896984100341797 -22.145479202270508,19.073863983154297 -22.145479202270508,19.073863983154297z"/></g><g opacity="1" transform="matrix(1,0,0,1,286.2919921875,128.85400390625)"><path fill="rgb(255,255,255)" fill-opacity="1" d=" M-18.82309341430664,28.90770721435547 C-18.82309341430664,28.90770721435547 -16.280750274658203,29.17591667175293 -16.280750274658203,29.17591667175293 C-16.280750274658203,29.17591667175293 -19.134355545043945,13.63382339477539 -19.134355545043945,13.63382339477539 C-19.134355545043945,13.63382339477539 -21.67919158935547,13.367106437683105 -21.67919158935547,13.367106437683105 C-21.67919158935547,13.367106437683105 -18.82309341430664,28.90770721435547 -18.82309341430664,28.90770721435547z"/></g><g opacity="1" transform="matrix(1,0,0,1,313.67999267578125,139.48199462890625)"><path fill="rgb(255,255,255)" fill-opacity="1" d=" M-16.259952545166016,11.864696502685547 C-31.329309463500977,3.8811659812927246 -27.678407669067383,25.129833221435547 -14.710150718688965,20.384572982788086 C-13.170973777770996,24.15118980407715 -18.7561092376709,24.824520111083984 -22.803659439086914,22.843353271484375 C-22.803659439086914,22.843353271484375 -23.76266098022461,24.337818145751953 -23.76266098022461,24.337818145751953 C-18.6676025390625,26.91298484802246 -10.982720375061035,26.206684112548828 -12.006166458129883,21.506410598754883 C-12.006166458129883,21.506410598754883 -13.85469913482666,11.336381912231445 -13.85469913482666,11.336381912231445 C-13.85469913482666,11.336381912231445 -16.404489517211914,11.069665908813477 -16.404489517211914,11.069665908813477 C-16.404489517211914,11.069665908813477 -16.259952545166016,11.864696502685547 -16.259952545166016,11.864696502685547z M-19.110881805419922,19.19466209411621 C-24.259628295898438,18.788795471191406 -25.401058197021484,11.442682266235352 -20.554609298706055,12.038309097290039 C-15.040534973144531,12.466249465942383 -13.340045928955078,19.957916259765625 -19.110881805419922,19.19466209411621z"/></g><g opacity="1" transform="matrix(1,0,0,1,328.2430114746094,138.53700256347656)"><path fill="rgb(255,255,255)" fill-opacity="1" d=" M-21.828310012817383,14.002936363220215 C-21.828310012817383,14.002936363220215 -22.018997192382812,12.951681137084961 -22.018997192382812,12.951681137084961 C-22.018997192382812,12.951681137084961 -24.569772720336914,12.684456825256348 -24.569772720336914,12.684456825256348 C-24.569772720336914,12.684456825256348 -22.65374755859375,23.241321563720703 -22.65374755859375,23.241321563720703 C-22.65374755859375,23.241321563720703 -20.104450225830078,23.51002311706543 -20.104450225830078,23.51002311706543 C-20.539283752441406,20.47795867919922 -22.855594635009766,14.428832054138184 -16.834728240966797,14.899772644042969 C-16.834728240966797,14.899772644042969 -17.17453384399414,13.023680686950684 -17.17453384399414,13.023680686950684 C-19.14547348022461,12.817397117614746 -20.73211669921875,13.180367469787598 -21.828310012817383,14.002936363220215z"/></g><g opacity="1" transform="matrix(1,0,0,1,339.4209899902344,140.6719970703125)"><path fill="rgb(255,255,255)" fill-opacity="1" d=" M-14.983013153076172,16.932716369628906 C-15.65195083618164,12.315591812133789 -20.724323272705078,10.713156700134277 -26.159175872802734,11.86323356628418 C-26.159175872802734,11.86323356628418 -24.882505416870117,13.70116138458252 -24.882505416870117,13.70116138458252 C-21.303190231323242,13.078742027282715 -18.380966186523438,13.224040985107422 -17.63408660888672,16.149044036865234 C-29.817312240600586,13.852042198181152 -27.003585815429688,25.220787048339844 -16.33365821838379,22.018796920776367 C-16.090330123901367,22.754798889160156 -15.913881301879883,23.14965057373047 -15.8967924118042,23.18690299987793 C-15.8967924118042,23.18690299987793 -13.470508575439453,23.058813095092773 -13.470508575439453,23.058813095092773 C-13.480060577392578,23.037948608398438 -14.402656555175781,20.952945709228516 -14.983013153076172,16.932716369628906z M-23.095073699951172,19.30607795715332 C-23.13311767578125,17.407329559326172 -19.241268157958984,17.800987243652344 -17.31675910949707,18.02561378479004 C-15.755403518676758,21.302169799804688 -23.050703048706055,21.51814079284668 -23.095073699951172,19.30607795715332z"/></g><g opacity="1" transform="matrix(1,0,0,1,359.73199462890625,143.83999633789062)"><path fill="rgb(255,255,255)" fill-opacity="1" d=" M-13.817995071411133,12.054488182067871 C-16.49856185913086,10.883024215698242 -18.774099349975586,11.49035358428955 -20.14168357849121,13.219907760620117 C-22.235204696655273,10.140158653259277 -27.42566680908203,9.779457092285156 -29.11604118347168,12.27098274230957 C-29.11604118347168,12.27098274230957 -29.494951248168945,10.161009788513184 -29.494951248168945,10.161009788513184 C-29.494951248168945,10.161009788513184 -32.050697326660156,9.89378547668457 -32.050697326660156,9.89378547668457 C-32.050697326660156,9.89378547668457 -30.147552490234375,20.46305274963379 -30.147552490234375,20.46305274963379 C-30.147552490234375,20.46305274963379 -27.59429931640625,20.731754302978516 -27.59429931640625,20.731754302978516 C-28.97959327697754,13.029267311096191 -25.582653045654297,12.052698135375977 -23.722562789916992,12.67648983001709 C-21.307294845581055,13.48681926727295 -21.5427303314209,18.320377349853516 -20.827163696289062,21.48915672302246 C-20.827163696289062,21.48915672302246 -18.282045364379883,21.71068000793457 -18.282045364379883,21.71068000793457 C-19.1527156829834,18.282615661621094 -19.15663719177246,12.328757286071777 -14.76638412475586,13.56731128692627 C-12.795503616333008,14.32622241973877 -12.787193298339844,21.165395736694336 -12.246342658996582,22.344486236572266 C-12.246342658996582,22.344486236572266 -9.689611434936523,22.61369514465332 -9.689611434936523,22.61369514465332 C-10.556968688964844,20.240751266479492 -9.817009925842285,13.67871379852295 -13.817995071411133,12.054488182067871z"/></g><g opacity="1" transform="matrix(1,0,0,1,297.2139892578125,134.13900756835938)"><path fill="rgb(255,255,255)" fill-opacity="1" d=" M-19.414953231811523,13.702500343322754 C-31.458431243896484,12.75760555267334 -24.97066307067871,28.14556312561035 -12.12289810180664,25.213050842285156 C-12.12289810180664,25.213050842285156 -13.31165885925293,23.362751007080078 -13.31165885925293,23.362751007080078 C-17.21830177307129,24.01376724243164 -21.322525024414062,22.905960083007812 -22.61131477355957,19.704538345336914 C-22.61131477355957,19.704538345336914 -12.104598045349121,20.809852600097656 -12.104598045349121,20.809852600097656 C-12.231789588928223,17.132488250732422 -15.90664005279541,13.977261543273926 -19.414953231811523,13.702500343322754z M-22.91408920288086,17.837909698486328 C-22.574596405029297,14.506919860839844 -16.159564971923828,14.899158477783203 -15.077178955078125,18.661521911621094 C-15.077178955078125,18.661521911621094 -22.91408920288086,17.837909698486328 -22.91408920288086,17.837909698486328z"/></g><g opacity="1" transform="matrix(1,0,0,1,231.1280059814453,123.81800079345703)"><g opacity="1" transform="matrix(1,0,0,1,0,0)"><path fill="rgb(255,255,255)" fill-opacity="1" d=" M-4.708277702331543,31.32778549194336 C-4.708277702331543,31.32778549194336 -2.2467472553253174,14.910615921020508 -2.2467472553253174,14.910615921020508 C-2.1755380630493164,14.43349552154541 -2.9384334087371826,13.944435119628906 -3.5788066387176514,14.05674934387207 C-3.5788066387176514,14.05674934387207 -31.767080307006836,18.98516082763672 -31.767080307006836,18.98516082763672 C-32.44493103027344,19.10390853881836 -32.28263473510742,19.82247543334961 -31.52490234375,20.055818557739258 C-31.52490234375,20.055818557739258 -23.431901931762695,22.5489559173584 -23.431901931762695,22.5489559173584 C-23.431901931762695,22.5489559173584 -7.372509479522705,16.661170959472656 -7.372509479522705,16.661170959472656 C-7.372509479522705,16.661170959472656 -19.07037925720215,24.34264373779297 -19.07037925720215,24.34264373779297 C-19.07037925720215,24.34264373779297 -5.894128322601318,31.536592483520508 -5.894128322601318,31.536592483520508 C-5.384651184082031,31.814966201782227 -4.7647552490234375,31.70560646057129 -4.708277702331543,31.32778549194336z"/></g></g></g><g opacity="1" transform="matrix(1,0,0,1,294.40301513671875,146.82899475097656)"><path fill="url(#__lottie_element_975)" fill-opacity="1" d=" M66.01155090332031,-70.8873519897461 C43.93099594116211,-73.42938232421875 -115.9349365234375,-87.99053192138672 -115.9349365234375,-87.99053192138672 C-129.4767303466797,-89.08597564697266 -139.93359375,-84.72423553466797 -145.3448944091797,-76.44410705566406 C-149.62057495117188,-70.04788208007812 -168.942626953125,-42.51206970214844 -172.26527404785156,-33.14219284057617 C-174.4783935546875,-27.18878746032715 -172.8644561767578,-20.586700439453125 -169.94363403320312,-12.516623497009277 C-164.50071716308594,3.2993063926696777 -150.66148376464844,64.32759857177734 -145.84103393554688,79.8474349975586 C-141.1220703125,95.24090576171875 -126.87992858886719,104.36819458007812 -109.19586944580078,106.63729858398438 C-109.19586944580078,106.63729858398438 77.7145767211914,129.4956817626953 77.7145767211914,129.4956817626953 C88.8093490600586,130.9199981689453 98.76049041748047,124.82367706298828 104.38152313232422,116.54263305664062 C107.56383514404297,111.801025390625 118.65472412109375,81.26844024658203 120.75125122070312,71.67227935791016 C122.49591827392578,61.9751091003418 123.41378784179688,55.44691848754883 120.14674377441406,40.69863510131836 C117.38005065917969,26.089391708374023 104.78373718261719,-27.790605545043945 100.43498992919922,-43.18560791015625 C97.08695220947266,-58.32079315185547 84.68704986572266,-68.86141204833984 66.01155090332031,-70.8873519897461z M89.23416137695312,103.77214813232422 C92.18403625488281,115.01499938964844 82.8542709350586,123.18336486816406 66.86198425292969,121.03874969482422 C66.86198425292969,121.03874969482422 -87.95929718017578,102.94161224365234 -95.05715942382812,102.10125732421875 C-112.63777160644531,99.8753662109375 -132.32057189941406,90.18391418457031 -136.7562255859375,77.12049102783203 C-136.7562255859375,77.12049102783203 -156.44332885742188,-1.2515872716903687 -158.11236572265625,-6.2978997230529785 C-159.84938049316406,-18.36682891845703 -150.0365753173828,-26.28209114074707 -134.01071166992188,-24.219806671142578 C-134.01071166992188,-24.219806671142578 30.145456314086914,-5.179838180541992 30.145456314086914,-5.179838180541992 C46.653873443603516,-3.0085251331329346 62.569664001464844,7.3553080558776855 66.63138580322266,19.30184555053711 C66.63138580322266,19.30184555053711 89.23416137695312,103.77214813232422 89.23416137695312,103.77214813232422z"/><path stroke-linecap="round" stroke-linejoin="round" fill-opacity="0" stroke="rgb(0,110,135)" stroke-opacity="1" stroke-width="6" d=" M66.01155090332031,-70.8873519897461 C43.93099594116211,-73.42938232421875 -115.9349365234375,-87.99053192138672 -115.9349365234375,-87.99053192138672 C-129.4767303466797,-89.08597564697266 -139.93359375,-84.72423553466797 -145.3448944091797,-76.44410705566406 C-149.62057495117188,-70.04788208007812 -168.942626953125,-42.51206970214844 -172.26527404785156,-33.14219284057617 C-174.4783935546875,-27.18878746032715 -172.8644561767578,-20.586700439453125 -169.94363403320312,-12.516623497009277 C-164.50071716308594,3.2993063926696777 -150.66148376464844,64.32759857177734 -145.84103393554688,79.8474349975586 C-141.1220703125,95.24090576171875 -126.87992858886719,104.36819458007812 -109.19586944580078,106.63729858398438 C-109.19586944580078,106.63729858398438 77.7145767211914,129.4956817626953 77.7145767211914,129.4956817626953 C88.8093490600586,130.9199981689453 98.76049041748047,124.82367706298828 104.38152313232422,116.54263305664062 C107.56383514404297,111.801025390625 118.65472412109375,81.26844024658203 120.75125122070312,71.67227935791016 C122.49591827392578,61.9751091003418 123.41378784179688,55.44691848754883 120.14674377441406,40.69863510131836 C117.38005065917969,26.089391708374023 104.78373718261719,-27.790605545043945 100.43498992919922,-43.18560791015625 C97.08695220947266,-58.32079315185547 84.68704986572266,-68.86141204833984 66.01155090332031,-70.8873519897461z M89.23416137695312,103.77214813232422 C92.18403625488281,115.01499938964844 82.8542709350586,123.18336486816406 66.86198425292969,121.03874969482422 C66.86198425292969,121.03874969482422 -87.95929718017578,102.94161224365234 -95.05715942382812,102.10125732421875 C-112.63777160644531,99.8753662109375 -132.32057189941406,90.18391418457031 -136.7562255859375,77.12049102783203 C-136.7562255859375,77.12049102783203 -156.44332885742188,-1.2515872716903687 -158.11236572265625,-6.2978997230529785 C-159.84938049316406,-18.36682891845703 -150.0365753173828,-26.28209114074707 -134.01071166992188,-24.219806671142578 C-134.01071166992188,-24.219806671142578 30.145456314086914,-5.179838180541992 30.145456314086914,-5.179838180541992 C46.653873443603516,-3.0085251331329346 62.569664001464844,7.3553080558776855 66.63138580322266,19.30184555053711 C66.63138580322266,19.30184555053711 89.23416137695312,103.77214813232422 89.23416137695312,103.77214813232422z"/></g><g opacity="1" transform="matrix(1,0,0,1,308.8609924316406,129.97000122070312)"><path stroke="url(#__lottie_element_976)" stroke-linecap="round" stroke-linejoin="round" fill-opacity="0" stroke-opacity="1" stroke-width="3" d=" M102.38357543945312,101.96125793457031 C104.45093536376953,96.33150482177734 104.310791015625,83.66557312011719 102.51529693603516,75.53968048095703 C99.34480285644531,51.886573791503906 85.55156707763672,15.050106048583984 80.44966125488281,-11.135424613952637 C76.80706787109375,-26.633102416992188 63.485809326171875,-35.413578033447266 44.475852966308594,-38.0993537902832 C31.875133514404297,-40.067073822021484 -126.85646057128906,-54.95184326171875 -139.23504638671875,-56.09489059448242 C-151.61363220214844,-57.23793411254883 -161.2558135986328,-54.47740936279297 -167.98313903808594,-48.90998458862305"/></g><g opacity="1" transform="matrix(1,0,0,1,294.40301513671875,146.82899475097656)"><path stroke-linecap="round" stroke-linejoin="round" fill-opacity="0" stroke="rgb(37,76,80)" stroke-opacity="1" stroke-width="6" d=" M-104.70700073242188,107.18599700927734 C-76.26300048828125,110.66500091552734 77.71499633789062,129.49600219726562 77.71499633789062,129.49600219726562 C88.8093490600586,130.9199981689453 98.76049041748047,124.82367706298828 104.38152313232422,116.54263305664062 C107.56383514404297,111.801025390625 118.65472412109375,81.26844024658203 120.75125122070312,71.67227935791016 C122.49591827392578,61.9751091003418 123.41378784179688,55.44691848754883 120.14674377441406,40.69863510131836 C118.05000305175781,29.625999450683594 110.30599975585938,-4.00600004196167 104.78700256347656,-26.341999053955078"/></g><g opacity="1" transform="matrix(1,0,0,1,294.40301513671875,146.82899475097656)"><path stroke-linecap="round" stroke-linejoin="round" fill-opacity="0" stroke="rgb(0,170,183)" stroke-opacity="1" stroke-width="6" d=" M66.01155090332031,-70.8873519897461 C43.93099594116211,-73.42938232421875 -115.9349365234375,-87.99053192138672 -115.9349365234375,-87.99053192138672 C-129.4767303466797,-89.08597564697266 -139.93359375,-84.72423553466797 -145.3448944091797,-76.44410705566406 C-149.62057495117188,-70.04788208007812 -168.942626953125,-42.51206970214844 -172.26527404785156,-33.14219284057617 C-174.4783935546875,-27.18878746032715 -172.8644561767578,-20.586700439453125 -169.94363403320312,-12.516623497009277 C-165.93600463867188,-0.871999979019165 -157.3780059814453,35.279998779296875 -151.21800231933594,59.73400115966797"/></g><g opacity="1" transform="matrix(1,0,0,1,281.093994140625,255.93499755859375)"><path fill="url(#__lottie_element_977)" fill-opacity="1" d=" M-107.43610382080078,13.864285469055176 C-106.63622283935547,-0.24495910108089447 -102.202392578125,-23.42390251159668 -87.58062744140625,-26.26681137084961 C-76.46102142333984,-28.366540908813477 80.03009796142578,-6.38326358795166 86.8787612915039,-4.766188144683838 C96.26051330566406,-2.1273789405822754 92.14952087402344,7.59415340423584 88.96048736572266,10.30728816986084 C82.6163558959961,13.240884780883789 79.27539825439453,34.198970794677734 78.74132537841797,38.21473693847656"/><path stroke="url(#__lottie_element_978)" stroke-linecap="round" stroke-linejoin="round" fill-opacity="0" stroke-opacity="1" stroke-width="6" d=" M-107.43610382080078,13.864285469055176 C-106.63622283935547,-0.24495910108089447 -102.202392578125,-23.42390251159668 -87.58062744140625,-26.26681137084961 C-76.46102142333984,-28.366540908813477 80.03009796142578,-6.38326358795166 86.8787612915039,-4.766188144683838 C96.26051330566406,-2.1273789405822754 92.14952087402344,7.59415340423584 88.96048736572266,10.30728816986084 C82.6163558959961,13.240884780883789 79.27539825439453,34.198970794677734 78.74132537841797,38.21473693847656"/></g></g><g opacity="0" transform="matrix(1,0,0,1,0,0)"><g opacity="1" transform="matrix(1,0,0,1,294.40301513671875,146.82899475097656)"><path fill="url(#__lottie_element_979)" fill-opacity="1" d=" M86.75700378417969,32.5989990234375 C71.56500244140625,30.725000381469727 -88.46900177001953,10.96500015258789 -88.46900177001953,10.96500015258789 C-103.41999816894531,9.121000289916992 -117.90799713134766,7.336999893188477 -126.36599731445312,6.296999931335449 C-132.85299682617188,5.499000072479248 -182.28900146484375,-0.5709999799728394 -187.41099548339844,-1.2039999961853027 C-199.8280029296875,-2.73799991607666 -208.56300354003906,5.547999858856201 -209.4409942626953,14.869999885559082 C-211.37399291992188,35.39799880981445 -216.2169952392578,60.51900100708008 -217.0260009765625,75.67500305175781 C-217.69900512695312,88.29299926757812 -210.76100158691406,93.677001953125 -198.63600158691406,96.02200317382812 C-198.63600158691406,96.02200317382812 31.025999069213867,123.59600067138672 31.025999069213867,123.59600067138672 C43.47600173950195,125.41000366210938 52.33599853515625,126.3219985961914 62.19200134277344,127.75199890136719 C72.0479965209961,129.1820068359375 75.56500244140625,130.0760040283203 80.74400329589844,130.4759979248047 C89.40799713134766,131.14500427246094 96.8280029296875,126.4010009765625 97.51000213623047,116.56900024414062 C97.75499725341797,113.04199981689453 104.66200256347656,70.98899841308594 106.61599731445312,56.63600158691406 C108.50499725341797,42.757999420166016 101.9489974975586,34.472999572753906 86.75700378417969,32.5989990234375z"/><path stroke-linecap="round" stroke-linejoin="round" fill-opacity="0" stroke="rgb(0,110,135)" stroke-opacity="1" stroke-width="6" d=" M86.75700378417969,32.5989990234375 C71.56500244140625,30.725000381469727 -88.46900177001953,10.96500015258789 -88.46900177001953,10.96500015258789 C-103.41999816894531,9.121000289916992 -117.90799713134766,7.336999893188477 -126.36599731445312,6.296999931335449 C-132.85299682617188,5.499000072479248 -182.28900146484375,-0.5709999799728394 -187.41099548339844,-1.2039999961853027 C-199.8280029296875,-2.73799991607666 -208.56300354003906,5.547999858856201 -209.4409942626953,14.869999885559082 C-211.37399291992188,35.39799880981445 -216.2169952392578,60.51900100708008 -217.0260009765625,75.67500305175781 C-217.69900512695312,88.29299926757812 -210.76100158691406,93.677001953125 -198.63600158691406,96.02200317382812 C-198.63600158691406,96.02200317382812 31.025999069213867,123.59600067138672 31.025999069213867,123.59600067138672 C43.47600173950195,125.41000366210938 52.33599853515625,126.3219985961914 62.19200134277344,127.75199890136719 C72.0479965209961,129.1820068359375 75.56500244140625,130.0760040283203 80.74400329589844,130.4759979248047 C89.40799713134766,131.14500427246094 96.8280029296875,126.4010009765625 97.51000213623047,116.56900024414062 C97.75499725341797,113.04199981689453 104.66200256347656,70.98899841308594 106.61599731445312,56.63600158691406 C108.50499725341797,42.757999420166016 101.9489974975586,34.472999572753906 86.75700378417969,32.5989990234375z"/></g><g opacity="1" transform="matrix(1,0,0,1,308.8609924316406,129.97000122070312)"><path stroke="url(#__lottie_element_980)" stroke-linecap="round" stroke-linejoin="round" fill-opacity="0" stroke-opacity="1" stroke-width="3" d=" M89.15699768066406,83.27200317382812 C90.21700286865234,83.83799743652344 85.2760009765625,76.05400085449219 79.75499725341797,75.34500122070312 C70.3010025024414,74.13200378417969 60.867000579833984,72.85099792480469 48.404998779296875,71.43800354003906 C33.768001556396484,69.77899932861328 23.35099983215332,68.61699676513672 -1.2619999647140503,65.7509994506836 C-14.468000411987305,64.21299743652344 -184.38299560546875,42.685001373291016 -199.0229949951172,39.71099853515625 C-213.66299438476562,36.73699951171875 -222.677001953125,37.90999984741211 -223.9510040283203,41.645999908447266"/></g><g opacity="1" transform="matrix(1,0,0,1,0,0)"><path fill="url(#__lottie_element_981)" fill-opacity="1" d=" M204.55499267578125,157.6490020751953 C179.26199340820312,154.5290069580078 170.24600219726562,153.4219970703125 170.24600219726562,153.4219970703125 C170.24600219726562,153.4219970703125 123.86499786376953,147.72999572753906 113.12699890136719,146.406005859375 C108.48100280761719,145.83299255371094 112.14099884033203,146.2899932861328 130.6280059814453,148.58099365234375 C147.7740020751953,150.70599365234375 280.03399658203125,167.00999450683594 307.8179931640625,170.43699645996094 C335.60198974609375,173.86399841308594 340.8349914550781,174.5050048828125 353.70001220703125,176.0850067138672 C367.04400634765625,177.7239990234375 382.51300048828125,179.6320037841797 391.6579895019531,180.75399780273438 C400.2179870605469,181.8040008544922 387.37298583984375,180.218994140625 376.9419860839844,178.9320068359375 C351.4360046386719,175.78599548339844 229.84800720214844,160.7689971923828 204.55499267578125,157.6490020751953z"/></g><g opacity="1" transform="matrix(1,0,0,1,232.07400512695312,240.41600036621094)"><path fill="url(#__lottie_element_982)" mask="url(#__lottie_element_984)" fill-opacity="1" d="M0 0 M12.600000381469727,-77.81999969482422 C15.243000030517578,-77.51499938964844 19.76799964904785,-77.00299835205078 19.902999877929688,-76.99299621582031 C19.902999877929688,-76.99299621582031 21.526453018188477,-76.84300231933594 21.526453018188477,-76.84300231933594 C21.526453018188477,-76.84300231933594 40.2869987487793,-74.72200012207031 40.2869987487793,-74.72200012207031 C43.680999755859375,-74.33799743652344 43.303001403808594,-74.38999938964844 39.737998962402344,-74.7979965209961 C39.737998962402344,-74.7979965209961 19.097000122070312,-77.16200256347656 19.097000122070312,-77.16200256347656 C19.097000122070312,-77.16200256347656 13.442999839782715,-77.83699798583984 13.442999839782715,-77.83699798583984 C12.463000297546387,-77.95500183105469 6.951000213623047,-78.58399963378906 4.443999767303467,-78.86499786376953 C4.443999767303467,-78.86499786376953 -8.12600040435791,-80.27300262451172 -8.12600040435791,-80.27300262451172 C-8.12600040435791,-80.27300262451172 -28.47599983215332,-82.59300231933594 -28.47599983215332,-82.59300231933594 C-32.17399978637695,-83.01499938964844 -34.81700134277344,-83.30999755859375 -32.858001708984375,-83.08200073242188 C-29.45599937438965,-82.68599700927734 -25.3799991607666,-82.20800018310547 -17.386999130249023,-81.2969970703125 C-17.386999130249023,-81.2969970703125 2.9030001163482666,-78.98400115966797 2.9030001163482666,-78.98400115966797 C3.9820001125335693,-78.86100006103516 4.131999969482422,-78.84100341796875 3.0739998817443848,-78.96099853515625 C3.0739998817443848,-78.96099853515625 -18.62700080871582,-81.42400360107422 -18.62700080871582,-81.42400360107422 C-25.104999542236328,-82.16000366210938 -28.083999633789062,-82.48799896240234 -30.900999069213867,-82.8010025024414 C-33.0099983215332,-83.03600311279297 -29.320999145507812,-82.60800170898438 -25.277000427246094,-82.14900207519531 C-25.277000427246094,-82.14900207519531 -4.961999893188477,-79.84300231933594 -4.961999893188477,-79.84300231933594 C-4.961999893188477,-79.84300231933594 12.600000381469727,-77.81999969482422 12.600000381469727,-77.81999969482422z"/></g><g opacity="1" transform="matrix(1,0,0,1,294.40301513671875,146.82899475097656)"><path stroke-linecap="round" stroke-linejoin="round" fill-opacity="0" stroke="rgb(37,76,80)" stroke-opacity="1" stroke-width="6" d=" M-188.8209991455078,97.19999694824219 C-144.95199584960938,102.46700286865234 31.025999069213867,123.59600067138672 31.025999069213867,123.59600067138672 C43.47600173950195,125.41000366210938 52.33599853515625,126.3219985961914 62.19200134277344,127.75199890136719 C72.0479965209961,129.1820068359375 75.56500244140625,130.0760040283203 80.74400329589844,130.4759979248047 C89.40799713134766,131.14500427246094 96.8280029296875,126.4010009765625 97.51000213623047,116.56900024414062 C97.75499725341797,113.04199981689453 104.66200256347656,70.98899841308594 106.61599731445312,56.63600158691406 C107.2239990234375,52.16600036621094 106.95700073242188,48.277000427246094 105.80699920654297,44.994998931884766"/></g><g opacity="1" transform="matrix(1,0,0,1,294.40301513671875,146.82899475097656)"><path stroke-linecap="round" stroke-linejoin="round" fill-opacity="0" stroke="rgb(0,170,183)" stroke-opacity="1" stroke-width="6" d=" M86.75700378417969,32.5989990234375 C71.56500244140625,30.725000381469727 -88.46900177001953,10.96500015258789 -88.46900177001953,10.96500015258789 C-103.41999816894531,9.121000289916992 -117.90799713134766,7.336999893188477 -126.36599731445312,6.296999931335449 C-132.85299682617188,5.499000072479248 -182.28900146484375,-0.5709999799728394 -187.41099548339844,-1.2039999961853027 C-199.8280029296875,-2.73799991607666 -208.56300354003906,5.547999858856201 -209.4409942626953,14.869999885559082 C-210.81199645996094,29.434999465942383 -213.6490020751953,46.31100082397461 -215.47000122070312,60.29999923706055"/></g></g></g><g style="display: block;" transform="matrix(0.8628886342048645,-0.01295548491179943,0.01295548491179943,0.8628886342048645,43.31389236450195,-31.973770141601562)" opacity="1"><g opacity="1" transform="matrix(1,0,0,1,239.77499389648438,266.6990051269531)"><path fill="url(#__lottie_element_988)" fill-opacity="1" d=" M0.6532188653945923,87.87989044189453 C107.3862075805664,98.63312530517578 110.23442077636719,-54.84491729736328 1.1859999895095825,-67.0479965209961 C-90.05863189697266,-77.25849151611328 -115.6732177734375,78.27958679199219 -1.3393851518630981,87.5344467163086 C1.9625552892684937,86.1231460571289 1.87417471408844,76.70519256591797 -1.0366535186767578,75.06280517578125 C-84.00224304199219,61.73667907714844 -68.86836242675781,-39.25144958496094 -4.021999835968018,-35.066001892089844 C70.50170135498047,-29.135475158691406 89.20242309570312,82.9571533203125 0.6457114219665527,75.41029357910156 C-3.4682974815368652,77.04119873046875 -1.9338560104370117,86.12434387207031 0.6532188653945923,87.87989044189453z"/><path stroke="url(#__lottie_element_989)" stroke-linecap="round" stroke-linejoin="round" fill-opacity="0" stroke-opacity="1" stroke-width="3" d=" M0.6532188653945923,87.87989044189453 C107.3862075805664,98.63312530517578 110.23442077636719,-54.84491729736328 1.1859999895095825,-67.0479965209961 C-90.05863189697266,-77.25849151611328 -115.6732177734375,78.27958679199219 -1.3393851518630981,87.5344467163086 C1.9625552892684937,86.1231460571289 1.87417471408844,76.70519256591797 -1.0366535186767578,75.06280517578125 C-84.00224304199219,61.73667907714844 -68.86836242675781,-39.25144958496094 -4.021999835968018,-35.066001892089844 C70.50170135498047,-29.135475158691406 89.20242309570312,82.9571533203125 0.6457114219665527,75.41029357910156 C-3.4682974815368652,77.04119873046875 -1.9338560104370117,86.12434387207031 0.6532188653945923,87.87989044189453z"/></g><g opacity="1" transform="matrix(1,0,0,1,221.64100646972656,223.12100219726562)"><path fill="rgb(255,255,255)" fill-opacity="1" d=" M-53.875999450683594,34.667999267578125 C-44.36899948120117,-9.843000411987305 5.988999843597412,-39.35900115966797 53.209999084472656,-9.439000129699707 C8.241000175476074,-26.73200035095215 -39.47600173950195,-7.211999893188477 -53.875999450683594,34.667999267578125z"/></g><g opacity="1" transform="matrix(1,0,0,1,287.6210021972656,282.92999267578125)"><path fill="rgb(230,230,230)" fill-opacity="1" d=" M7.468999862670898,44.42300033569336 C18.809999465942383,22.267000198364258 22.594999313354492,-19.8700008392334 -16.86199951171875,-45.30500030517578 C14.72700023651123,-39.70899963378906 34.40800094604492,10.487000465393066 7.468999862670898,44.42300033569336z"/></g><g opacity="1" transform="matrix(1,0,0,1,215.0970001220703,260.7590026855469)"><path fill="url(#__lottie_element_990)" fill-opacity="1" d=" M63.89400100708008,-13.005999565124512 C39.724998474121094,-32.73500061035156 4.676000118255615,-38.72600173950195 -18.454999923706055,-17.68400001525879 C-35.595001220703125,-2.7880001068115234 -39.96099853515625,28.826000213623047 -28.549999237060547,50.4640007019043 C-73.06300354003906,-4.576000213623047 3.9260001182556152,-83.36199951171875 63.89400100708008,-13.005999565124512z"/></g><g opacity="1" transform="matrix(1,0,0,1,0,0)"><path fill="url(#__lottie_element_991)" fill-opacity="1" d=" M230.0330047607422,342.2349853515625 C223.66700744628906,340.6619873046875 221.19500732421875,350.02398681640625 227.41099548339844,351.59698486328125 C233.6269989013672,353.1700134277344 242.98899841308594,354.2179870605469 252.72500610351562,354.0679931640625 C262.46099853515625,353.9179992675781 265.6059875488281,343.1340026855469 253.92300415039062,343.6579895019531 C242.24000549316406,344.1820068359375 236.3990020751953,343.8080139160156 230.0330047607422,342.2349853515625z"/></g></g><g style="display: block;" transform="matrix(0.8628886342048645,-0.01295548491179943,0.01295548491179943,0.8628886342048645,44.18415069580078,-27.471181869506836)" opacity="1"><g opacity="1" transform="matrix(1,0,0,1,0,0)"><g opacity="0.8" transform="matrix(1,0,0,1,0,0)"><g opacity="1" transform="matrix(1,0,0,1,233.7790069580078,176.17599487304688)"><path fill="rgb(248,74,170)" fill-opacity="1" d=" M-11.357000350952148,-17.674999237060547 C-11.357000350952148,-17.674999237060547 39.54999923706055,-14.187999725341797 39.54999923706055,-14.187999725341797 C39.54999923706055,-14.187999725341797 19.808000564575195,21.077999114990234 19.808000564575195,21.077999114990234 C19.808000564575195,21.077999114990234 -2.484999895095825,19.40999984741211 -2.484999895095825,19.40999984741211 C-2.484999895095825,19.40999984741211 -11.357000350952148,-17.674999237060547 -11.357000350952148,-17.674999237060547z"/></g><g opacity="1" transform="matrix(1,0,0,1,233.77999877929688,153.11099243164062)"><path fill="rgb(255,255,255)" fill-opacity="1" d=" M39.54999923706055,8.876999855041504 C39.54999923706055,8.876999855041504 -11.357000350952148,5.389999866485596 -11.357000350952148,5.389999866485596 C-11.357000350952148,5.389999866485596 -2.303999900817871,-9.52400016784668 -2.303999900817871,-9.52400016784668 C-2.303999900817871,-9.52400016784668 26.993000030517578,-7.611999988555908 26.993000030517578,-7.611999988555908 C26.993000030517578,-7.611999988555908 39.54999923706055,8.876999855041504 39.54999923706055,8.876999855041504z"/></g><g opacity="1" transform="matrix(1,0,0,1,264.6659851074219,180.1510009765625)"><path fill="rgb(205,45,142)" fill-opacity="1" d=" M0.375,23.433000564575195 C0.375,23.433000564575195 26.698999404907227,-4.8429999351501465 26.698999404907227,-4.8429999351501465 C26.698999404907227,-4.8429999351501465 8.663999557495117,-18.163000106811523 8.663999557495117,-18.163000106811523 C8.663999557495117,-18.163000106811523 -11.07800006866455,17.10300064086914 -11.07800006866455,17.10300064086914 C-11.07800006866455,17.10300064086914 0.375,23.433000564575195 0.375,23.433000564575195z"/></g><g opacity="1" transform="matrix(1,0,0,1,267.510009765625,158.0399932861328)"><path fill="rgb(164,43,136)" fill-opacity="1" d=" M5.818999767303467,3.947999954223633 C5.818999767303467,3.947999954223633 -6.73799991607666,-12.541000366210938 -6.73799991607666,-12.541000366210938 C-6.73799991607666,-12.541000366210938 10.366999626159668,0.6700000166893005 10.366999626159668,0.6700000166893005 C10.366999626159668,0.6700000166893005 23.854000091552734,17.26799964904785 23.854000091552734,17.26799964904785 C23.854000091552734,17.26799964904785 5.818999767303467,3.947999954223633 5.818999767303467,3.947999954223633z"/></g><g opacity="1" transform="matrix(1,0,0,1,202.5590057373047,180.27099609375)"><path fill="rgb(168,2,68)" fill-opacity="1" d=" M28.736000061035156,15.3149995803833 C28.736000061035156,15.3149995803833 19.86400032043457,-21.770000457763672 19.86400032043457,-21.770000457763672 C19.86400032043457,-21.770000457763672 -7.71999979019165,-14.067000389099121 -7.71999979019165,-14.067000389099121 C-7.71999979019165,-14.067000389099121 16.131000518798828,19.785999298095703 16.131000518798828,19.785999298095703 C16.131000518798828,19.785999298095703 28.736000061035156,15.3149995803833 28.736000061035156,15.3149995803833z"/></g><g opacity="1" transform="matrix(1,0,0,1,199.71400451660156,158.0399932861328)"><path fill="rgb(164,43,136)" fill-opacity="1" d=" M22.708999633789062,0.460999995470047 C22.708999633789062,0.460999995470047 31.761999130249023,-14.45300006866455 31.761999130249023,-14.45300006866455 C31.761999130249023,-14.45300006866455 7.570000171661377,-6.591000080108643 7.570000171661377,-6.591000080108643 C7.570000171661377,-6.591000080108643 -4.875,8.163000106811523 -4.875,8.163000106811523 C-4.875,8.163000106811523 22.708999633789062,0.460999995470047 22.708999633789062,0.460999995470047z"/></g><g opacity="1" transform="matrix(1,0,0,1,234.10499572753906,200.39199829101562)"><path fill="rgb(234,110,201)" fill-opacity="1" d=" M19.482999801635742,-3.138000011444092 C19.482999801635742,-3.138000011444092 -2.809999942779541,-4.806000232696533 -2.809999942779541,-4.806000232696533 C-2.809999942779541,-4.806000232696533 -15.414999961853027,-0.33500000834465027 -15.414999961853027,-0.33500000834465027 C-15.414999961853027,-0.33500000834465027 -8.482000350952148,7.683000087738037 -8.482000350952148,7.683000087738037 C-8.482000350952148,7.683000087738037 14.071000099182129,9.741999626159668 14.071000099182129,9.741999626159668 C14.071000099182129,9.741999626159668 30.93600082397461,3.191999912261963 30.93600082397461,3.191999912261963 C30.93600082397461,3.191999912261963 19.482999801635742,-3.138000011444092 19.482999801635742,-3.138000011444092z"/></g></g><g opacity="0.85" transform="matrix(1,0,0,1,0,0)"><g opacity="1" transform="matrix(1,0,0,1,233.56399536132812,158.41400146484375)"><path fill="rgb(234,110,201)" fill-opacity="1" d=" M27.066999435424805,-13.003000259399414 C27.066999435424805,-13.003000259399414 -2.111999988555908,-14.776000022888184 -2.111999988555908,-14.776000022888184 C-2.111999988555908,-14.776000022888184 -26.266000747680664,-7.045000076293945 -26.266000747680664,-7.045000076293945 C-26.266000747680664,-7.045000076293945 -13.428000450134277,10.074000358581543 -13.428000450134277,10.074000358581543 C-13.428000450134277,10.074000358581543 17.621999740600586,12.501999855041504 17.621999740600586,12.501999855041504 C17.621999740600586,12.501999855041504 44.382999420166016,0.5320000052452087 44.382999420166016,0.5320000052452087 C44.382999420166016,0.5320000052452087 27.066999435424805,-13.003000259399414 27.066999435424805,-13.003000259399414z"/></g><g opacity="1" transform="matrix(1,0,0,1,202.38299560546875,190.3419952392578)"><path fill="rgb(205,45,142)" fill-opacity="1" d=" M16.30500030517578,9.652000427246094 C16.30500030517578,9.652000427246094 -7.696000099182129,-24.131000518798828 -7.696000099182129,-24.131000518798828 C-7.696000099182129,-24.131000518798828 6.701000213623047,-2.13700008392334 6.701000213623047,-2.13700008392334 C6.701000213623047,-2.13700008392334 23.229000091552734,17.649999618530273 23.229000091552734,17.649999618530273 C23.229000091552734,17.649999618530273 16.30500030517578,9.652000427246094 16.30500030517578,9.652000427246094z"/></g><g opacity="1" transform="matrix(1,0,0,1,233.77999877929688,201.10499572753906)"><path fill="rgb(168,2,68)" fill-opacity="1" d=" M14.52299976348877,9.093999862670898 C14.52299976348877,9.093999862670898 27.226999282836914,-8.222999572753906 27.226999282836914,-8.222999572753906 C27.226999282836914,-8.222999572753906 -24.69499969482422,-12.899999618530273 -24.69499969482422,-12.899999618530273 C-24.69499969482422,-12.899999618530273 -8.166999816894531,6.88700008392334 -8.166999816894531,6.88700008392334 C-8.166999816894531,6.88700008392334 14.52299976348877,9.093999862670898 14.52299976348877,9.093999862670898z"/></g><g opacity="1" transform="matrix(1,0,0,1,265.17999267578125,190.3419952392578)"><path fill="rgb(101,0,26)" fill-opacity="1" d=" M26.201000213623047,-14.977999687194824 C26.201000213623047,-14.977999687194824 -4.173999786376953,2.5399999618530273 -4.173999786376953,2.5399999618530273 C-4.173999786376953,2.5399999618530273 -16.87700080871582,19.85700035095215 -16.87700080871582,19.85700035095215 C-16.87700080871582,19.85700035095215 -0.004999999888241291,13.281000137329102 -0.004999999888241291,13.281000137329102 C-0.004999999888241291,13.281000137329102 26.201000213623047,-14.977999687194824 26.201000213623047,-14.977999687194824z"/></g><g opacity="1" transform="matrix(1,0,0,1,199.99000549316406,174.56100463867188)"><path fill="rgb(255,255,255)" fill-opacity="1" d=" M-5.353000164031982,-8.350000381469727 C-5.353000164031982,-8.350000381469727 7.309000015258789,-23.191999435424805 7.309000015258789,-23.191999435424805 C7.309000015258789,-23.191999435424805 20.145999908447266,-6.072999954223633 20.145999908447266,-6.072999954223633 C20.145999908447266,-6.072999954223633 9.095000267028809,13.645000457763672 9.095000267028809,13.645000457763672 C9.095000267028809,13.645000457763672 -5.353000164031982,-8.350000381469727 -5.353000164031982,-8.350000381469727z"/></g><g opacity="1" transform="matrix(1,0,0,1,233.77999877929688,182.19200134277344)"><path fill="rgb(248,74,170)" fill-opacity="1" d=" M17.4060001373291,-11.276000022888184 C17.4060001373291,-11.276000022888184 27.226999282836914,10.6899995803833 27.226999282836914,10.6899995803833 C27.226999282836914,10.6899995803833 -24.69499969482422,6.013000011444092 -24.69499969482422,6.013000011444092 C-24.69499969482422,6.013000011444092 -13.644000053405762,-13.704000473022461 -13.644000053405762,-13.704000473022461 C-13.644000053405762,-13.704000473022461 17.4060001373291,-11.276000022888184 17.4060001373291,-11.276000022888184z"/></g><g opacity="1" transform="matrix(1,0,0,1,267.510009765625,174.82200622558594)"><path fill="rgb(205,45,142)" fill-opacity="1" d=" M10.437000274658203,-15.87600040435791 C10.437000274658203,-15.87600040435791 -16.325000762939453,-3.9059998989105225 -16.325000762939453,-3.9059998989105225 C-16.325000762939453,-3.9059998989105225 -6.504000186920166,18.059999465942383 -6.504000186920166,18.059999465942383 C-6.504000186920166,18.059999465942383 23.871000289916992,0.5429999828338623 23.871000289916992,0.5429999828338623 C23.871000289916992,0.5429999828338623 10.437000274658203,-15.87600040435791 10.437000274658203,-15.87600040435791z"/></g></g><g opacity="1" transform="matrix(1,0,0,1,233.44500732421875,177.281005859375)"><path stroke-linecap="round" stroke-linejoin="round" fill-opacity="0" stroke="rgb(147,0,95)" stroke-opacity="1" stroke-width="3" d=" M-26.115999221801758,-25.933000564575195 C-26.115999221801758,-25.933000564575195 -39.020999908447266,-11.034000396728516 -39.020999908447266,-11.034000396728516 C-39.020999908447266,-11.034000396728516 -14.847999572753906,22.844999313354492 -14.847999572753906,22.844999313354492 C-14.847999572753906,22.844999313354492 -7.638999938964844,31.06800079345703 -7.638999938964844,31.06800079345703 C-7.638999938964844,31.06800079345703 14.835000038146973,33.117000579833984 14.835000038146973,33.117000579833984 C14.835000038146973,33.117000579833984 31.593000411987305,26.263999938964844 31.593000411987305,26.263999938964844 C31.593000411987305,26.263999938964844 57.94300079345703,-1.9539999961853027 57.94300079345703,-1.9539999961853027 C57.94300079345703,-1.9539999961853027 44.43299865722656,-18.542999267578125 44.43299865722656,-18.542999267578125 C44.43299865722656,-18.542999267578125 27.375,-31.97100067138672 27.375,-31.97100067138672 C27.375,-31.97100067138672 -1.9190000295639038,-33.60200119018555 -1.9190000295639038,-33.60200119018555 C-1.9190000295639038,-33.60200119018555 -26.115999221801758,-25.933000564575195 -26.115999221801758,-25.933000564575195z"/></g></g><g opacity="1" transform="matrix(1,0,0,1,233.83599853515625,205.3280029296875)"><path fill="rgb(106,106,106)" fill-opacity="1" d=" M-17.458999633789062,-4.994999885559082 C-17.458999633789062,-4.994999885559082 -7.942999839782715,2.9179999828338623 -7.942999839782715,2.9179999828338623 C-7.942999839782715,2.9179999828338623 -4.171000003814697,-0.1379999965429306 2.8519999980926514,0.5019999742507935 C10.062999725341797,1.1710000038146973 13.965999603271484,5.125 13.965999603271484,5.125 C13.965999603271484,5.125 31.07699966430664,-1.5110000371932983 31.07699966430664,-1.5110000371932983 C31.07699966430664,-1.5110000371932983 14.467000007629395,6.236000061035156 14.467000007629395,6.236000061035156 C14.467000007629395,6.236000061035156 -8.222999572753906,4.0289998054504395 -8.222999572753906,4.0289998054504395 C-8.222999572753906,4.0289998054504395 -17.458999633789062,-4.994999885559082 -17.458999633789062,-4.994999885559082z"/><path stroke="url(#__lottie_element_995)" stroke-linecap="round" stroke-linejoin="round" fill-opacity="0" stroke-opacity="1" stroke-width="3" d=" M-17.458999633789062,-4.994999885559082 C-17.458999633789062,-4.994999885559082 -7.942999839782715,2.9179999828338623 -7.942999839782715,2.9179999828338623 C-7.942999839782715,2.9179999828338623 -4.171000003814697,-0.1379999965429306 2.8519999980926514,0.5019999742507935 C10.062999725341797,1.1710000038146973 13.965999603271484,5.125 13.965999603271484,5.125 C13.965999603271484,5.125 31.07699966430664,-1.5110000371932983 31.07699966430664,-1.5110000371932983 C31.07699966430664,-1.5110000371932983 14.467000007629395,6.236000061035156 14.467000007629395,6.236000061035156 C14.467000007629395,6.236000061035156 -8.222999572753906,4.0289998054504395 -8.222999572753906,4.0289998054504395 C-8.222999572753906,4.0289998054504395 -17.458999633789062,-4.994999885559082 -17.458999633789062,-4.994999885559082z"/></g></g><g style="display: block;" transform="matrix(1.079014778137207,-0.016200421378016472,0.016200421378016472,1.079014778137207,-9.440284729003906,-48.91500473022461)" opacity="1"><g opacity="1" transform="matrix(1,0,0,1,225.56700134277344,336.99200439453125)"><path fill="url(#__lottie_element_999)" fill-opacity="1" d=" M102.63700103759766,27.882999420166016 C105.81999969482422,22.270000457763672 111.05000305175781,11.246999740600586 111.57099914550781,7.340000152587891 C111.31500244140625,3.2039999961853027 81.17900085449219,-15.189000129699707 12.967000007629395,-22.775999069213867 C-86.25,-33.8120002746582 -92.6240005493164,-25.729999542236328 -105.99600219726562,-6.860000133514404 C-105.99600219726562,-6.860000133514404 -105.072998046875,-4.326000213623047 -105.072998046875,-4.326000213623047"/><path stroke-linecap="round" stroke-linejoin="round" fill-opacity="0" stroke="rgb(0,0,0)" stroke-opacity="1" stroke-width="3" d=" M102.63700103759766,27.882999420166016 C105.81999969482422,22.270000457763672 111.05000305175781,11.246999740600586 111.57099914550781,7.340000152587891 C111.31500244140625,3.2039999961853027 81.17900085449219,-15.189000129699707 12.967000007629395,-22.775999069213867 C-86.25,-33.8120002746582 -92.6240005493164,-25.729999542236328 -105.99600219726562,-6.860000133514404 C-105.99600219726562,-6.860000133514404 -105.072998046875,-4.326000213623047 -105.072998046875,-4.326000213623047"/></g><g opacity="1" transform="matrix(1,0,0,1,161.31500244140625,323.8970031738281)"><path fill="rgb(100,86,93)" fill-opacity="1" d=" M-27.437000274658203,-6.525000095367432 C-15.63700008392334,-13.017999649047852 1.7089999914169312,-15.854999542236328 52.606998443603516,-10.638999938964844 C-7.329999923706055,-12.651000022888184 -26.388999938964844,-7.954999923706055 -46.805999755859375,20.180999755859375 C-35.832000732421875,6.041999816894531 -33.930999755859375,-2.9519999027252197 -27.437000274658203,-6.525000095367432z"/></g></g><g style="display: block;" transform="matrix(1.079014778137207,-0.016200421378016472,0.016200421378016472,1.079014778137207,-9.440284729003906,-48.91501998901367)" opacity="1"><g opacity="1" transform="matrix(1,0,0,1,0,0)"><g opacity="1" transform="matrix(1,0,0,1,195.76199340820312,417.9519958496094)"><path fill="rgb(191,211,214)" fill-opacity="1" d=" M13.60099983215332,3.2730000019073486 C11.82699966430664,26.58799934387207 -23.114999771118164,19.950000762939453 -21.41200065612793,-3.7060000896453857 C-19.761999130249023,-27.04400062561035 15.47700023651123,-20.600000381469727 13.60099983215332,3.2730000019073486z"/><path stroke-linecap="round" stroke-linejoin="round" fill-opacity="0" stroke="rgb(72,95,96)" stroke-opacity="1" stroke-width="6" d=" M13.60099983215332,3.2730000019073486 C11.82699966430664,26.58799934387207 -23.114999771118164,19.950000762939453 -21.41200065612793,-3.7060000896453857 C-19.761999130249023,-27.04400062561035 15.47700023651123,-20.600000381469727 13.60099983215332,3.2730000019073486z"/></g><g opacity="1" transform="matrix(1,0,0,1,194.36099243164062,407.5929870605469)"><path stroke-linecap="round" stroke-linejoin="round" fill-opacity="0" stroke="rgb(255,255,255)" stroke-opacity="1" stroke-width="3" d=" M-16.797000885009766,10.008000373840332 C-17.222999572753906,-3.565999984741211 -4.7820000648498535,-6.806000232696533 4.414999961853027,-1.0829999446868896"/></g></g><g opacity="1" transform="matrix(1,0,0,1,0,0)"><g opacity="1" transform="matrix(1,0,0,1,191.93099975585938,421.7820129394531)"><path fill="rgb(164,190,193)" fill-opacity="1" d=" M7.892000198364258,1.062999963760376 C6.926000118255615,16.30699920654297 -16.354999542236328,11.687000274658203 -14.951000213623047,-3.490000009536743 C-13.585000038146973,-18.489999771118164 8.859000205993652,-14.197999954223633 7.892000198364258,1.062999963760376"/><path stroke-linecap="round" stroke-linejoin="round" fill-opacity="0" stroke="rgb(132,160,165)" stroke-opacity="1" stroke-width="6" d=" M7.892000198364258,1.062999963760376 C6.926000118255615,16.30699920654297 -16.354999542236328,11.687000274658203 -14.951000213623047,-3.490000009536743 C-13.585000038146973,-18.489999771118164 8.859000205993652,-14.197999954223633 7.892000198364258,1.062999963760376"/></g><g opacity="1" transform="matrix(1,0,0,1,190.50799560546875,414.6390075683594)"><path stroke-linecap="round" stroke-linejoin="round" fill-opacity="0" stroke="rgb(255,255,255)" stroke-opacity="1" stroke-width="3" d=" M-11.173999786376953,6.933000087738037 C-12.23900032043457,-1.5789999961853027 -2.867000102996826,-5.254000186920166 3.694000005722046,0.6209999918937683"/></g></g><g opacity="0.5" transform="matrix(1,0,0,1,199.07899475097656,426.6470031738281)"><path fill="rgb(72,95,96)" fill-opacity="1" d=" M16.077999114990234,5.770999908447266 C18.31100082397461,0.2849999964237213 19.492000579833984,-12.82699966430664 6.247000217437744,-20.445999145507812 C8.619999885559082,-11.616999626159668 5.390999794006348,-4.4629998207092285 -1.6950000524520874,-6.98199987411499 C-5.5929999351501465,1.055999994277954 -19.253000259399414,1.840000033378601 -23.135000228881836,-0.875 C-22.402000427246094,12.715999603271484 -6.068999767303467,17.415000915527344 -0.6029999852180481,16.582000732421875 C7.789999961853027,26.944000244140625 22.55299949645996,17.55500030517578 16.077999114990234,5.770999908447266z"/></g><g opacity="1" transform="matrix(1,0,0,1,0,0)"><g opacity="1" transform="matrix(1,0,0,1,186.72000122070312,427.93701171875)"><path fill="rgb(191,211,214)" fill-opacity="1" d=" M6.736999988555908,-1.4620000123977661 C6.736999988555908,11.859999656677246 -13.461000442504883,11.838000297546387 -13.461000442504883,-1.4620000123977661 C-13.461000442504883,-14.76099967956543 6.736999988555908,-14.79699993133545 6.736999988555908,-1.4620000123977661z"/><path stroke-linecap="round" stroke-linejoin="round" fill-opacity="0" stroke="rgb(118,142,145)" stroke-opacity="1" stroke-width="3" d=" M6.736999988555908,-1.4620000123977661 C6.736999988555908,11.859999656677246 -13.461000442504883,11.838000297546387 -13.461000442504883,-1.4620000123977661 C-13.461000442504883,-14.76099967956543 6.736999988555908,-14.79699993133545 6.736999988555908,-1.4620000123977661z"/></g><g opacity="1" transform="matrix(1,0,0,1,184.1490020751953,426.1510009765625)"><path fill="rgb(253,255,255)" fill-opacity="1" d=" M0.5419999957084656,-1.4630000591278076 C0.5419999957084656,3.686000108718872 -7.264999866485596,3.677000045776367 -7.264999866485596,-1.4630000591278076 C-7.264999866485596,-6.603000164031982 0.5419999957084656,-6.617000102996826 0.5419999957084656,-1.4630000591278076z"/></g></g></g><g style="display: none;" transform="matrix(1.223893165588379,0.12131945043802261,-0.12131945043802261,1.223893165588379,287.17608642578125,185.14527893066406)" opacity="1"><g opacity="1" transform="matrix(1,0,0,1,0,0)"><path fill="rgb(83,216,202)" fill-opacity="1" d=" M-82.75,131.875 C-63,132.5 -9,134.25 19.75,136.25 C-5,112.75 -76,121.75 -82.75,131.875z"/></g><g opacity="1" transform="matrix(1,0,0,1,0,0)"><path stroke-linecap="round" stroke-linejoin="round" fill-opacity="0" stroke="rgb(37,76,80)" stroke-opacity="1" stroke-width="5.5" d=" M-117,131 C-117,131 27.75,136 27.75,136"/></g></g><g style="display: block;" transform="matrix(1.131946086883545,0.09506849944591522,-0.09506849944591522,1.131946086883545,269.8558044433594,223.18167114257812)" opacity="1"><g opacity="1" transform="matrix(1,0,0,1,0,0)"><path fill="rgb(83,216,202)" fill-opacity="1" d=" M-61.43033981323242,-116.54816436767578 C-41.68033981323242,-115.92316436767578 19.26952362060547,-116.7218246459961 48.01952362060547,-114.7218246459961 C47.26478958129883,-157.9385223388672 -44.13310623168945,-160.73110961914062 -61.43033981323242,-116.54816436767578z"/></g><g opacity="1" transform="matrix(1,0,0,1,0,0)"><path stroke-linecap="round" stroke-linejoin="round" fill-opacity="0" stroke="rgb(37,76,80)" stroke-opacity="1" stroke-width="5.5" d=" M-90.55670928955078,-116.8958969116211 C-90.55670928955078,-116.8958969116211 53.451786041259766,-114.36791229248047 53.451786041259766,-114.36791229248047"/></g></g><g style="display: none;" transform="matrix(1,0,0,1,217,438)" opacity="1"><g opacity="1" transform="matrix(1,0,0,1,0,0)"><path stroke-linecap="round" stroke-linejoin="round" fill-opacity="0" stroke="rgb(205,255,249)" stroke-opacity="1" stroke-width="0" d="M0 0"/></g></g><g style="display: none;" transform="matrix(0.7021020650863647,0.6047521233558655,-0.6047521233558655,0.7021020650863647,256.85040283203125,181.1712646484375)" opacity="1"><g opacity="1" transform="matrix(0.6700000166893005,0,0,0,0,0)"><path fill="url(#__lottie_element_1562)" fill-opacity="1" d=" M0,-256 C141.28640747070312,-256 256,-141.28640747070312 256,0 C256,141.28640747070312 141.28640747070312,256 0,256 C-141.28640747070312,256 -256,141.28640747070312 -256,0 C-256,-141.28640747070312 -141.28640747070312,-256 0,-256z"/></g></g><g style="display: none;" transform="matrix(0.25567254424095154,0.203511044383049,-0.203511044383049,0.25567254424095154,204.64527893066406,150.59393310546875)" opacity="1"><g opacity="1" transform="matrix(0,0,0,0,0,0)"><path fill="url(#__lottie_element_1485)" fill-opacity="1" d=" M0,-256 C141.28640747070312,-256 256,-141.28640747070312 256,0 C256,141.28640747070312 141.28640747070312,256 0,256 C-141.28640747070312,256 -256,141.28640747070312 -256,0 C-256,-141.28640747070312 -141.28640747070312,-256 0,-256z"/></g><g opacity="1" transform="matrix(0.6700000166893005,0,0,0,0,0)"><path fill="url(#__lottie_element_1486)" fill-opacity="1" d=" M0,-256 C141.28640747070312,-256 256,-141.28640747070312 256,0 C256,141.28640747070312 141.28640747070312,256 0,256 C-141.28640747070312,256 -256,141.28640747070312 -256,0 C-256,-141.28640747070312 -141.28640747070312,-256 0,-256z"/></g></g><g style="display: none;" transform="matrix(0.22190405428409576,0.25103601813316345,-0.25103601813316345,0.22190405428409576,218.548828125,182.6051025390625)" opacity="0.8"><g opacity="1" transform="matrix(0.6700000166893005,0,0,0,0,0)"><path fill="url(#__lottie_element_1625)" fill-opacity="1" d=" M0,-256 C141.28640747070312,-256 256,-141.28640747070312 256,0 C256,141.28640747070312 141.28640747070312,256 0,256 C-141.28640747070312,256 -256,141.28640747070312 -256,0 C-256,-141.28640747070312 -141.28640747070312,-256 0,-256z"/></g></g><g style="display: none;" transform="matrix(0.36553215980529785,0.3608371317386627,-0.3608371317386627,0.36553215980529785,234.88638305664062,195.63137817382812)" opacity="1"><g opacity="1" transform="matrix(0.6700000166893005,0,0,0,0,0)"><path fill="url(#__lottie_element_1661)" fill-opacity="1" d=" M0,-256 C141.28640747070312,-256 256,-141.28640747070312 256,0 C256,141.28640747070312 141.28640747070312,256 0,256 C-141.28640747070312,256 -256,141.28640747070312 -256,0 C-256,-141.28640747070312 -141.28640747070312,-256 0,-256z"/></g></g><g style="display: none;" transform="matrix(0.6348031759262085,0.5015019774436951,-0.5015019774436951,0.6348031759262085,249.60890197753906,174.2034149169922)" opacity="0.7000000000000001"><g opacity="1" transform="matrix(0,0,0,0,0,0)"><path fill="url(#__lottie_element_1676)" fill-opacity="1" d=" M0,-256 C141.28640747070312,-256 256,-141.28640747070312 256,0 C256,141.28640747070312 141.28640747070312,256 0,256 C-141.28640747070312,256 -256,141.28640747070312 -256,0 C-256,-141.28640747070312 -141.28640747070312,-256 0,-256z"/></g><g opacity="1" transform="matrix(0.6700000166893005,0,0,0,0,0)"><path fill="url(#__lottie_element_1677)" fill-opacity="1" d=" M0,-256 C141.28640747070312,-256 256,-141.28640747070312 256,0 C256,141.28640747070312 141.28640747070312,256 0,256 C-141.28640747070312,256 -256,141.28640747070312 -256,0 C-256,-141.28640747070312 -141.28640747070312,-256 0,-256z"/></g></g><g style="display: none;" transform="matrix(0.7634809613227844,0.7041389346122742,-0.7041389346122742,0.7634809613227844,239.39129638671875,185.0673065185547)" opacity="1"><g opacity="1" transform="matrix(-0.015640925616025925,0,0,0.015640925616025925,0,0)"><path fill="url(#__lottie_element_1698)" fill-opacity="1" d=" M0,-256 C141.28640747070312,-256 256,-141.28640747070312 256,0 C256,141.28640747070312 141.28640747070312,256 0,256 C-141.28640747070312,256 -256,141.28640747070312 -256,0 C-256,-141.28640747070312 -141.28640747070312,-256 0,-256z"/></g><g opacity="1" transform="matrix(0.6699281930923462,0,0,0.00006537649460369721,0,0)"><path fill="url(#__lottie_element_1699)" fill-opacity="1" d=" M0,-256 C141.28640747070312,-256 256,-141.28640747070312 256,0 C256,141.28640747070312 141.28640747070312,256 0,256 C-141.28640747070312,256 -256,141.28640747070312 -256,0 C-256,-141.28640747070312 -141.28640747070312,-256 0,-256z"/></g></g></g></svg>