<svg xmlns="http://www.w3.org/2000/svg" xmlns:xlink="http://www.w3.org/1999/xlink" viewBox="0 0 512 512" width="512" height="512" style="width: 100%; height: 100%; transform: translate3d(0px, 0px, 0px); content-visibility: visible;" preserveAspectRatio="xMidYMid meet"><defs><clipPath id="__lottie_element_2"><rect width="512" height="512" x="0" y="0"/></clipPath><linearGradient id="__lottie_element_8" spreadMethod="pad" gradientUnits="userSpaceOnUse" x1="18.96493911743164" y1="-5.005699634552002" x2="54.09004592895508" y2="-97.65731811523438"><stop offset="33%" stop-color="rgb(210,29,29)"/><stop offset="62%" stop-color="rgb(233,34,34)"/><stop offset="87%" stop-color="rgb(255,39,39)"/></linearGradient><linearGradient id="__lottie_element_9" spreadMethod="pad" gradientUnits="userSpaceOnUse" x1="-67.72184753417969" y1="-11.372446060180664" x2="76.70347595214844" y2="-8.409905433654785"><stop offset="33%" stop-color="rgb(198,18,18)" stop-opacity="1"/><stop offset="69%" stop-color="rgb(196,26,29)" stop-opacity="0.5"/><stop offset="100%" stop-color="rgb(194,34,40)" stop-opacity="0"/></linearGradient><linearGradient id="__lottie_element_10" spreadMethod="pad" gradientUnits="userSpaceOnUse" x1="245.4320068359375" y1="31.420000076293945" x2="87.16699981689453" y2="-69.76899719238281"><stop offset="33%" stop-color="rgb(198,18,18)" stop-opacity="1"/><stop offset="69%" stop-color="rgb(196,26,29)" stop-opacity="0.5"/><stop offset="100%" stop-color="rgb(194,34,40)" stop-opacity="0"/></linearGradient><linearGradient id="__lottie_element_11" spreadMethod="pad" gradientUnits="userSpaceOnUse" x1="57.30099868774414" y1="-19.582000732421875" x2="141.96200561523438" y2="-43.939998626708984"><stop offset="44%" stop-color="rgb(149,13,20)"/><stop offset="67%" stop-color="rgb(178,23,40)"/><stop offset="81%" stop-color="rgb(208,34,59)"/></linearGradient><radialGradient id="__lottie_element_16" spreadMethod="pad" gradientUnits="userSpaceOnUse" cx="5.980000019073486" cy="-6.591000080108643" r="21.48990579225403" fx="5.980000019073486" fy="-6.591000080108643"><stop offset="7%" stop-color="rgb(242,234,221)"/><stop offset="27%" stop-color="rgb(243,217,162)"/><stop offset="47%" stop-color="rgb(244,200,103)"/><stop offset="73%" stop-color="rgb(226,148,80)"/><stop offset="100%" stop-color="rgb(208,97,57)"/></radialGradient><linearGradient id="__lottie_element_17" spreadMethod="pad" gradientUnits="userSpaceOnUse" x1="0.6959999799728394" y1="14.119000434875488" x2="3.4189999103546143" y2="-22.121999740600586"><stop offset="0%" stop-color="rgb(255,248,199)" stop-opacity="0"/><stop offset="58%" stop-color="rgb(255,241,144)" stop-opacity="0.5"/><stop offset="100%" stop-color="rgb(255,235,89)" stop-opacity="1"/></linearGradient><linearGradient id="__lottie_element_18" spreadMethod="pad" gradientUnits="userSpaceOnUse" x1="-3.8329999446868896" y1="22.98699951171875" x2="9.937999725341797" y2="-23.989999771118164"><stop offset="0%" stop-color="rgb(184,55,34)"/><stop offset="58%" stop-color="rgb(194,79,46)"/><stop offset="100%" stop-color="rgb(203,103,58)"/></linearGradient><linearGradient id="__lottie_element_22" spreadMethod="pad" gradientUnits="userSpaceOnUse" x1="0" y1="0" x2="100" y2="0"><stop offset="6%" stop-color="rgb(206,122,13)"/><stop offset="52%" stop-color="rgb(212,121,18)"/><stop offset="100%" stop-color="rgb(219,120,23)"/></linearGradient><linearGradient id="__lottie_element_23" spreadMethod="pad" gradientUnits="userSpaceOnUse" x1="16.479999542236328" y1="-82.41400146484375" x2="-6.473999977111816" y2="83.47799682617188"><stop offset="13%" stop-color="rgb(242,202,143)"/><stop offset="39%" stop-color="rgb(243,215,167)"/><stop offset="84%" stop-color="rgb(244,228,190)"/></linearGradient><linearGradient id="__lottie_element_24" spreadMethod="pad" gradientUnits="userSpaceOnUse" x1="87.83000183105469" y1="-40.25600051879883" x2="118.04399871826172" y2="29.711999893188477"><stop offset="11%" stop-color="rgb(198,164,109)" stop-opacity="1"/><stop offset="56%" stop-color="rgb(198,164,109)" stop-opacity="0.5"/><stop offset="100%" stop-color="rgb(198,164,109)" stop-opacity="0"/></linearGradient><linearGradient id="__lottie_element_25" spreadMethod="pad" gradientUnits="userSpaceOnUse" x1="-22.06999969482422" y1="46.571998596191406" x2="-0.1289999932050705" y2="-82.75700378417969"><stop offset="33%" stop-color="rgb(210,29,29)"/><stop offset="62%" stop-color="rgb(233,34,34)"/><stop offset="87%" stop-color="rgb(255,39,39)"/></linearGradient><linearGradient id="__lottie_element_26" spreadMethod="pad" gradientUnits="userSpaceOnUse" x1="-5.765999794006348" y1="1.0499999523162842" x2="-12.095000267028809" y2="-62.965999603271484"><stop offset="33%" stop-color="rgb(198,18,18)" stop-opacity="1"/><stop offset="69%" stop-color="rgb(196,26,29)" stop-opacity="0.5"/><stop offset="100%" stop-color="rgb(194,34,40)" stop-opacity="0"/></linearGradient><linearGradient id="__lottie_element_27" spreadMethod="pad" gradientUnits="userSpaceOnUse" x1="83.572998046875" y1="-63.50899887084961" x2="113.73500061035156" y2="-38.16899871826172"><stop offset="33%" stop-color="rgb(198,18,18)" stop-opacity="1"/><stop offset="69%" stop-color="rgb(196,26,29)" stop-opacity="0.5"/><stop offset="100%" stop-color="rgb(194,34,40)" stop-opacity="0"/></linearGradient><linearGradient id="__lottie_element_28" spreadMethod="pad" gradientUnits="userSpaceOnUse" x1="-76.0459976196289" y1="47.893001556396484" x2="33.28300094604492" y2="-76.58999633789062"><stop offset="0%" stop-color="rgb(255,255,255)" stop-opacity="0"/><stop offset="23%" stop-color="rgb(255,255,255)" stop-opacity="0.5"/><stop offset="81%" stop-color="rgb(255,255,255)" stop-opacity="1"/></linearGradient><linearGradient id="__lottie_element_29" spreadMethod="pad" gradientUnits="userSpaceOnUse" x1="97.28600311279297" y1="132.88400268554688" x2="49.38199996948242" y2="-124.98200225830078"><stop offset="15%" stop-color="rgb(180,142,106)"/><stop offset="44%" stop-color="rgb(182,152,110)"/><stop offset="67%" stop-color="rgb(183,162,114)"/></linearGradient><linearGradient id="__lottie_element_30" spreadMethod="pad" gradientUnits="userSpaceOnUse" x1="-16.058000564575195" y1="103.69100189208984" x2="48.882999420166016" y2="-100.46399688720703"><stop offset="44%" stop-color="rgb(149,13,20)"/><stop offset="67%" stop-color="rgb(178,23,40)"/><stop offset="81%" stop-color="rgb(208,34,59)"/></linearGradient><linearGradient id="__lottie_element_34" spreadMethod="pad" gradientUnits="userSpaceOnUse" x1="54.12799835205078" y1="81.33200073242188" x2="151.4320068359375" y2="-80.84200286865234"><stop offset="33%" stop-color="rgb(210,29,29)"/><stop offset="62%" stop-color="rgb(233,34,34)"/><stop offset="87%" stop-color="rgb(255,39,39)"/></linearGradient><linearGradient id="__lottie_element_35" spreadMethod="pad" gradientUnits="userSpaceOnUse" x1="-8.73900032043457" y1="-0.4749999940395355" x2="-43.36199951171875" y2="-44.33000183105469"><stop offset="33%" stop-color="rgb(198,18,18)" stop-opacity="1"/><stop offset="69%" stop-color="rgb(196,26,29)" stop-opacity="0.5"/><stop offset="100%" stop-color="rgb(194,34,40)" stop-opacity="0"/></linearGradient><linearGradient id="__lottie_element_36" spreadMethod="pad" gradientUnits="userSpaceOnUse" x1="97.5739974975586" y1="66.427001953125" x2="97.5739974975586" y2="-66.60700225830078"><stop offset="0%" stop-color="rgb(61,71,76)" stop-opacity="1"/><stop offset="42%" stop-color="rgb(51,61,67)" stop-opacity="0.5"/><stop offset="100%" stop-color="rgb(41,52,58)" stop-opacity="0"/></linearGradient><linearGradient id="__lottie_element_37" spreadMethod="pad" gradientUnits="userSpaceOnUse" x1="97.03700256347656" y1="64.1449966430664" x2="97.03700256347656" y2="-64.68000030517578"><stop offset="0%" stop-color="rgb(255,255,255)" stop-opacity="0"/><stop offset="26%" stop-color="rgb(255,255,255)" stop-opacity="0.5"/><stop offset="100%" stop-color="rgb(255,255,255)" stop-opacity="1"/></linearGradient><linearGradient id="__lottie_element_38" spreadMethod="pad" gradientUnits="userSpaceOnUse" x1="97.33000183105469" y1="100.85600280761719" x2="97.33000183105469" y2="-100.98300170898438"><stop offset="44%" stop-color="rgb(149,13,20)"/><stop offset="67%" stop-color="rgb(178,23,40)"/><stop offset="81%" stop-color="rgb(208,34,59)"/></linearGradient><linearGradient id="__lottie_element_39" spreadMethod="pad" gradientUnits="userSpaceOnUse" x1="76" y1="6" x2="133" y2="17"><stop offset="30%" stop-color="rgb(112,5,2)"/><stop offset="62%" stop-color="rgb(120,6,4)"/><stop offset="81%" stop-color="rgb(128,8,5)"/></linearGradient><linearGradient id="__lottie_element_43" spreadMethod="pad" gradientUnits="userSpaceOnUse" x1="142.44900512695312" y1="7.011000156402588" x2="20.88800048828125" y2="-17.77400016784668"><stop offset="13%" stop-color="rgb(242,202,143)"/><stop offset="39%" stop-color="rgb(243,215,167)"/><stop offset="84%" stop-color="rgb(244,228,190)"/></linearGradient><linearGradient id="__lottie_element_44" spreadMethod="pad" gradientUnits="userSpaceOnUse" x1="94.46151733398438" y1="62.55439376831055" x2="88.66910552978516" y2="-95.36412811279297"><stop offset="11%" stop-color="rgb(198,164,109)" stop-opacity="1"/><stop offset="56%" stop-color="rgb(198,164,109)" stop-opacity="0.5"/><stop offset="100%" stop-color="rgb(198,164,109)" stop-opacity="0"/></linearGradient><linearGradient id="__lottie_element_45" spreadMethod="pad" gradientUnits="userSpaceOnUse" x1="41.9370002746582" y1="53.33599853515625" x2="-16.81999969482422" y2="-36.676998138427734"><stop offset="19%" stop-color="rgb(255,255,255)" stop-opacity="0.30000001192092896"/><stop offset="77%" stop-color="rgb(255,255,255)" stop-opacity="0.15000000596046448"/><stop offset="100%" stop-color="rgb(255,255,255)" stop-opacity="0"/></linearGradient><linearGradient id="__lottie_element_46" spreadMethod="pad" gradientUnits="userSpaceOnUse" x1="-95.1510009765625" y1="37.301998138427734" x2="81.62799835205078" y2="-5.97599983215332"><stop offset="0%" stop-color="rgb(255,255,255)" stop-opacity="0"/><stop offset="23%" stop-color="rgb(255,255,255)" stop-opacity="0.5"/><stop offset="81%" stop-color="rgb(255,255,255)" stop-opacity="1"/></linearGradient><linearGradient id="__lottie_element_47" spreadMethod="pad" gradientUnits="userSpaceOnUse" x1="96.84600067138672" y1="65.96099853515625" x2="96.84600067138672" y2="-67.91200256347656"><stop offset="13%" stop-color="rgb(183,162,114)"/><stop offset="47%" stop-color="rgb(183,162,114)"/><stop offset="67%" stop-color="rgb(183,162,114)"/></linearGradient><linearGradient id="__lottie_element_48" spreadMethod="pad" gradientUnits="userSpaceOnUse" x1="166.44900512695312" y1="91.01100158691406" x2="21.889999389648438" y2="-53.54899978637695"><stop offset="15%" stop-color="rgb(180,142,106)"/><stop offset="44%" stop-color="rgb(182,152,110)"/><stop offset="67%" stop-color="rgb(183,162,114)"/></linearGradient><radialGradient id="__lottie_element_53" spreadMethod="pad" gradientUnits="userSpaceOnUse" cx="6.349999904632568" cy="-9.027000427246094" r="31.504878753326505" fx="6.349999904632568" fy="-9.027000427246094"><stop offset="7%" stop-color="rgb(242,234,221)"/><stop offset="27%" stop-color="rgb(243,217,162)"/><stop offset="47%" stop-color="rgb(244,200,103)"/><stop offset="73%" stop-color="rgb(226,148,80)"/><stop offset="100%" stop-color="rgb(208,97,57)"/></radialGradient><linearGradient id="__lottie_element_54" spreadMethod="pad" gradientUnits="userSpaceOnUse" x1="0.18299999833106995" y1="22.16900062561035" x2="4.85699987411499" y2="-27.764999389648438"><stop offset="0%" stop-color="rgb(255,248,199)" stop-opacity="0"/><stop offset="58%" stop-color="rgb(255,241,144)" stop-opacity="0.5"/><stop offset="100%" stop-color="rgb(255,235,89)" stop-opacity="1"/></linearGradient><linearGradient id="__lottie_element_55" spreadMethod="pad" gradientUnits="userSpaceOnUse" x1="-0.9950000047683716" y1="30.753000259399414" x2="9.40999984741211" y2="-25.15399932861328"><stop offset="0%" stop-color="rgb(184,55,34)"/><stop offset="58%" stop-color="rgb(194,79,46)"/><stop offset="100%" stop-color="rgb(203,103,58)"/></linearGradient><radialGradient id="__lottie_element_60" spreadMethod="pad" gradientUnits="userSpaceOnUse" cx="-6.284999847412109" cy="-10.730999946594238" r="30.427321011473254" fx="-6.284999847412109" fy="-10.730999946594238"><stop offset="7%" stop-color="rgb(242,234,221)"/><stop offset="27%" stop-color="rgb(243,217,162)"/><stop offset="47%" stop-color="rgb(244,200,103)"/><stop offset="73%" stop-color="rgb(226,148,80)"/><stop offset="100%" stop-color="rgb(208,97,57)"/></radialGradient><linearGradient id="__lottie_element_61" spreadMethod="pad" gradientUnits="userSpaceOnUse" x1="10.215999603271484" y1="14.223999977111816" x2="-2.197999954223633" y2="-27"><stop offset="0%" stop-color="rgb(255,248,199)" stop-opacity="0"/><stop offset="58%" stop-color="rgb(255,241,144)" stop-opacity="0.5"/><stop offset="100%" stop-color="rgb(255,235,89)" stop-opacity="1"/></linearGradient><linearGradient id="__lottie_element_62" spreadMethod="pad" gradientUnits="userSpaceOnUse" x1="13.927000045776367" y1="28.474000930786133" x2="-9.489999771118164" y2="-22.023000717163086"><stop offset="0%" stop-color="rgb(184,55,34)"/><stop offset="58%" stop-color="rgb(194,79,46)"/><stop offset="100%" stop-color="rgb(203,103,58)"/></linearGradient><linearGradient id="__lottie_element_66" spreadMethod="pad" gradientUnits="userSpaceOnUse" x1="-23.856000900268555" y1="-43.7140007019043" x2="1.9490000009536743" y2="72.97899627685547"><stop offset="33%" stop-color="rgb(210,29,29)"/><stop offset="62%" stop-color="rgb(233,34,34)"/><stop offset="87%" stop-color="rgb(255,39,39)"/></linearGradient><linearGradient id="__lottie_element_67" spreadMethod="pad" gradientUnits="userSpaceOnUse" x1="2.367000102996826" y1="69.56600189208984" x2="-12.222000122070312" y2="-64.5459976196289"><stop offset="0%" stop-color="rgb(206,243,248)" stop-opacity="0"/><stop offset="58%" stop-color="rgb(203,242,248)" stop-opacity="0.5"/><stop offset="100%" stop-color="rgb(200,241,247)" stop-opacity="1"/></linearGradient><linearGradient id="__lottie_element_68" spreadMethod="pad" gradientUnits="userSpaceOnUse" x1="96.99600219726562" y1="61.07899856567383" x2="96.99600219726562" y2="-62.084999084472656"><stop offset="0%" stop-color="rgb(255,255,255)" stop-opacity="0"/><stop offset="58%" stop-color="rgb(255,255,255)" stop-opacity="0.5"/><stop offset="100%" stop-color="rgb(255,255,255)" stop-opacity="1"/></linearGradient><linearGradient id="__lottie_element_69" spreadMethod="pad" gradientUnits="userSpaceOnUse" x1="-29.531999588012695" y1="78.26200103759766" x2="-64.64299774169922" y2="-92.3010025024414"><stop offset="44%" stop-color="rgb(149,13,20)"/><stop offset="67%" stop-color="rgb(160,23,40)"/><stop offset="81%" stop-color="rgb(171,34,59)"/></linearGradient><linearGradient id="__lottie_element_70" spreadMethod="pad" gradientUnits="userSpaceOnUse" x1="99.55599975585938" y1="69.42400360107422" x2="93.79199981689453" y2="-41.7400016784668"><stop offset="13%" stop-color="rgb(242,202,143)"/><stop offset="39%" stop-color="rgb(243,215,167)"/><stop offset="84%" stop-color="rgb(244,228,190)"/></linearGradient><linearGradient id="__lottie_element_71" spreadMethod="pad" gradientUnits="userSpaceOnUse" x1="46.49100112915039" y1="-11.432000160217285" x2="81.55899810791016" y2="-55.266998291015625"><stop offset="11%" stop-color="rgb(198,164,109)" stop-opacity="1"/><stop offset="56%" stop-color="rgb(198,164,109)" stop-opacity="0.5"/><stop offset="100%" stop-color="rgb(198,164,109)" stop-opacity="0"/></linearGradient><linearGradient id="__lottie_element_72" spreadMethod="pad" gradientUnits="userSpaceOnUse" x1="96.84600067138672" y1="65.96099853515625" x2="96.84600067138672" y2="-67.91200256347656"><stop offset="13%" stop-color="rgb(183,162,114)"/><stop offset="47%" stop-color="rgb(183,162,114)"/><stop offset="67%" stop-color="rgb(183,162,114)"/></linearGradient><linearGradient id="__lottie_element_73" spreadMethod="pad" gradientUnits="userSpaceOnUse" x1="60.35900115966797" y1="92.1780014038086" x2="-36.11800003051758" y2="-98.4209976196289"><stop offset="15%" stop-color="rgb(180,142,106)"/><stop offset="44%" stop-color="rgb(182,152,110)"/><stop offset="67%" stop-color="rgb(183,162,114)"/></linearGradient><radialGradient id="__lottie_element_77" spreadMethod="pad" gradientUnits="userSpaceOnUse" cx="2.7780001163482666" cy="5.355000019073486" r="85.66096691524892" fx="2.7780001163482666" fy="5.355000019073486"><stop offset="17%" stop-color="rgb(247,226,154)"/><stop offset="37%" stop-color="rgb(247,207,116)"/><stop offset="56%" stop-color="rgb(246,187,77)"/><stop offset="72%" stop-color="rgb(234,145,59)"/><stop offset="88%" stop-color="rgb(221,103,41)"/></radialGradient><linearGradient id="__lottie_element_78" spreadMethod="pad" gradientUnits="userSpaceOnUse" x1="-0.4189999997615814" y1="15.369000434875488" x2="-1.687999963760376" y2="-15.079999923706055"><stop offset="0%" stop-color="rgb(255,255,255)" stop-opacity="1"/><stop offset="50%" stop-color="rgb(255,255,255)" stop-opacity="0.5"/><stop offset="100%" stop-color="rgb(255,255,255)" stop-opacity="0"/></linearGradient><linearGradient id="__lottie_element_79" spreadMethod="pad" gradientUnits="userSpaceOnUse" x1="-0.1679999977350235" y1="24.354999542236328" x2="-0.8019999861717224" y2="-4.190999984741211"><stop offset="0%" stop-color="rgb(255,255,255)" stop-opacity="1"/><stop offset="50%" stop-color="rgb(255,255,255)" stop-opacity="0.5"/><stop offset="100%" stop-color="rgb(255,255,255)" stop-opacity="0"/></linearGradient><linearGradient id="__lottie_element_80" spreadMethod="pad" gradientUnits="userSpaceOnUse" x1="-10.38700008392334" y1="-21.60300064086914" x2="7.697999954223633" y2="23.283000946044922"><stop offset="0%" stop-color="rgb(255,248,199)" stop-opacity="0"/><stop offset="58%" stop-color="rgb(255,241,144)" stop-opacity="0.5"/><stop offset="100%" stop-color="rgb(255,235,89)" stop-opacity="1"/></linearGradient><linearGradient id="__lottie_element_81" spreadMethod="pad" gradientUnits="userSpaceOnUse" x1="12.168999671936035" y1="-15.145999908447266" x2="-5.238999843597412" y2="18.198999404907227"><stop offset="0%" stop-color="rgb(255,248,199)" stop-opacity="0"/><stop offset="58%" stop-color="rgb(255,241,144)" stop-opacity="0.5"/><stop offset="100%" stop-color="rgb(255,235,89)" stop-opacity="1"/></linearGradient><radialGradient id="__lottie_element_82" spreadMethod="pad" gradientUnits="userSpaceOnUse" cx="6.626999855041504" cy="11.244000434875488" r="96.80725912111302" fx="6.626999855041504" fy="11.244000434875488"><stop offset="41%" stop-color="rgb(212,96,37)"/><stop offset="62%" stop-color="rgb(196,81,39)"/><stop offset="77%" stop-color="rgb(180,65,40)"/></radialGradient><radialGradient id="__lottie_element_87" spreadMethod="pad" gradientUnits="userSpaceOnUse" cx="-7.618000030517578" cy="-4.876999855041504" r="21.99876179027024" fx="-7.618000030517578" fy="-4.876999855041504"><stop offset="7%" stop-color="rgb(242,234,221)"/><stop offset="27%" stop-color="rgb(243,217,162)"/><stop offset="47%" stop-color="rgb(244,200,103)"/><stop offset="73%" stop-color="rgb(226,148,80)"/><stop offset="100%" stop-color="rgb(208,97,57)"/></radialGradient><linearGradient id="__lottie_element_88" spreadMethod="pad" gradientUnits="userSpaceOnUse" x1="-3.9660000801086426" y1="14.503999710083008" x2="-2.740999937057495" y2="-19.635000228881836"><stop offset="0%" stop-color="rgb(255,248,199)" stop-opacity="0"/><stop offset="58%" stop-color="rgb(255,241,144)" stop-opacity="0.5"/><stop offset="100%" stop-color="rgb(255,235,89)" stop-opacity="1"/></linearGradient><linearGradient id="__lottie_element_89" spreadMethod="pad" gradientUnits="userSpaceOnUse" x1="18.34000015258789" y1="20.31999969482422" x2="-10.25100040435791" y2="-17.976999282836914"><stop offset="0%" stop-color="rgb(184,55,34)"/><stop offset="58%" stop-color="rgb(194,79,46)"/><stop offset="100%" stop-color="rgb(203,103,58)"/></linearGradient><radialGradient id="__lottie_element_94" spreadMethod="pad" gradientUnits="userSpaceOnUse" cx="-6.428999900817871" cy="-10.824999809265137" r="30.70665260882944" fx="-6.428999900817871" fy="-10.824999809265137"><stop offset="7%" stop-color="rgb(242,234,221)"/><stop offset="27%" stop-color="rgb(243,217,162)"/><stop offset="47%" stop-color="rgb(244,200,103)"/><stop offset="73%" stop-color="rgb(226,148,80)"/><stop offset="100%" stop-color="rgb(208,97,57)"/></radialGradient><linearGradient id="__lottie_element_95" spreadMethod="pad" gradientUnits="userSpaceOnUse" x1="-1.100000023841858" y1="21.635000228881836" x2="5.125999927520752" y2="-26.718000411987305"><stop offset="0%" stop-color="rgb(255,248,199)" stop-opacity="0"/><stop offset="58%" stop-color="rgb(255,241,144)" stop-opacity="0.5"/><stop offset="100%" stop-color="rgb(255,235,89)" stop-opacity="1"/></linearGradient><linearGradient id="__lottie_element_96" spreadMethod="pad" gradientUnits="userSpaceOnUse" x1="-4.2210001945495605" y1="27.024999618530273" x2="-15.083000183105469" y2="-19.125"><stop offset="0%" stop-color="rgb(184,55,34)"/><stop offset="58%" stop-color="rgb(194,79,46)"/><stop offset="100%" stop-color="rgb(203,103,58)"/></linearGradient><linearGradient id="__lottie_element_1476" spreadMethod="pad" gradientUnits="userSpaceOnUse" x1="99.55599975585938" y1="69.42400360107422" x2="93.79199981689453" y2="-41.7400016784668"><stop offset="13%" stop-color="rgb(242,202,143)"/><stop offset="39%" stop-color="rgb(243,215,167)"/><stop offset="84%" stop-color="rgb(244,228,190)"/></linearGradient><linearGradient id="__lottie_element_1477" spreadMethod="pad" gradientUnits="userSpaceOnUse" x1="29.514999389648438" y1="87.31099700927734" x2="36.65399932861328" y2="7.934000015258789"><stop offset="11%" stop-color="rgb(198,164,109)" stop-opacity="1"/><stop offset="56%" stop-color="rgb(198,164,109)" stop-opacity="0.5"/><stop offset="100%" stop-color="rgb(198,164,109)" stop-opacity="0"/></linearGradient><linearGradient id="__lottie_element_1478" spreadMethod="pad" gradientUnits="userSpaceOnUse" x1="60.35900115966797" y1="92.1780014038086" x2="-36.11800003051758" y2="-98.4209976196289"><stop offset="15%" stop-color="rgb(180,142,106)"/><stop offset="44%" stop-color="rgb(182,152,110)"/><stop offset="67%" stop-color="rgb(183,162,114)"/></linearGradient><linearGradient id="__lottie_element_1479" spreadMethod="pad" gradientUnits="userSpaceOnUse" x1="27.85300064086914" y1="74.66799926757812" x2="28.422000885009766" y2="-82.95700073242188"><stop offset="33%" stop-color="rgb(210,29,29)"/><stop offset="62%" stop-color="rgb(233,34,34)"/><stop offset="87%" stop-color="rgb(255,39,39)"/></linearGradient><linearGradient id="__lottie_element_1480" spreadMethod="pad" gradientUnits="userSpaceOnUse" x1="96.99600219726562" y1="61.07899856567383" x2="96.99600219726562" y2="-62.084999084472656"><stop offset="0%" stop-color="rgb(255,255,255)" stop-opacity="0"/><stop offset="58%" stop-color="rgb(255,255,255)" stop-opacity="0.5"/><stop offset="100%" stop-color="rgb(255,255,255)" stop-opacity="1"/></linearGradient><linearGradient id="__lottie_element_1481" spreadMethod="pad" gradientUnits="userSpaceOnUse" x1="128.36399841308594" y1="-31.982999801635742" x2="138.7830047607422" y2="-94.64199829101562"><stop offset="33%" stop-color="rgb(198,18,18)" stop-opacity="1"/><stop offset="69%" stop-color="rgb(196,26,29)" stop-opacity="0.5"/><stop offset="100%" stop-color="rgb(194,34,40)" stop-opacity="0"/></linearGradient><linearGradient id="__lottie_element_1482" spreadMethod="pad" gradientUnits="userSpaceOnUse" x1="15.125" y1="61.03300094604492" x2="143.65499877929688" y2="-73.87200164794922"><stop offset="30%" stop-color="rgb(112,5,2)"/><stop offset="62%" stop-color="rgb(120,6,4)"/><stop offset="81%" stop-color="rgb(128,8,5)"/></linearGradient><linearGradient id="__lottie_element_1483" spreadMethod="pad" gradientUnits="userSpaceOnUse" x1="-29.531999588012695" y1="78.26200103759766" x2="-64.64299774169922" y2="-92.3010025024414"><stop offset="44%" stop-color="rgb(149,13,20)"/><stop offset="67%" stop-color="rgb(160,23,40)"/><stop offset="81%" stop-color="rgb(171,34,59)"/></linearGradient><linearGradient id="__lottie_element_1589" spreadMethod="pad" gradientUnits="userSpaceOnUse" x1="0" y1="0" x2="100" y2="0"><stop offset="33%" stop-color="rgb(210,29,29)"/><stop offset="62%" stop-color="rgb(233,34,34)"/><stop offset="87%" stop-color="rgb(255,39,39)"/></linearGradient><linearGradient id="__lottie_element_1590" spreadMethod="pad" gradientUnits="userSpaceOnUse" x1="-63.68911361694336" y1="8.426786422729492" x2="-56.54237747192383" y2="106.46688079833984"><stop offset="15%" stop-color="rgb(180,142,106)"/><stop offset="44%" stop-color="rgb(182,152,110)"/><stop offset="67%" stop-color="rgb(183,162,114)"/></linearGradient></defs><g clip-path="url(#__lottie_element_2)"><g style="display: block;" transform="matrix(-0.9148329496383667,0.021867772564291954,0.023220418021082878,0.9714205265045166,460.0486755371094,-1.6099966764450073)" opacity="1"><g opacity="1" transform="matrix(1,0,0,1,344.0769958496094,311.093994140625)"><path fill="url(#__lottie_element_8)" fill-opacity="1" d=" M-89.63490295410156,-39.9400520324707 C-26.933687210083008,-138.74331665039062 136.85621643066406,-109.9322738647461 117.7568359375,22.36382293701172 C116.9574966430664,27.90022087097168 105.39926147460938,26.40298843383789 103.1929702758789,21.64276123046875 C96.57511138916016,7.362130165100098 82.10855102539062,-44.4271125793457 49.8525390625,-37.781864166259766 C11.628236770629883,-29.90662384033203 -24.461977005004883,72.80626678466797 -24.461977005004883,72.80626678466797 C-24.461977005004883,72.80626678466797 -89.63490295410156,-39.9400520324707 -89.63490295410156,-39.9400520324707z"/></g><g opacity="0.3" transform="matrix(1,0,0,1,344.0769958496094,311.093994140625)"><path fill="url(#__lottie_element_9)" fill-opacity="1" d=" M-89.63490295410156,-39.9400520324707 C-26.933687210083008,-138.74331665039062 136.85621643066406,-109.9322738647461 117.7568359375,22.36382293701172 C116.9574966430664,27.90022087097168 105.39926147460938,26.40298843383789 103.1929702758789,21.64276123046875 C96.57511138916016,7.362130165100098 82.10855102539062,-44.4271125793457 49.8525390625,-37.781864166259766 C11.628236770629883,-29.90662384033203 -24.461977005004883,72.80626678466797 -24.461977005004883,72.80626678466797 C-24.461977005004883,72.80626678466797 -89.63490295410156,-39.9400520324707 -89.63490295410156,-39.9400520324707z"/></g><g opacity="0.4" transform="matrix(1,0,0,1,116.6050033569336,319.0429992675781)"><path fill="url(#__lottie_element_10)" fill-opacity="1" d=" M169.37635803222656,8.21611499786377 C178.1953582763672,20.232114791870117 199.20993041992188,56.784542083740234 203.13392639160156,64.99954223632812 C211.3849334716797,38.47454071044922 249.3152313232422,-40.80706024169922 276.52044677734375,-45.03289031982422 C316.03448486328125,-51.16869354248047 329.4151916503906,12.748466491699219 329.4151916503906,12.748466491699219 C329.4151916503906,12.748466491699219 338.1393737792969,-55.46330642700195 293.3226318359375,-68.81752014160156 C234.0989532470703,-86.51787567138672 176.4883575439453,-3.062885046005249 169.37635803222656,8.21611499786377z"/></g><g opacity="1" transform="matrix(1,0,0,1,0,0)"><path stroke-linecap="butt" stroke-linejoin="miter" fill-opacity="0" stroke-miterlimit="4" stroke="rgb(255,255,255)" stroke-opacity="0.25" stroke-width="8" d=" M444.44061279296875,254.3556365966797 C384.953369140625,199.1405487060547 325.36065673828125,216.46823120117188 275.3507995605469,244.90847778320312"/></g><g opacity="1" transform="matrix(1,0,0,1,344.0769958496094,311.093994140625)"><path stroke="url(#__lottie_element_11)" stroke-linecap="round" stroke-linejoin="round" fill-opacity="0" stroke-opacity="1" stroke-width="8" d=" M-89.63490295410156,-39.9400520324707 C-26.933687210083008,-138.74331665039062 136.85621643066406,-109.9322738647461 117.7568359375,22.36382293701172 C116.9574966430664,27.90022087097168 105.39926147460938,26.40298843383789 103.1929702758789,21.64276123046875 C96.57511138916016,7.362130165100098 82.10855102539062,-44.4271125793457 49.8525390625,-37.781864166259766 C11.628236770629883,-29.90662384033203 -24.461977005004883,72.80626678466797 -24.461977005004883,72.80626678466797 C-24.461977005004883,72.80626678466797 -89.63490295410156,-39.9400520324707 -89.63490295410156,-39.9400520324707z"/></g><g opacity="0" transform="matrix(1,0,0,1,356.9110107421875,335.35699462890625)"><path stroke-linecap="round" stroke-linejoin="round" fill-opacity="0" stroke="rgb(117,10,22)" stroke-opacity="1" stroke-width="8" d=" M104.9228286743164,-1.8981761932373047 C104.12349700927734,3.63822078704834 92.56526184082031,2.1399874687194824 90.35897064208984,-2.6202380657196045 C83.7411117553711,-16.900869369506836 69.27359771728516,-68.69010925292969 37.01853942871094,-62.044864654541016 C-1.2057627439498901,-54.16962432861328 -37.29597854614258,48.54326248168945 -37.29597854614258,48.54326248168945"/></g></g><g style="display: block;" transform="matrix(-1.0102595090866089,0.11923187226057053,0.11519332230091095,1.073022484779358,403.4710388183594,-83.14632415771484)" opacity="1"><g opacity="1" transform="matrix(1,0,0,1,385.1369934082031,362.6610107421875)"><path fill="url(#__lottie_element_16)" fill-opacity="1" d=" M-18.937000274658203,-6.2230000495910645 C-22.374000549316406,4.235000133514404 -16.68199920654297,15.5 -6.2230000495910645,18.937000274658203 C4.236000061035156,22.374000549316406 15.5,16.680999755859375 18.937000274658203,6.2230000495910645 C22.374000549316406,-4.236000061035156 16.68199920654297,-15.5 6.2230000495910645,-18.937000274658203 C-4.235000133514404,-22.374000549316406 -15.5,-16.68199920654297 -18.937000274658203,-6.2230000495910645z"/></g><g opacity="0.5" transform="matrix(1,0,0,1,384.2550048828125,365.3450012207031)"><path stroke="url(#__lottie_element_17)" stroke-linecap="round" stroke-linejoin="round" fill-opacity="0" stroke-opacity="1" stroke-width="8" d=" M-16.909000396728516,-5.557000160217285 C-19.858999252319336,3.4189999103546143 -14.680000305175781,13.184000015258789 -5.341000080108643,16.253000259399414 C3.997999906539917,19.32200050354004 13.958999633789062,14.534000396728516 16.909000396728516,5.557000160217285 C19.858999252319336,-3.4189999103546143 14.680000305175781,-13.184000015258789 5.341000080108643,-16.253000259399414 C-3.997999906539917,-19.32200050354004 -13.958999633789062,-14.534000396728516 -16.909000396728516,-5.557000160217285z"/></g><g opacity="1" transform="matrix(1,0,0,1,385.1369934082031,362.6610107421875)"><path stroke="url(#__lottie_element_18)" stroke-linecap="round" stroke-linejoin="round" fill-opacity="0" stroke-opacity="1" stroke-width="8" d=" M-18.937000274658203,-6.2230000495910645 C-22.374000549316406,4.235000133514404 -16.68199920654297,15.5 -6.2230000495910645,18.937000274658203 C4.236000061035156,22.374000549316406 15.5,16.680999755859375 18.937000274658203,6.2230000495910645 C22.374000549316406,-4.236000061035156 16.68199920654297,-15.5 6.2230000495910645,-18.937000274658203 C-4.235000133514404,-22.374000549316406 -15.5,-16.68199920654297 -18.937000274658203,-6.2230000495910645z"/></g><g opacity="1" transform="matrix(1,0,0,1,391.09100341796875,371.8030090332031)"><path stroke-linecap="round" stroke-linejoin="round" fill-opacity="0" stroke="rgb(99,33,13)" stroke-opacity="1" stroke-width="8" d=" M4.585353374481201,7.665348529815674 C4.585353374481201,7.665348529815674 3.2575433254241943,-0.4110119342803955 -3.5501492023468018,-8.104178428649902"/></g><g opacity="1" transform="matrix(1,0,0,1,386.2409973144531,362.82598876953125)"><path stroke-linecap="round" stroke-linejoin="round" fill-opacity="0" stroke="rgb(99,33,13)" stroke-opacity="1" stroke-width="12" d=" M-0.44387540221214294,0.5330808162689209 C-0.44387540221214294,0.5330808162689209 1.9440171718597412,-0.5827749371528625 1.9440171718597412,-0.5827749371528625"/></g></g><g style="display: block;" transform="matrix(0.9148329496383667,-0.021867772564291954,0.023220418021082878,0.9714205265045166,15.595246315002441,9.014026641845703)" opacity="1"><g opacity="1" transform="matrix(1,0,0,1,0,0)"><path fill="url(#__lottie_element_22)" fill-opacity="1" d="M0 0"/></g><g opacity="1" transform="matrix(1,0,0,1,261.8320007324219,200.18600463867188)"><path fill="url(#__lottie_element_23)" fill-opacity="1" d=" M-71.98308563232422,83.47377014160156 C-74.13077545166016,16.752351760864258 -49.96375274658203,-57.227569580078125 -14.232935905456543,-84.8984603881836 C46.966190338134766,-132.19725036621094 89.3011245727539,-99.6373291015625 106.60812377929688,-73.04246520996094 C123.23828125,-47.39045333862305 132.1314239501953,-0.9155507683753967 121.66805267333984,3.603991985321045 C108.73235321044922,9.207797050476074 86.00099182128906,-55.61878967285156 66.58761596679688,-53.73598861694336 C44.67152404785156,-51.514366149902344 42.691810607910156,19.172985076904297 44.85126495361328,63.40545654296875 C47.44145965576172,163.0857696533203 -70.05146026611328,146.14137268066406 -71.98308563232422,83.47377014160156z"/></g><g opacity="0.4" transform="matrix(1,0,0,1,284.2869873046875,198.3260040283203)"><path fill="url(#__lottie_element_24)" fill-opacity="1" d=" M50.576725006103516,-64.29618072509766 C20.360366821289062,-63.0362548828125 6.678174018859863,-24.724430084228516 -2.539825916290283,16.385438919067383 C-17.763826370239258,84.27931213378906 0.5891740322113037,77.51565551757812 0.5891740322113037,77.51565551757812 C0.5891740322113037,77.51565551757812 8.101174354553223,45.13335037231445 8.101174354553223,45.13335037231445 C8.101174354553223,45.13335037231445 0.9421740174293518,2.4894399642944336 13.964174270629883,-27.027673721313477 C27.679174423217773,-58.116554260253906 50.576725006103516,-64.29618072509766 50.576725006103516,-64.29618072509766z"/></g><g opacity="1" transform="matrix(1,0,0,1,258.57000732421875,179.4980010986328)"><path fill="url(#__lottie_element_25)" fill-opacity="1" d=" M130.16168212890625,17.49750328063965 C131.08267211914062,27.397502899169922 118.85902404785156,23.656503677368164 118.85902404785156,23.656503677368164 C109.60911560058594,14.752503395080566 89.2291259765625,-24.93519401550293 78.31163024902344,-30.621173858642578 C78.31163024902344,-30.621173858642578 78.31063079833984,-30.62908363342285 78.2716293334961,-30.644084930419922 C76.39063262939453,-31.35208511352539 65.57302856445312,-37.915470123291016 57.532325744628906,-24.243221282958984 C47.43805694580078,-7.433583736419678 47.16534423828125,82.93728637695312 47.16534423828125,82.93728637695312 C47.16534423828125,82.93728637695312 -13.197771072387695,119.34779357910156 -13.197771072387695,119.34779357910156 C-16.07720375061035,7.413721084594727 -7.5283589363098145,-20.121530532836914 6.3969879150390625,-46.30078887939453 C20.853370666503906,-75.08814239501953 41.88465881347656,-87.8800277709961 50.91520690917969,-88.35037231445312 C50.91520690917969,-88.35037231445312 50.95992660522461,-88.35037231445312 50.95992660522461,-88.35037231445312 C67.71998596191406,-88.51469421386719 120.75167846679688,-83.6824951171875 130.16168212890625,17.49750328063965z"/></g><g opacity="0.4" transform="matrix(1,0,0,1,241.22900390625,197.02000427246094)"><path fill="url(#__lottie_element_26)" fill-opacity="1" d=" M89.62959289550781,-50.58894348144531 C89.32076263427734,-51.211856842041016 83.27010345458984,-54.8398323059082 76.06558990478516,-44.127925872802734 C61.36183547973633,-23.05611801147461 65.0002670288086,66.84610748291016 65.0002670288086,66.84610748291016 C65.0002670288086,66.84610748291016 6.165553569793701,103.21343994140625 6.165553569793701,103.21343994140625 C6.165553569793701,103.21343994140625 4.7457661628723145,54.79829406738281 4.7457661628723145,54.79829406738281 C3.145458221435547,30.947471618652344 1.8060460090637207,1.3887245655059814 7.872045993804932,-15.128274917602539 C8.647046089172363,24.126724243164062 58.03240203857422,22.007556915283203 67.5,-19.11571502685547 C74.7549057006836,-50.35729217529297 86.11520385742188,-50.24866485595703 89.62959289550781,-50.58894348144531z"/></g><g opacity="0.4" transform="matrix(1,0,0,1,241.22900390625,197.02000427246094)"><path fill="url(#__lottie_element_27)" fill-opacity="1" d=" M92.92680358886719,-48.62016677856445 C79.8010025024414,-56.6392822265625 67.5190658569336,-26.39177894592285 67.52286529541016,-24.191389083862305 C64.23027801513672,-54.33660888671875 76.28002166748047,-87.20561981201172 99.16329193115234,-78.78189849853516 C122.83231353759766,-70.01058197021484 130.1059112548828,-17.78702735900879 129.40309143066406,-2.7593793869018555 C124.72708892822266,-11.665379524230957 101.92157745361328,-43.303524017333984 92.92680358886719,-48.62016677856445z"/></g><g opacity="0.3" transform="matrix(1,0,0,1,263.76300048828125,150.11700439453125)"><path stroke="url(#__lottie_element_28)" stroke-linecap="round" stroke-linejoin="round" fill-opacity="0" stroke-opacity="1" stroke-width="8" d=" M-61.805999755859375,72.50299835205078 C-61.805999755859375,72.50299835205078 -47.8530387878418,7.051969528198242 -19.716922760009766,-21.982223510742188 C37.741355895996094,-80.56028747558594 92.33518981933594,-47.377037048339844 109.10819244384766,-10.251789093017578"/></g><g opacity="1" transform="matrix(1,0,0,1,261.8320007324219,200.18600463867188)"><path stroke="url(#__lottie_element_29)" stroke-linecap="round" stroke-linejoin="round" fill-opacity="0" stroke-opacity="1" stroke-width="8" d=" M44.45000076293945,22.847000122070312 C44.12200164794922,36.97600173950195 44.382999420166016,51.12799835205078 44.85100173950195,63.404998779296875 C46.839324951171875,163.21998596191406 -70.00645446777344,146.0917510986328 -71.93309783935547,83.42378997802734 C-71.93309783935547,83.42378997802734 -71.93309783935547,83.42378997802734 -71.93309783935547,83.42378997802734 C-74.18437194824219,15.012195587158203 -48.70199966430664,-58.24095153808594 -14.232935905456543,-84.8984603881836 C12.468000411987305,-105.53299713134766 35.481998443603516,-111.1780014038086 54.42100143432617,-108.69400024414062"/></g><g opacity="1" transform="matrix(1,0,0,1,258.55499267578125,179.50399780273438)"><path stroke="url(#__lottie_element_30)" stroke-linecap="round" stroke-linejoin="round" fill-opacity="0" stroke-opacity="1" stroke-width="8" d=" M130.17532348632812,17.492046356201172 C131.0963134765625,27.392045974731445 118.87358093261719,23.651046752929688 118.87358093261719,23.651046752929688 C109.62366485595703,14.74704647064209 89.24368286132812,-24.94074058532715 78.32617950439453,-30.626632690429688 C78.32617950439453,-30.626632690429688 78.32518005371094,-30.63454246520996 78.28618621826172,-30.6495418548584 C76.40518188476562,-31.357542037963867 66.06118774414062,-37.796016693115234 57.54597091674805,-24.24867820739746 C47.04335021972656,-7.872069835662842 47.17989730834961,82.93182373046875 47.17989730834961,82.93182373046875 C47.17989730834961,82.93182373046875 -13.181500434875488,119.34251403808594 -13.181500434875488,119.34251403808594 C-16.060932159423828,7.408443927764893 -7.51471471786499,-20.12698745727539 6.410632133483887,-46.30624771118164 C20.867013931274414,-75.09359741210938 41.89921188354492,-87.88548278808594 50.92976379394531,-88.35582733154297 C50.92976379394531,-88.35582733154297 50.97447967529297,-88.35582733154297 50.97447967529297,-88.35582733154297 C67.81253814697266,-88.63674926757812 120.76531982421875,-83.68795013427734 130.17532348632812,17.492046356201172z"/></g></g><g style="display: none;" transform="matrix(0.902971625328064,0.12348705530166626,-0.12385620921850204,0.9056709408760071,17.646747589111328,-12.973971366882324)" opacity="0.9951999999955419"><g opacity="1" transform="matrix(1,0,0,1,373.989013671875,297.7380065917969)"><path fill="url(#__lottie_element_34)" fill-opacity="1" d=" M-92.72899627685547,-13.086999893188477 C-71.5479965209961,-47.125999450683594 -67.30253601074219,-92.26982116699219 -6.136536121368408,-82.142822265625 C36.739463806152344,-75.0438232421875 38.643463134765625,-36.88577651977539 26.966463088989258,37.42122268676758 C24.573463439941406,52.648223876953125 7.384463787078857,55.109222412109375 6.410463809967041,35.0432243347168 C3.461463689804077,-25.69977569580078 -15.124536514282227,-27.533823013305664 -27.70853614807129,-25.709823608398438 C-63.4355354309082,-20.530824661254883 5.423999786376953,83.20999908447266 -25.14900016784668,97.76300048828125 C-74.44000244140625,121.22599792480469 -114.47599792480469,95.39700317382812 -114.47599792480469,95.39700317382812 C-114.47599792480469,95.39700317382812 -107.60900115966797,10.826000213623047 -92.72899627685547,-13.086999893188477z"/></g><g opacity="0.4" transform="matrix(1,0,0,1,364.8559875488281,314.5450134277344)"><path fill="url(#__lottie_element_35)" fill-opacity="1" d=" M15.480463981628418,17.09217643737793 C15.480463981628418,17.09217643737793 15.480463981628418,17.09217643737793 15.480463981628418,17.09217643737793 C12.163463592529297,-42.702823638916016 -6.033536434173584,-43.21682357788086 -18.576536178588867,-42.51482391357422 C-49.07353591918945,-40.80882263183594 22.256000518798828,40.2760009765625 -4.901000022888184,77.8550033569336 C-12.420000076293945,88.26000213623047 -66.6969985961914,81.22100067138672 -72.87899780273438,84.7490005493164 C-72.87899780273438,84.7490005493164 -107.98899841308594,60.2859992980957 -107.98899841308594,60.2859992980957 C-111.9800033569336,29.71500015258789 -84.82099914550781,4.422999858856201 -73.89700317382812,-13.135000228881836 C-66.3759994506836,43.823001861572266 -28.553285598754883,0.1677534431219101 -29.76546287536621,-19.648231506347656 C-31.54264259338379,-55.828857421875 -18.6782169342041,-45.754127502441406 -8.399073600769043,-44.19696807861328 C1.8800710439682007,-42.63981246948242 26.202463150024414,-34.009822845458984 15.480463981628418,17.09217643737793z"/></g><g opacity="0.4" transform="matrix(1,0,0,1,371.5429992675781,314.64300537109375)"><path stroke="url(#__lottie_element_36)" stroke-linecap="round" stroke-linejoin="round" fill-opacity="0" stroke-opacity="1" stroke-width="8" d=" M-22.702999114990234,76.38700103759766 C7.328999996185303,41.95000076293945 -58.81953811645508,-58.59382247924805 -18.990535736083984,-41.19182205200195"/></g><g opacity="0.3" transform="matrix(1,0,0,1,379.0799865722656,267.92498779296875)"><path stroke="url(#__lottie_element_37)" stroke-linecap="round" stroke-linejoin="round" fill-opacity="0" stroke-opacity="1" stroke-width="8" d=" M-92.48300170898438,23.20400047302246 C-92.48300170898438,23.20400047302246 -97.43148803710938,-23.921775817871094 -47.608489990234375,-41.23877716064453 C-10.672489166259766,-54.07677459716797 20.76551055908203,-35.979774475097656 20.328510284423828,63.24822235107422"/></g><g opacity="1" transform="matrix(1,0,0,1,374.7869873046875,296.2139892578125)"><path stroke="url(#__lottie_element_38)" stroke-linecap="round" stroke-linejoin="round" fill-opacity="0" stroke-opacity="1" stroke-width="8" d=" M26.16646385192871,38.95022201538086 C23.779462814331055,54.17122268676758 6.586511135101318,56.63117599487305 5.612511157989502,36.57017517089844 C2.663511276245117,-24.172822952270508 -15.963536262512207,-26.737775802612305 -28.507535934448242,-24.184776306152344 C-66.07453918457031,-16.539775848388672 4.625999927520752,92.61900329589844 -25.94700050354004,99.28700256347656 C-79.29199981689453,110.9219970703125 -115.2770004272461,96.91899871826172 -115.2770004272461,96.91899871826172 C-115.2770004272461,96.91899871826172 -115.35099792480469,96.45500183105469 -115.48799896240234,95.59200286865234 C-109.24299621582031,91.67500305175781 -101.00700378417969,86.38600158691406 -101.00700378417969,86.38600158691406 C-90.51799774169922,37.19599914550781 -86.64299774169922,-0.43700000643730164 -93.5270004272461,-11.562999725341797 C-72.33999633789062,-45.60200119018555 -68.1025390625,-90.7478256225586 -6.933536052703857,-80.6178207397461 C35.937461853027344,-73.517822265625 37.82146453857422,-35.36577606201172 26.16646385192871,38.95022201538086z"/></g><g opacity="1" transform="matrix(1,0,0,1,365.5039978027344,322.76300048828125)"><path stroke-linecap="round" stroke-linejoin="round" fill-opacity="0" stroke="rgb(140,9,23)" stroke-opacity="1" stroke-width="8" d=" M14.895511627197266,10.0211763381958 C11.946511268615723,-50.721824645996094 -6.680536270141602,-53.28677749633789 -19.224536895751953,-50.7337760925293 C-56.791534423828125,-43.088775634765625 13.909000396728516,66.06999969482422 -16.663999557495117,72.73799896240234 C-70.00900268554688,84.37300109863281 -105.99400329589844,70.37000274658203 -105.99400329589844,70.37000274658203 C-105.99400329589844,70.37000274658203 -106.06800079345703,69.90599822998047 -106.20500183105469,69.04299926757812 C-99.95999908447266,65.125 -91.7239990234375,59.83700180053711 -91.7239990234375,59.83700180053711"/></g><g opacity="0.1" transform="matrix(1,0,0,1,367.6510009765625,277.9309997558594)"><path stroke="url(#__lottie_element_39)" stroke-linecap="round" stroke-linejoin="round" fill-opacity="0" stroke-opacity="1" stroke-dasharray=" 3 20" stroke-dashoffset="20" stroke-width="6" d=" M-27.932804107666016,50.72919464111328 C-27.932804107666016,50.72919464111328 -53.12653350830078,-30.71372413635254 -7.627804756164551,-9.452507019042969"/></g></g><g style="display: block;" transform="matrix(0.9148329496383667,-0.021867772564291954,0.023220418021082878,0.9714205265045166,15.595246315002441,9.014026641845703)" opacity="1"><g opacity="1" transform="matrix(1,0,0,1,120.66799926757812,305.0589904785156)"><path fill="url(#__lottie_element_43)" fill-opacity="1" d=" M31.15395164489746,13.734620094299316 C20.724939346313477,12.445913314819336 17.548967361450195,-19.05694580078125 15.042074203491211,-50.207637786865234 C2.8306884765625,-201.7978973388672 121.55887603759766,-140.6359405517578 138.5069580078125,-53.911373138427734 C173.5874786376953,125.33647155761719 63.462100982666016,83.9853515625 43.994102478027344,80.74635314941406 C24.527101516723633,77.5073471069336 38.69550323486328,32.8405876159668 38.095760345458984,7.244027614593506 C51.5500602722168,-5.474532604217529 57.85856246948242,-48.70020294189453 56.911014556884766,-52.678619384765625 C53.44761657714844,-32.455692291259766 45.93270492553711,16.078901290893555 31.15395164489746,13.734620094299316z"/></g><g opacity="0.4" transform="matrix(1,0,0,1,116.6050033569336,319.0429992675781)"><path fill="url(#__lottie_element_44)" fill-opacity="1" d=" M130.61520385742188,59.27267837524414 C108.67976379394531,81.56829071044922 58.071109771728516,66.9564208984375 49.79410934448242,65.57642364501953 C30.32210922241211,62.33302688598633 43.141334533691406,12.948494911193848 41.4902229309082,-2.8047983646392822 C43.80044174194336,-7.58974027633667 54.916019439697266,-23.031179428100586 52.93159484863281,-23.206159591674805 C48.005619049072266,-2.775785207748413 39.42901611328125,-1.9303784370422363 39.104248046875,-2.2714762687683105 C47.06985092163086,-2.4879887104034424 58.0762825012207,-63.897743225097656 61.38016128540039,-86.79484558105469 C84.25910949707031,-86.38134002685547 86.40185546875,34.27621841430664 145.84677124023438,-43.402950286865234 C148.9883575439453,-17.053823471069336 153.5872344970703,23.888343811035156 130.61520385742188,59.27267837524414z"/></g><g opacity="0.3" transform="matrix(1,0,0,1,130.66400146484375,314.572998046875)"><path stroke="url(#__lottie_element_45)" stroke-linecap="round" stroke-linejoin="round" fill-opacity="0" stroke-opacity="1" stroke-width="8" d=" M41.89584732055664,-37.173301696777344 C41.89584732055664,-37.173301696777344 35.77992248535156,-9.534708976745605 27.317813873291016,0.19371192157268524 C31.50205421447754,14.761509895324707 25.91814422607422,41.75159454345703 28.178333282470703,54.841552734375"/></g><g opacity="0.3" transform="matrix(1,0,0,1,115.00199890136719,290.5830078125)"><path stroke="url(#__lottie_element_46)" stroke-linecap="round" stroke-linejoin="round" fill-opacity="0" stroke-opacity="1" stroke-width="8" d=" M23.770109176635742,-6.164299964904785 C23.770109176635742,-6.164299964904785 12.37765121459961,-130.68309020996094 63.33573913574219,-120.72874450683594 C103.98005676269531,-112.86997985839844 141.8708953857422,-78.38009643554688 150.11843872070312,6.221210956573486"/></g><g opacity="0.1" transform="matrix(1,0,0,1,189.27099609375,290.1090087890625)"><path stroke="url(#__lottie_element_47)" stroke-linecap="round" stroke-linejoin="round" fill-opacity="0" stroke-opacity="1" stroke-dasharray=" 3 20 3 20" stroke-dashoffset="33" stroke-width="6" d=" M-10.815411567687988,-55.11314010620117 C-10.815411567687988,-55.11314010620117 12.542275428771973,-46.21283721923828 22.195941925048828,92.65328216552734"/></g><g opacity="1" transform="matrix(1,0,0,1,120.66799926757812,305.0589904785156)"><path stroke="url(#__lottie_element_48)" stroke-linecap="round" stroke-linejoin="round" fill-opacity="0" stroke-opacity="1" stroke-width="8" d=" M31.15395164489746,13.734620094299316 C20.724939346313477,12.445913314819336 17.548967361450195,-19.05694580078125 15.042074203491211,-50.207637786865234 C2.8306884765625,-201.7978973388672 121.55887603759766,-140.6359405517578 138.5069580078125,-53.911373138427734 C173.5874786376953,125.33647155761719 63.462100982666016,83.9853515625 43.994102478027344,80.74635314941406 C24.527101516723633,77.5073471069336 38.69550323486328,32.8405876159668 38.095760345458984,7.244027614593506 C51.5500602722168,-5.474532604217529 57.85856246948242,-48.70020294189453 56.911014556884766,-52.678619384765625 C53.44761657714844,-32.455692291259766 45.93270492553711,16.078901290893555 31.15395164489746,13.734620094299316z"/></g></g><g style="display: block;" transform="matrix(0.9631361365318298,-0.02302239090204239,0.024446457624435425,1.0227116346359253,255.73690795898438,252.09951782226562)" opacity="1"><g opacity="1" transform="matrix(1,0,0,1,0,0)"><path fill="rgb(241,36,36)" fill-opacity="1" d=" M-83.37164306640625,-88.00680541992188 C-126.92227935791016,-82.69264221191406 -118.30467224121094,35.93098449707031 -100.44960021972656,59.05013656616211 C-112.25684356689453,6.242969036102295 -106.8156509399414,-65.7611312866211 -83.37164306640625,-88.00680541992188z"/></g><g opacity="0.3" transform="matrix(1,0,0,1,0,0)"><path stroke-linecap="round" stroke-linejoin="round" fill-opacity="0" stroke="rgb(255,104,104)" stroke-opacity="1" stroke-width="8" d=" M-85.69986724853516,-86.19998168945312 C-133.07382202148438,-62.48591232299805 -105.3995361328125,50.099937438964844 -105.3995361328125,50.099937438964844"/></g><g opacity="1" transform="matrix(1,0,0,1,0,0)"><path stroke-linecap="round" stroke-linejoin="round" fill-opacity="0" stroke="rgb(150,15,22)" stroke-opacity="1" stroke-width="8" d=" M-83.37164306640625,-88.00680541992188 C-126.92227935791016,-82.69264221191406 -118.30467224121094,35.93098449707031 -100.44960021972656,59.05013656616211 C-112.25684356689453,6.242969036102295 -106.8156509399414,-65.7611312866211 -83.37164306640625,-88.00680541992188z"/></g><g opacity="1" transform="matrix(1,0,0,1,0,0)"><path stroke-linecap="round" stroke-linejoin="round" fill-opacity="0" stroke="rgb(183,162,114)" stroke-opacity="1" stroke-width="8" d=" M-101.3949966430664,54.599998474121094 C-111.94000244140625,2.2760000228881836 -106.16400146484375,-66.37999725341797 -83.37200164794922,-88.00700378417969"/></g></g><g style="display: block;" transform="matrix(0.9953665137290955,-0.007038697600364685,0.008932984434068203,0.9953532218933105,256.0003967285156,255.99960327148438)" opacity="1"><g opacity="1" transform="matrix(1,0,0,1,0,0)"><path fill="url(#__lottie_element_1589)" fill-opacity="1" d=" M-71.77228546142578,2.0158071517944336 C-72.17977905273438,49.91535949707031 -87.5534896850586,64.78303527832031 -87.5534896850586,64.78303527832031 C-87.5534896850586,64.78303527832031 -87.60933685302734,86.5766830444336 -89.62274932861328,97.06214141845703 C-91.71573638916016,107.12943267822266 -89.05660247802734,124.0471420288086 -82,124.51165008544922 C-76.70562744140625,124.90737915039062 -53.66725158691406,125.60370635986328 -49.31689453125,126.17068481445312 C-52.64292526245117,95.41097259521484 -62.142669677734375,27.43931007385254 -71.77228546142578,2.0158071517944336z"/></g><g opacity="1" transform="matrix(1,0,0,1,0,0)"><path stroke="url(#__lottie_element_1590)" stroke-linecap="round" stroke-linejoin="round" fill-opacity="0" stroke-opacity="1" stroke-width="8" d=" M-71.77228546142578,2.0158071517944336 C-72.89598083496094,50.288272857666016 -87.5534896850586,64.78303527832031 -87.5534896850586,64.78303527832031 C-87.5534896850586,64.78303527832031 -87.60933685302734,86.5766830444336 -89.62274932861328,97.06214141845703 C-91.71573638916016,107.12943267822266 -89.05660247802734,124.0471420288086 -82,124.51165008544922 C-76.70562744140625,124.90737915039062 -53.66725158691406,125.60370635986328 -49.31689453125,126.17068481445312 C-52.27651596069336,95.76581573486328 -62.142669677734375,27.43931007385254 -71.77228546142578,2.0158071517944336z"/></g></g><g style="display: block;" transform="matrix(0.6952730417251587,-0.01661950722336769,0.01764751598238945,0.7382795810699463,-44.503170013427734,86.32524871826172)" opacity="1"><g opacity="1" transform="matrix(1,0,0,1,477.7669982910156,355.09698486328125)"><path fill="url(#__lottie_element_53)" fill-opacity="1" d=" M-26.760000228881836,-5.2220001220703125 C-29.643999099731445,9.557000160217285 -20.000999450683594,23.875999450683594 -5.2220001220703125,26.760000228881836 C9.557000160217285,29.643999099731445 23.875999450683594,20.000999450683594 26.760000228881836,5.2220001220703125 C29.643999099731445,-9.557000160217285 20.000999450683594,-23.875999450683594 5.2220001220703125,-26.760000228881836 C-9.557000160217285,-29.643999099731445 -23.875999450683594,-20.000999450683594 -26.760000228881836,-5.2220001220703125z"/></g><g opacity="0.5" transform="matrix(1,0,0,1,477.0270080566406,358.8890075683594)"><path stroke="url(#__lottie_element_54)" stroke-linecap="round" stroke-linejoin="round" fill-opacity="0" stroke-opacity="1" stroke-width="8" d=" M-23.893999099731445,-4.663000106811523 C-26.368999481201172,8.020999908447266 -17.67799949645996,20.392000198364258 -4.48199987411499,22.966999053955078 C8.71399974822998,25.54199981689453 21.41900062561035,17.347999572753906 23.893999099731445,4.663000106811523 C26.368999481201172,-8.022000312805176 17.67799949645996,-20.392000198364258 4.48199987411499,-22.966999053955078 C-8.71399974822998,-25.54199981689453 -21.41900062561035,-17.347999572753906 -23.893999099731445,-4.663000106811523z"/></g><g opacity="1" transform="matrix(1,0,0,1,477.7669982910156,355.09698486328125)"><path stroke="url(#__lottie_element_55)" stroke-linecap="round" stroke-linejoin="round" fill-opacity="0" stroke-opacity="1" stroke-width="8" d=" M-26.760000228881836,-5.2220001220703125 C-29.643999099731445,9.557000160217285 -20.000999450683594,23.875999450683594 -5.2220001220703125,26.760000228881836 C9.557000160217285,29.643999099731445 23.875999450683594,20.000999450683594 26.760000228881836,5.2220001220703125 C29.643999099731445,-9.557000160217285 20.000999450683594,-23.875999450683594 5.2220001220703125,-26.760000228881836 C-9.557000160217285,-29.643999099731445 -23.875999450683594,-20.000999450683594 -26.760000228881836,-5.2220001220703125z"/></g><g opacity="1" transform="matrix(1,0,0,1,491.0090026855469,357.7449951171875)"><path stroke-linecap="round" stroke-linejoin="round" fill-opacity="0" stroke="rgb(99,33,13)" stroke-opacity="1" stroke-width="8" d=" M12.800000190734863,4.915999889373779 C12.800000190734863,4.915999889373779 10.245144844055176,3.695276975631714 8.322822570800781,3.7170250415802"/></g><g opacity="1" transform="matrix(1,0,0,1,477.5690002441406,352.6619873046875)"><path stroke-linecap="round" stroke-linejoin="round" fill-opacity="0" stroke="rgb(99,33,13)" stroke-opacity="1" stroke-width="12" d=" M21.800329208374023,6.772722244262695 C21.800329208374023,6.772722244262695 20.619327545166016,10.108135223388672 20.619327545166016,10.108135223388672"/></g></g><g style="display: block;" transform="matrix(0.7710711359977722,-0.007976705208420753,0.009725078009068966,0.8187362551689148,111.03535461425781,64.33187866210938)" opacity="1"><g opacity="1" transform="matrix(1,0,0,1,336.4020080566406,174.80099487304688)"><path fill="url(#__lottie_element_60)" fill-opacity="1" d=" M27.961999893188477,-2.4749999046325684 C29.32900047302246,12.968000411987305 17.917999267578125,26.594999313354492 2.4749999046325684,27.961999893188477 C-12.968000411987305,29.32900047302246 -26.594999313354492,17.917999267578125 -27.961999893188477,2.4749999046325684 C-29.32900047302246,-12.968000411987305 -17.917999267578125,-26.594999313354492 -2.4749999046325684,-27.961999893188477 C12.968000411987305,-29.32900047302246 26.594999313354492,-17.917999267578125 27.961999893188477,-2.4749999046325684z"/></g><g opacity="0.5" transform="matrix(1,0,0,1,336.75299072265625,178.76400756835938)"><path stroke="url(#__lottie_element_61)" stroke-linecap="round" stroke-linejoin="round" fill-opacity="0" stroke-opacity="1" stroke-width="8" d=" M24.968000411987305,-2.2100000381469727 C26.141000747680664,11.045000076293945 15.913000106811523,22.777999877929688 2.124000072479248,23.999000549316406 C-11.664999961853027,25.219999313354492 -23.795000076293945,15.46500015258789 -24.968000411987305,2.2100000381469727 C-26.141000747680664,-11.043999671936035 -15.913000106811523,-22.77899932861328 -2.124000072479248,-23.999000549316406 C11.664999961853027,-25.219999313354492 23.795000076293945,-15.46399974822998 24.968000411987305,-2.2100000381469727z"/></g><g opacity="1" transform="matrix(1,0,0,1,336.4020080566406,174.80099487304688)"><path stroke="url(#__lottie_element_62)" stroke-linecap="round" stroke-linejoin="round" fill-opacity="0" stroke-opacity="1" stroke-width="8" d=" M27.961999893188477,-2.4749999046325684 C29.32900047302246,12.968000411987305 17.917999267578125,26.594999313354492 2.4749999046325684,27.961999893188477 C-12.968000411987305,29.32900047302246 -26.594999313354492,17.917999267578125 -27.961999893188477,2.4749999046325684 C-29.32900047302246,-12.968000411987305 -17.917999267578125,-26.594999313354492 -2.4749999046325684,-27.961999893188477 C12.968000411987305,-29.32900047302246 26.594999313354492,-17.917999267578125 27.961999893188477,-2.4749999046325684z"/></g><g opacity="1" transform="matrix(1,0,0,1,336.4960021972656,173.9290008544922)"><path stroke-linecap="round" stroke-linejoin="round" fill-opacity="0" stroke="rgb(99,33,13)" stroke-opacity="1" stroke-width="8" d=" M22.093156814575195,-0.5265647768974304 C22.093156814575195,-0.5265647768974304 23.989999771118164,-0.470871239900589 23.95949935913086,-0.4674634635448456"/></g><g opacity="1" transform="matrix(1,0,0,1,352.739013671875,172.83700561523438)"><path stroke-linecap="round" stroke-linejoin="round" fill-opacity="0" stroke="rgb(99,33,13)" stroke-opacity="1" stroke-width="12" d=" M7.715325355529785,0.6230672597885132 C7.715325355529785,0.6230672597885132 7.717048168182373,0.625 7.717048168182373,0.625"/></g><g opacity="1" transform="matrix(1,0,0,1,317.37200927734375,177.51600646972656)"><path stroke-linecap="round" stroke-linejoin="round" fill-opacity="0" stroke="rgb(99,33,13)" stroke-opacity="1" stroke-width="12" d=" M40.737674713134766,-4.084477424621582 C40.737674713134766,-4.084477424621582 40.87632751464844,-4.22856330871582 40.87632751464844,-4.22856330871582"/></g></g><g style="display: none;" transform="matrix(0.9068842530250549,-0.15913176536560059,0.1557002067565918,0.8873279690742493,14.570140838623047,65.60474395751953)" opacity="1"><g opacity="1" transform="matrix(1,0,0,1,179.48500061035156,295.5159912109375)"><path fill="url(#__lottie_element_66)" fill-opacity="1" d=" M98.67073822021484,83.0300521850586 C101.54474639892578,46.473636627197266 31.406543731689453,42.20419692993164 18.93270492553711,22.293258666992188 C-0.048252686858177185,-7.583439350128174 56.20418167114258,-138.5308380126953 -2.938816547393799,-124.8078384399414 C-56.67581558227539,-112.33983612060547 -2.1407647132873535,27.003690719604492 6.010209560394287,27.327617645263672 C-2.4421913623809814,26.603618621826172 -43.711700439453125,-76.3718490600586 -17.8531494140625,-114.1371078491211 C-41.442161560058594,-98.16805267333984 -39.6223258972168,41.4635009765625 -42.725521087646484,84.75786590576172 C-42.725521087646484,84.75786590576172 -26.83300018310547,100.56999969482422 30.974000930786133,102.80699920654297 C88.78099822998047,105.04399871826172 98.67073822021484,83.0300521850586 98.67073822021484,83.0300521850586z"/></g><g opacity="0.4" transform="matrix(1,0,0,1,155.30599975585938,312.489013671875)"><path stroke="url(#__lottie_element_67)" stroke-linecap="round" stroke-linejoin="round" fill-opacity="0" stroke-opacity="1" stroke-width="8" d=" M-16.04306983947754,-38.85050964355469 C-16.04306983947754,-38.85050964355469 -16.58934211730957,7.479616165161133 -16.733915328979492,62.4739990234375"/></g><g opacity="0.5" transform="matrix(1,0,0,1,184.1219940185547,256.9909973144531)"><path stroke="url(#__lottie_element_68)" stroke-linecap="round" stroke-linejoin="round" fill-opacity="0" stroke-opacity="1" stroke-width="8" d=" M-43.35521697998047,16.20683479309082 C-40.19225311279297,-5.042263984680176 -27.95979881286621,-80.84310150146484 11.67788314819336,-78.8899154663086 C44.8570671081543,-77.50334930419922 75.52511596679688,-9.988182067871094 83.20142364501953,17.7230167388916"/></g><g opacity="1" transform="matrix(1,0,0,1,184.08799743652344,295.4750061035156)"><path stroke="url(#__lottie_element_69)" stroke-linecap="round" stroke-linejoin="round" fill-opacity="0" stroke-opacity="1" stroke-width="8" d=" M94.06773376464844,83.0711441040039 C96.9417495727539,46.514732360839844 26.803543090820312,42.24519729614258 14.329705238342285,22.334259033203125 C-4.651252746582031,-7.542438983917236 51.6011848449707,-138.48983764648438 -7.541816711425781,-124.76683807373047 C-61.27881622314453,-112.29883575439453 -6.743764877319336,27.044784545898438 1.4072093963623047,27.368709564208984 C-7.045191287994385,26.644712448120117 -48.314697265625,-76.33084869384766 -22.456148147583008,-114.09610748291016 C-46.045162200927734,-98.1270523071289 -44.22532653808594,41.50550079345703 -47.328521728515625,84.79986572265625 C-47.328521728515625,84.79986572265625 -31.43600082397461,100.61199951171875 26.371000289916992,102.8489990234375 C84.1780014038086,105.08599853515625 94.06773376464844,83.0711441040039 94.06773376464844,83.0711441040039z"/></g><g opacity="1" transform="matrix(1,0,0,1,190.56100463867188,295.64599609375)"><path fill="url(#__lottie_element_70)" fill-opacity="1" d=" M87.59382629394531,82.90005493164062 C87.59382629394531,82.90005493164062 77.69999694824219,104.91200256347656 19.895999908447266,102.67900085449219 C15.093999862670898,102.48899841308594 10.692000389099121,102.20500183105469 6.669000148773193,101.82599639892578 C6.447999954223633,100.12000274658203 4.69376277923584,79.9196548461914 4.555471897125244,78.14347076416016 C3.552743434906006,61.30485153198242 1.7879703044891357,35.820831298828125 0.9790942668914795,26.224252700805664 C14.96532154083252,22.356616973876953 21.124866485595703,-51.43460464477539 20.276411056518555,-50.02854537963867 C20.058876037597656,-49.33462905883789 12.20411205291748,25.346689224243164 -5.1149983406066895,27.81797981262207 C-9.190998077392578,-77.30201721191406 -24.151817321777344,-127.66474151611328 7.841183662414551,-126.20074462890625 C7.841183662414551,-126.20074462890625 7.8511834144592285,-126.2108383178711 7.8511834144592285,-126.2108383178711 C51.59986877441406,-116.49994659423828 70.56536865234375,-47.53178787231445 78.10800170898438,-24.67099952697754 C85.63605499267578,-1.8400120735168457 90.46493530273438,46.339542388916016 87.59382629394531,82.90005493164062z"/></g><g opacity="0.3" transform="matrix(1,0,0,1,190.52000427246094,310.50201416015625)"><path fill="url(#__lottie_element_71)" fill-opacity="1" d=" M87.18124389648438,87.5469970703125 C83.74078369140625,88.28399658203125 13.894075393676758,89.04405212402344 8.457022666931152,88.60604858398438 C6.105151653289795,88.41605377197266 2.4949498176574707,39.334232330322266 2.4987738132476807,37.55423355102539 C2.3357105255126953,6.332050800323486 25.800769805908203,-68.5608901977539 21.137176513671875,-63.58989334106445 C12.094627380371094,-55.470890045166016 8.395821571350098,-1.8894487619400024 -0.4943479001522064,18.24555206298828 C-0.6750353574752808,8.736551284790039 3.3777785301208496,-11.255000114440918 5.296631336212158,-25.264999389648438 C8.130855560302734,-45.96200180053711 7.598206520080566,-84.44889068603516 24.2435245513916,-87.92688751220703 C40.51262664794922,-91.32688903808594 51.821556091308594,-55.728023529052734 61.481903076171875,-15.617025375366211 C69.82244873046875,19.015974044799805 83.62613677978516,27.687999725341797 79.34922790527344,-34.19599914550781 C79.00659942626953,-39.15599822998047 95.6100845336914,23.54400062561035 87.18124389648438,87.5469970703125z"/></g><g opacity="0.1" transform="matrix(1,0,0,1,189.27099609375,290.1090087890625)"><path stroke="url(#__lottie_element_72)" stroke-linecap="round" stroke-linejoin="round" fill-opacity="0" stroke-opacity="1" stroke-dasharray=" 3 20 3 20" stroke-dashoffset="50.971649169921875" stroke-width="6" d=" M29.82202911376953,-63.00299835205078 C29.82202911376953,-63.00299835205078 45.807212829589844,-83.12999725341797 52.59700012207031,63.941001892089844"/></g><g opacity="1" transform="matrix(1,0,0,1,190.56100463867188,295.64599609375)"><path stroke="url(#__lottie_element_73)" stroke-linecap="round" stroke-linejoin="round" fill-opacity="0" stroke-opacity="1" stroke-width="8" d=" M87.59382629394531,82.90005493164062 C87.59382629394531,82.90005493164062 77.69999694824219,104.91200256347656 19.895999908447266,102.67900085449219 C15.093999862670898,102.48999786376953 10.692000389099121,102.20500183105469 6.669000148773193,101.82599639892578 C6.447999954223633,100.12000274658203 4.69376277923584,79.9196548461914 4.555471897125244,78.14347076416016 C3.552743434906006,61.30485153198242 1.7879703044891357,35.820831298828125 0.9790942668914795,26.224252700805664 C14.96532154083252,22.356616973876953 21.124866485595703,-51.43460464477539 20.276411056518555,-50.02854537963867 C20.058876037597656,-49.33462905883789 12.20411205291748,25.346689224243164 -5.1149983406066895,27.81797981262207 C-9.190998077392578,-77.30201721191406 -24.151817321777344,-127.66474151611328 7.841183662414551,-126.20074462890625 C7.841183662414551,-126.20074462890625 7.8511834144592285,-126.2108383178711 7.8511834144592285,-126.2108383178711 C51.59986877441406,-116.49994659423828 70.56536865234375,-47.53178787231445 78.10800170898438,-24.67099952697754 C85.63605499267578,-1.8400120735168457 90.46493530273438,46.339542388916016 87.59382629394531,82.90005493164062z"/></g></g><g style="display: block;" transform="matrix(0.9148329496383667,-0.021867772564291954,0.023220418021082878,0.9714205265045166,108.67935180664062,6.788984298706055)" opacity="1"><g opacity="1" transform="matrix(1,0,0,1,190.56100463867188,295.64599609375)"><path fill="url(#__lottie_element_1476)" fill-opacity="1" d=" M54.596092224121094,82.1357421875 C54.596092224121094,82.1357421875 46.047000885009766,101.56500244140625 19.895999908447266,102.67900085449219 C15.093999862670898,102.88400268554688 10.692000389099121,102.20500183105469 6.669000148773193,101.82599639892578 C6.447999954223633,100.12000274658203 4.333000183105469,79.63400268554688 4.191999912261963,77.85800170898438 C2.934999942779541,62.06999969482422 0.9990000128746033,35.922000885009766 0.3720000088214874,27.482999801635742 C16.113000869750977,25.7549991607666 25.165000915527344,-50.97800064086914 25.283000946044922,-50.8390007019043 C25.454999923706055,-50.637001037597656 17.76099967956543,25.7549991607666 0.0729999989271164,27.856000900268555 C-4.002999782562256,-77.26399993896484 43.63800048828125,-82.58499908447266 75.63099670410156,-81.12100219726562 C75.63099670410156,-81.12100219726562 75.64199829101562,-81.13200378417969 75.64199829101562,-81.13200378417969 C119.04299926757812,-71.24400329589844 69.55450439453125,-47.888999938964844 76.97555541992188,-24.67099952697754 C84.3966064453125,-1.4529999494552612 68.25609588623047,52.26673889160156 54.596092224121094,82.1357421875z"/></g><g opacity="0.3" transform="matrix(1,0,0,1,190.52000427246094,310.50201416015625)"><path fill="url(#__lottie_element_1477)" fill-opacity="0.64" d=" M57.083194732666016,48.54621124267578 C55.76591873168945,49.117191314697266 26.801294326782227,49.75759506225586 24.719335556030273,49.41819381713867 C23.818925857543945,49.270965576171875 22.598377227783203,9.421732902526855 22.60102653503418,8.042647361755371 C22.64002799987793,-10.42322063446045 34.18778610229492,-72.86702728271484 32.40176773071289,-69.0154037475586 C28.939054489135742,-62.72407531738281 27.44101905822754,-20.833600997924805 24.03630828857422,-5.231180667877197 C23.967256546020508,-12.600037574768066 25.085050582885742,-28.01483154296875 25.819955825805664,-38.87116622924805 C26.905323028564453,-54.90943908691406 26.99547576904297,-79.2434310913086 33.36940383911133,-81.9384536743164 C39.59920120239258,-84.57286834716797 42.889007568359375,-55.66859817504883 46.588104248046875,-24.587230682373047 C49.78227996826172,2.2493274211883545 55.37125015258789,2.162426710128784 53.73356246948242,-45.79106903076172 C53.60258102416992,-49.63460159301758 60.31062316894531,-1.0492480993270874 57.083194732666016,48.54621124267578z"/></g><g opacity="1" transform="matrix(1,0,0,1,190.56100463867188,295.64599609375)"><path stroke="url(#__lottie_element_1478)" stroke-linecap="round" stroke-linejoin="round" fill-opacity="0" stroke-opacity="1" stroke-width="8" d=" M54.596092224121094,82.1357421875 C54.596092224121094,82.1357421875 46.047000885009766,101.56500244140625 19.895999908447266,102.67900085449219 C15.093999862670898,102.88400268554688 10.692000389099121,102.20500183105469 6.669000148773193,101.82599639892578 C6.447999954223633,100.12000274658203 4.333000183105469,79.63400268554688 4.191999912261963,77.85800170898438 C2.934999942779541,62.06999969482422 0.9990000128746033,35.922000885009766 0.3720000088214874,27.482999801635742 C16.113000869750977,25.7549991607666 25.165000915527344,-50.97800064086914 25.283000946044922,-50.8390007019043 C25.454999923706055,-50.637001037597656 17.76099967956543,25.7549991607666 0.0729999989271164,27.856000900268555 C-4.002999782562256,-77.26399993896484 43.63800048828125,-82.58499908447266 75.63099670410156,-81.12100219726562 C75.63099670410156,-81.12100219726562 75.64199829101562,-81.13200378417969 75.64199829101562,-81.13200378417969 C119.04299926757812,-71.24400329589844 69.55450439453125,-47.888999938964844 76.97555541992188,-24.67099952697754 C84.3966064453125,-1.4529999494552612 68.25609588623047,52.26673889160156 54.596092224121094,82.1357421875z"/></g><g opacity="1" transform="matrix(1,0,0,1,179.48500061035156,295.5159912109375)"><path fill="url(#__lottie_element_1479)" fill-opacity="1" d=" M67.59576416015625,83.83583068847656 C78.63072967529297,54.55083465576172 90.42659759521484,29.052833557128906 94.87638854980469,20.35788345336914 C101.09721374511719,8.074764251708984 117.74034881591797,-25.18000602722168 143.31333923339844,-32.32500457763672 C181.8282470703125,-43.087005615234375 191.8375244140625,51.244998931884766 208.41383361816406,50.082000732421875 C224.99012756347656,48.91899871826172 250.721435546875,-124.79299926757812 90.93711853027344,-97.80400085449219 C32.91042709350586,-88.0196762084961 0.016745764762163162,-40.26090621948242 -18.313222885131836,-1.8137751817703247 C-23.943477630615234,12.47228717803955 -22.816909790039062,67.76908874511719 -24.0271053314209,84.66783142089844 C-24.0271053314209,84.66783142089844 -26.59000015258789,97.072998046875 30.975000381469727,102.80699920654297 C60.7239990234375,105.7699966430664 67.59576416015625,83.83583068847656 67.59576416015625,83.83583068847656z"/></g><g opacity="0.3" transform="matrix(1,0,0,1,184.1219940185547,256.9909973144531)"><path stroke="url(#__lottie_element_1480)" stroke-linecap="round" stroke-linejoin="round" fill-opacity="0" stroke-opacity="1" stroke-width="8" d=" M-4.078948020935059,7.6539998054504395 C20.18905258178711,-26.4950008392334 64.56729125976562,-48.60082244873047 99.97723388671875,-53.03568649291992 C132.55833435058594,-57.1153450012207 180.18801879882812,-51.75779342651367 206.74754333496094,-9.192615509033203"/></g><g opacity="0.3" transform="matrix(1,0,0,1,190.52000427246094,310.50201416015625)"><path fill="url(#__lottie_element_1481)" fill-opacity="1" d=" M-29.292999267578125,72.80799865722656 C-3.4790000915527344,89.73100280761719 47.172000885009766,83.22699737548828 49.79100036621094,75.51200103759766 C53.89899826049805,63.4119987487793 74.91783905029297,17.755266189575195 83.19776153564453,6.409266948699951 C91.4776840209961,-4.936733245849609 115.41207885742188,-52.01760482788086 139.4801483154297,-48.66960525512695 C163.5482177734375,-45.32160568237305 184.5455780029297,33.40599822998047 196.95297241210938,34.46500015258789 C197.177978515625,24.95599937438965 185.78990173339844,-46.07899856567383 151.1242218017578,-66.3239974975586 C133.54519653320312,-76.58999633789062 95.10529327392578,-76.86346435546875 65.92729187011719,-40.643463134765625 C41.258296966552734,-10.020464897155762 5.997000217437744,14.982999801635742 -15.678999900817871,-41.564998626708984 C-17.464000701904297,-46.22200012207031 -41.90599822998047,8.805000305175781 -29.292999267578125,72.80799865722656z"/></g><g opacity="0.1" transform="matrix(1,0,0,1,189.27099609375,290.1090087890625)"><path stroke="url(#__lottie_element_1482)" stroke-linecap="round" stroke-linejoin="round" fill-opacity="0" stroke-opacity="1" stroke-dasharray=" 3 20" stroke-dashoffset="20" stroke-width="6" d=" M118.84371185302734,-40.78998565673828 C118.84371185302734,-40.78998565673828 69.3863525390625,-38.17251205444336 18.33415985107422,67.81352996826172"/></g><g opacity="1" transform="matrix(1,0,0,1,184.08799743652344,295.4750061035156)"><path stroke="url(#__lottie_element_1483)" stroke-linecap="round" stroke-linejoin="round" fill-opacity="0" stroke-opacity="1" stroke-width="8" d=" M62.992759704589844,83.87699890136719 C74.0277328491211,54.592002868652344 85.82360076904297,29.09483528137207 90.27339172363281,20.399883270263672 C96.49421691894531,8.116764068603516 113.13818359375,-25.13800621032715 138.71034240722656,-32.28300476074219 C177.22525024414062,-43.045005798339844 187.23452758789062,51.2869987487793 203.81082153320312,50.124000549316406 C220.3871307373047,48.96099853515625 246.11843872070312,-124.75199890136719 86.33412170410156,-97.76300048828125 C32.82704162597656,-88.7428970336914 -2.1679091453552246,-45.538875579833984 -22.93413734436035,-1.8730555772781372 C-27.477949142456055,7.573293685913086 -27.270231246948242,65.72377014160156 -28.63010597229004,84.70883178710938 C-28.63010597229004,84.70883178710938 -31.194000244140625,97.11499786376953 26.371000289916992,102.8489990234375 C56.119998931884766,105.81199645996094 62.992759704589844,83.87699890136719 62.992759704589844,83.87699890136719z"/></g></g><g style="display: block;" transform="matrix(0.9148329496383667,-0.021867772564291954,0.023220418021082878,0.9714205265045166,15.595246315002441,9.014026641845703)" opacity="1"><g opacity="1" transform="matrix(1,0,0,1,245.55099487304688,410.69500732421875)"><path fill="rgb(207,83,23)" fill-opacity="1" d=" M92.19400024414062,6.376999855041504 C92.08300018310547,9.763999938964844 63.02399826049805,13.315999984741211 8.355999946594238,13.142999649047852 C-48.21900177001953,12.963000297546387 -92.96700286865234,11.35200023651123 -92.18599700927734,4.1020002365112305 C-91.40499877929688,-3.1480000019073486 -16.89900016784668,-13.387999534606934 4.7829999923706055,-13.144000053405762 C26.464000701904297,-12.899999618530273 92.54199981689453,-4.302000045776367 92.19400024414062,6.376999855041504z"/><path stroke-linecap="round" stroke-linejoin="round" fill-opacity="0" stroke="rgb(158,59,42)" stroke-opacity="1" stroke-width="8" d=" M92.19400024414062,6.376999855041504 C92.08300018310547,9.763999938964844 63.02399826049805,13.315999984741211 8.355999946594238,13.142999649047852 C-48.21900177001953,12.963000297546387 -92.96700286865234,11.35200023651123 -92.18599700927734,4.1020002365112305 C-91.40499877929688,-3.1480000019073486 -16.89900016784668,-13.387999534606934 4.7829999923706055,-13.144000053405762 C26.464000701904297,-12.899999618530273 92.54199981689453,-4.302000045776367 92.19400024414062,6.376999855041504z"/></g><g opacity="1" transform="matrix(1,0,0,1,245.33900451660156,377.7149963378906)"><path fill="url(#__lottie_element_77)" fill-opacity="1" d=" M106.85900115966797,-7.043000221252441 C106.85900115966797,-7.043000221252441 98.90899658203125,4.039000034332275 92.40499877929688,39.35599899291992 C92.40499877929688,39.35599899291992 62.00600051879883,28.892000198364258 3.0739998817443848,29.392000198364258 C-55.858001708984375,29.892000198364258 -91.9739990234375,37.082000732421875 -91.9739990234375,37.082000732421875 C-91.9739990234375,37.082000732421875 -93.13200378417969,9.838000297546387 -106.85900115966797,-16.02400016784668 C-106.85900115966797,-16.02400016784668 -86.36344146728516,-1.0727099180221558 -85.55191802978516,-1.3570727109909058 C-84.70905303955078,-1.6158567667007446 -78.45254516601562,-21.31709098815918 -75.29332733154297,-21.595870971679688 C-72.04450988769531,-21.800373077392578 -48.58047103881836,-0.9487475156784058 -48.71432876586914,-0.7110311985015869 C-48.995330810546875,-0.21403120458126068 -33.22624206542969,-32.31576919555664 -32.05819320678711,-32.686771392822266 C-30.889192581176758,-33.057769775390625 -7.947758197784424,-14.291647911071777 -1.2927582263946533,0.4413517713546753 C5.450372219085693,-10.646632194519043 17.03400421142578,-28.380252838134766 23.349912643432617,-35.58612060546875 C38.26591491699219,-24.194122314453125 44.276432037353516,-10.554079055786133 49.876365661621094,3.232991933822632 C49.876365661621094,3.232991933822632 57.88791275024414,-15.366159439086914 75.72657775878906,-20.53252601623535 C75.72657775878906,-20.53252601623535 74.96668243408203,-8.822558403015137 81.46168518066406,6.1943359375 C81.46168518066406,6.1943359375 93.3418960571289,-1.6402223110198975 105.47256469726562,-7.497910022735596 C105.47256469726562,-7.497910022735596 105.60445404052734,-6.9475178718566895 105.25344848632812,-6.573868751525879 C105.25344848632812,-6.573868751525879 106.46600341796875,-6.959000110626221 106.22699737548828,-6.895999908447266 C106.22699737548828,-6.895999908447266 106.4000015258789,-6.828000068664551 106.76499938964844,-7.0970001220703125 C106.76499938964844,-7.0970001220703125 107.25599670410156,-6.433000087738037 106.96399688720703,-6.486000061035156 C106.96399688720703,-6.486000061035156 106.72899627685547,-6.828000068664551 106.89199829101562,-7.160999774932861 C106.89199829101562,-7.160999774932861 106.33399963378906,-6.828000068664551 106.85900115966797,-7.043000221252441z"/></g><g opacity="0.4" transform="matrix(1,0,0,1,237.24484252929688,386.70098876953125)"><path fill="url(#__lottie_element_78)" fill-opacity="1" d=" M7.230999946594238,-21.76799964904785 C7.230999946594238,-21.76799964904785 -18.018999099731445,21.76799964904785 -18.018999099731445,21.76799964904785 C-18.018999099731445,21.76799964904785 -0.6140000224113464,21.76799964904785 -0.6140000224113464,21.76799964904785 C-0.6140000224113464,21.76799964904785 18.018999099731445,-7.6579999923706055 18.018999099731445,-7.6579999923706055 C18.018999099731445,-7.6579999923706055 7.230999946594238,-21.76799964904785 7.230999946594238,-21.76799964904785z"/></g><g opacity="0.4" transform="matrix(1,0,0,1,278.99383544921875,377.7149963378906)"><path fill="url(#__lottie_element_79)" fill-opacity="1" d=" M9.579999923706055,-28.84000015258789 C9.579999923706055,-28.84000015258789 -23.871999740600586,28.84000015258789 -23.871999740600586,28.84000015258789 C-23.871999740600586,28.84000015258789 -0.8130000233650208,28.84000015258789 -0.8130000233650208,28.84000015258789 C-0.8130000233650208,28.84000015258789 23.871999740600586,-10.145999908447266 23.871999740600586,-10.145999908447266 C23.871999740600586,-10.145999908447266 9.579999923706055,-28.84000015258789 9.579999923706055,-28.84000015258789z"/></g><g opacity="0.8" transform="matrix(1,0,0,1,153.85299682617188,389.7229919433594)"><path stroke="url(#__lottie_element_80)" stroke-linecap="round" stroke-linejoin="round" fill-opacity="0" stroke-opacity="1" stroke-width="8" d=" M-6.695000171661377,-23.844999313354492 C-6.695000171661377,-23.844999313354492 6.627999782562256,-5.879000186920166 6.695000171661377,23.844999313354492"/></g><g opacity="0.8" transform="matrix(1,0,0,1,336.9259948730469,394.8599853515625)"><path stroke="url(#__lottie_element_81)" stroke-linecap="round" stroke-linejoin="round" fill-opacity="0" stroke-opacity="1" stroke-width="8" d=" M-6.1479997634887695,18.70800018310547 C-6.1479997634887695,18.70800018310547 -3.9230000972747803,0 6.1479997634887695,-18.70800018310547"/></g><g opacity="1" transform="matrix(1,0,0,1,245.33900451660156,378.7919921875)"><path stroke="url(#__lottie_element_82)" stroke-linecap="round" stroke-linejoin="round" fill-opacity="0" stroke-opacity="1" stroke-width="8" d=" M106.85900115966797,-8.119999885559082 C106.85900115966797,-8.119999885559082 98.90899658203125,2.9619998931884766 92.40499877929688,38.27899932861328 C92.40499877929688,38.27899932861328 62.00600051879883,27.815000534057617 3.0739998817443848,28.315000534057617 C-55.858001708984375,28.815000534057617 -91.9739990234375,36.005001068115234 -91.9739990234375,36.005001068115234 C-91.9739990234375,36.005001068115234 -93.13200378417969,8.76099967956543 -106.85900115966797,-17.10099983215332 C-106.85900115966797,-17.10099983215332 -86.36344146728516,-2.150662660598755 -85.55191802978516,-2.435025453567505 C-84.70905303955078,-2.6938095092773438 -78.45254516601562,-22.39413833618164 -75.29332733154297,-22.67291831970215 C-72.04450988769531,-22.87742042541504 -48.58047103881836,-2.026700258255005 -48.71432876586914,-1.788983941078186 C-48.995330810546875,-1.291983962059021 -33.22624206542969,-33.39276885986328 -32.05819320678711,-33.763771057128906 C-30.889192581176758,-34.134769439697266 -7.947758197784424,-15.368695259094238 -1.2927582263946533,-0.6356955170631409 C5.450372219085693,-11.723679542541504 17.03400421142578,-29.457252502441406 23.349912643432617,-36.663124084472656 C38.26591491699219,-25.271121978759766 44.276432037353516,-11.631078720092773 49.876365661621094,2.155992031097412 C49.876365661621094,2.155992031097412 57.88791275024414,-16.443206787109375 75.72657775878906,-21.609573364257812 C75.72657775878906,-21.609573364257812 74.96668243408203,-9.900558471679688 81.46168518066406,5.116335868835449 C81.46168518066406,5.116335868835449 93.3418960571289,-2.718175172805786 105.47256469726562,-8.575862884521484 C105.47256469726562,-8.575862884521484 105.60445404052734,-8.024564743041992 105.25344848632812,-7.65091609954834 C105.25344848632812,-7.65091609954834 106.46600341796875,-8.036999702453613 106.22699737548828,-7.973999977111816 C106.22699737548828,-7.973999977111816 106.4000015258789,-7.90500020980835 106.76499938964844,-8.173999786376953 C106.76499938964844,-8.173999786376953 107.25599670410156,-7.510000228881836 106.96399688720703,-7.563000202178955 C106.96399688720703,-7.563000202178955 106.72899627685547,-7.906000137329102 106.89199829101562,-8.23900032043457 C106.89199829101562,-8.23900032043457 106.33399963378906,-7.90500020980835 106.85900115966797,-8.119999885559082z"/></g><g opacity="1" transform="matrix(1,0,0,1,245.55499267578125,412.08099365234375)"><path stroke-linecap="round" stroke-linejoin="round" fill-opacity="0" stroke="rgb(180,65,40)" stroke-opacity="1" stroke-width="8" d=" M92.19000244140625,4.991000175476074 C92.19000244140625,4.991000175476074 61.79100036621094,-5.4730000495910645 2.8589999675750732,-4.9730000495910645 C-56.073001861572266,-4.4730000495910645 -92.19000244140625,2.7160000801086426 -92.19000244140625,2.7160000801086426"/></g></g><g style="display: block;" transform="matrix(1.537276029586792,-0.1224207952618599,0.11970890313386917,1.6326111555099487,74.66510009765625,-274.47796630859375)" opacity="1"><g opacity="1" transform="matrix(1,0,0,1,28.735000610351562,378.9469909667969)"><path fill="url(#__lottie_element_87)" fill-opacity="1" d=" M18.937000274658203,-6.2230000495910645 C22.374000549316406,4.236000061035156 16.68199920654297,15.5 6.2230000495910645,18.937000274658203 C-4.235000133514404,22.374000549316406 -15.5,16.68199920654297 -18.937000274658203,6.2230000495910645 C-22.374000549316406,-4.235000133514404 -16.680999755859375,-15.5 -6.2230000495910645,-18.937000274658203 C4.236000061035156,-22.374000549316406 15.5,-16.68199920654297 18.937000274658203,-6.2230000495910645z"/></g><g opacity="0.5" transform="matrix(1,0,0,1,29.617000579833984,381.6300048828125)"><path stroke="url(#__lottie_element_88)" stroke-linecap="round" stroke-linejoin="round" fill-opacity="0" stroke-opacity="1" stroke-width="5.518018181818027" d=" M16.909000396728516,-5.557000160217285 C19.858999252319336,3.4200000762939453 14.680000305175781,13.184000015258789 5.341000080108643,16.253000259399414 C-3.997999906539917,19.32200050354004 -13.958999633789062,14.534000396728516 -16.909000396728516,5.557000160217285 C-19.858999252319336,-3.4200000762939453 -14.680000305175781,-13.184000015258789 -5.341000080108643,-16.253000259399414 C3.997999906539917,-19.32200050354004 13.958999633789062,-14.532999992370605 16.909000396728516,-5.557000160217285z"/></g><g opacity="1" transform="matrix(1,0,0,1,28.735000610351562,378.9469909667969)"><path stroke="url(#__lottie_element_89)" stroke-linecap="round" stroke-linejoin="round" fill-opacity="0" stroke-opacity="1" stroke-width="5.518018181818027" d=" M18.937000274658203,-6.2230000495910645 C22.374000549316406,4.236000061035156 16.68199920654297,15.5 6.2230000495910645,18.937000274658203 C-4.235000133514404,22.374000549316406 -15.5,16.68199920654297 -18.937000274658203,6.2230000495910645 C-22.374000549316406,-4.235000133514404 -16.680999755859375,-15.5 -6.2230000495910645,-18.937000274658203 C4.236000061035156,-22.374000549316406 15.5,-16.68199920654297 18.937000274658203,-6.2230000495910645z"/></g><g opacity="1" transform="matrix(1,0,0,1,27.631000518798828,379.11199951171875)"><path stroke-linecap="round" stroke-linejoin="round" fill-opacity="0" stroke="rgb(99,33,13)" stroke-opacity="1" stroke-width="8.316924107503459" d=" M-11.362385749816895,6.0460429191589355 C-11.362385749816895,6.0460429191589355 -9.244000434875488,4.287803649902344 -9.244000434875488,4.287803649902344"/></g><g opacity="1" transform="matrix(1,0,0,1,22.781999588012695,388.0889892578125)"><path stroke-linecap="round" stroke-linejoin="round" fill-opacity="0" stroke="rgb(99,33,13)" stroke-opacity="1" stroke-width="5.237693080627594" d=" M-4.27400016784668,-1.9949983358383179 C-4.27400016784668,-1.9949983358383179 8.093880653381348,3.6337618827819824 17.158008575439453,-8.052103042602539"/></g><g opacity="1" transform="matrix(1,0,0,1,27.631000518798828,379.11199951171875)"><path stroke-linecap="round" stroke-linejoin="round" fill-opacity="0" stroke="rgb(99,33,13)" stroke-opacity="1" stroke-width="8.316924107503459" d=" M14.135189056396484,0.5698965191841125 C14.135189056396484,0.5698965191841125 11.632007598876953,-0.5961034893989563 11.632007598876953,-0.5961034893989563"/></g></g><g style="display: block;" transform="matrix(0.910757303237915,0.09762249886989594,-0.08932914584875107,0.9667501449584961,410.7750244140625,-6.658335208892822)" opacity="1"><g opacity="1" transform="matrix(1,0,0,1,97.5469970703125,349.8949890136719)"><path fill="url(#__lottie_element_94)" fill-opacity="1" d=" M27.263999938964844,0 C27.263999938964844,15.057999610900879 15.057999610900879,27.263999938964844 0,27.263999938964844 C-15.057999610900879,27.263999938964844 -27.263999938964844,15.057999610900879 -27.263999938964844,0 C-27.263999938964844,-15.057999610900879 -15.057999610900879,-27.263999938964844 0,-27.263999938964844 C15.057999610900879,-27.263999938964844 27.263999938964844,-15.057999610900879 27.263999938964844,0z"/></g><g opacity="0.5" transform="matrix(1,0,0,1,97.5469970703125,353.7590026855469)"><path stroke="url(#__lottie_element_95)" stroke-linecap="round" stroke-linejoin="round" fill-opacity="0" stroke-opacity="1" stroke-width="8" d=" M24.344999313354492,0 C24.344999313354492,12.923999786376953 13.444999694824219,23.400999069213867 0,23.400999069213867 C-13.444999694824219,23.400999069213867 -24.344999313354492,12.923999786376953 -24.344999313354492,0 C-24.344999313354492,-12.923999786376953 -13.444999694824219,-23.400999069213867 0,-23.400999069213867 C13.444999694824219,-23.400999069213867 24.344999313354492,-12.923999786376953 24.344999313354492,0z"/></g><g opacity="1" transform="matrix(1,0,0,1,97.5469970703125,349.8949890136719)"><path stroke="url(#__lottie_element_96)" stroke-linecap="round" stroke-linejoin="round" fill-opacity="0" stroke-opacity="1" stroke-width="8" d=" M27.263999938964844,0 C27.263999938964844,15.057999610900879 15.057999610900879,27.263999938964844 0,27.263999938964844 C-15.057999610900879,27.263999938964844 -27.263999938964844,15.057999610900879 -27.263999938964844,0 C-27.263999938964844,-15.057999610900879 -15.057999610900879,-27.263999938964844 0,-27.263999938964844 C15.057999610900879,-27.263999938964844 27.263999938964844,-15.057999610900879 27.263999938964844,0z"/></g><g opacity="1" transform="matrix(1,0,0,1,98.20800018310547,347.5429992675781)"><path stroke-linecap="round" stroke-linejoin="round" fill-opacity="0" stroke="rgb(99,33,13)" stroke-opacity="1" stroke-width="12" d=" M-3.7062909603118896,6.938544750213623 C-3.7062909603118896,6.938544750213623 -1.8484365940093994,9.966545104980469 -1.8484365940093994,9.966545104980469"/></g><g opacity="1" transform="matrix(1,0,0,1,84.04199981689453,349.4440002441406)"><path stroke-linecap="round" stroke-linejoin="round" fill-opacity="0" stroke="rgb(99,33,13)" stroke-opacity="1" stroke-width="8" d=" M13.062999725341797,5.544000148773193 C13.062999725341797,5.544000148773193 20.566999435424805,-3.1530001163482666 40.07099914550781,0.7990000247955322"/></g><g opacity="0" transform="matrix(1,0,0,1,98.20800018310547,347.5429992675781)"><path stroke-linecap="round" stroke-linejoin="round" fill-opacity="0" stroke="rgb(99,33,13)" stroke-opacity="1" stroke-width="12" d=" M26.339000701904297,3.7230000495910645 C26.339000701904297,3.7230000495910645 25.73200035095215,3.7160000801086426 25.73200035095215,3.7160000801086426"/></g></g></g></svg>